SplineFontDB: 3.2
FontName: OverusedGrotesk-LightItalic
FullName: Overused Grotesk Light
FamilyName: Overused Grotesk
Weight: Light
Copyright: Copyright (c) 2023, Bao Nguyen (RandomMaerks) (rmforbusiness@gmail.com)
UComments: "2023-7-28: Created with FontForge (http://fontforge.org)"
Version: 0.2
ItalicAngle: -10
UnderlinePosition: -100
UnderlineWidth: 50
Ascent: 800
Descent: 200
InvalidEm: 0
LayerCount: 2
Layer: 0 0 "Back" 1
Layer: 1 0 "Fore" 0
XUID: [1021 36 -67577861 30019]
StyleMap: 0x0001
FSType: 0
OS2Version: 0
OS2_WeightWidthSlopeOnly: 0
OS2_UseTypoMetrics: 1
CreationTime: 1690548111
ModificationTime: 1693307322
PfmFamily: 17
TTFWeight: 300
TTFWidth: 5
LineGap: 90
VLineGap: 90
OS2TypoAscent: 800
OS2TypoAOffset: 0
OS2TypoDescent: -200
OS2TypoDOffset: 0
OS2TypoLinegap: 90
OS2WinAscent: 1054
OS2WinAOffset: 0
OS2WinDescent: 276
OS2WinDOffset: 0
HheadAscent: 1054
HheadAOffset: 0
HheadDescent: -276
HheadDOffset: 0
OS2Vendor: 'Rand'
Lookup: 1 0 0 "'cv01' Character Variants 01 in Latin lookup 16" { "'cv01' Character Variants 01 in Latin lookup 16-1" ("cv01") } ['cv01' ('DFLT' <'dflt' > 'latn' <'dflt' > ) ]
Lookup: 1 0 0 "'cv02' Character Variants 02 in Latin lookup 17" { "'cv02' Character Variants 02 in Latin lookup 17-1" ("cv02") } ['cv02' ('DFLT' <'dflt' > 'latn' <'dflt' > ) ]
Lookup: 1 0 0 "'cv03' Character Variants 03 in Latin lookup 18" { "'cv03' Character Variants 03 in Latin lookup 18-1"  } ['cv03' ('DFLT' <'dflt' > 'latn' <'dflt' > ) ]
Lookup: 1 0 0 "'cv04' Character Variants 04 in Latin lookup 19" { "'cv04' Character Variants 04 in Latin lookup 19-1"  } ['cv04' ('DFLT' <'dflt' > 'latn' <'dflt' > ) ]
Lookup: 1 0 0 "'cv05' Character Variants 05 in Latin lookup 20" { "'cv05' Character Variants 05 in Latin lookup 20-1" ("cv05") } ['cv05' ('DFLT' <'dflt' > 'latn' <'dflt' > ) ]
Lookup: 1 0 0 "'dnom' Denominators in Latin lookup 12" { "'dnom' Denominators in Latin lookup 12-1" ("dnom") } ['dnom' ('DFLT' <'dflt' > 'latn' <'dflt' > ) ]

StartChar: n
Encoding: 110 110 0
GlifName: n
Width: 510
Flags: HMW
AnchorPoint: "bottom1" 265 0 basechar 0
AnchorPoint: "top1" 361 560 basechar 0
LayerCount: 2
Fore
SplineSet
459.825195312 292 m 2
 478.212438152 393.638524524 430.92313851 459 339 459 c 0
 242.650655317 459 173.105708152 397.966973811 157.825195312 300 c 1
 126.825195312 306 l 1
 146.05829559 423.232564772 240.349579361 509 350 509 c 0
 459.628588786 509 531.964929106 413.646133847 510.825195312 297 c 2
 457 0 l 1
 407 0 l 1
 459.825195312 292 l 2
143 500 m 1
 193 500 l 1
 106 0 l 1
 56 0 l 1
 143 500 l 1
EndSplineSet
Substitution2: "'cv05' Character Variants 05 in Latin lookup 20-1" n.cv05
Substitution2: "'sups' Superscript in Latin lookup 15-1" uni207F
Substitution2: "'subs' Subscript in Latin lookup 14-1" uni2099
EndChar

StartChar: h
Encoding: 104 104 1
GlifName: h
Width: 510
Flags: HMW
AnchorPoint: "top1" 210.412 755 basechar 0
LayerCount: 2
Fore
SplineSet
459.825195312 292 m 6
 478.212438152 393.638524524 430.92313851 459 339 459 c 4
 242.650655317 459 173.105708152 397.966973811 157.825195312 300 c 5
 126.825195312 306 l 5
 146.05829559 423.232564772 240.349579361 509 350 509 c 4
 459.628588786 509 531.964929106 413.646133847 510.825195312 297 c 6
 457 0 l 5
 407 0 l 5
 459.825195312 292 l 6
177.20703125 700 m 5
 227.20703125 700 l 5
 106 0 l 5
 56 0 l 5
 177.20703125 700 l 5
EndSplineSet
Substitution2: "'cv05' Character Variants 05 in Latin lookup 20-1" h.cv05
EndChar

StartChar: m
Encoding: 109 109 2
GlifName: m
Width: 820
Flags: HMW
LayerCount: 2
Fore
SplineSet
775 309 m 2
 794.473397082 416.451423183 745 457 670 457 c 0
 589.694335938 457 509 394 494 310 c 1
 464 318 l 1
 484 435 589.63671875 509 678 509 c 0
 777 509 847.801774109 435.483488495 826 315 c 2
 769 0 l 1
 719 0 l 1
 775 309 l 2
444 308 m 2
 463.503501065 413.387339089 417 461 332 461 c 0
 251.694335938 461 177 405 162 321 c 1
 134 330 l 1
 154 447 262.62890625 511 349 511 c 0
 450 511 517.358101216 435.04213417 495 314 c 2
 437 0 l 1
 387 0 l 1
 444 308 l 2
144 500 m 1
 194 500 l 1
 106 0 l 1
 56 0 l 1
 144 500 l 1
EndSplineSet
Substitution2: "'cv05' Character Variants 05 in Latin lookup 20-1" m.cv05
EndChar

StartChar: u
Encoding: 117 117 3
GlifName: u
Width: 502
Flags: HMW
AnchorPoint: "top3" 483 500 basechar 0
AnchorPoint: "bottom2" 446 0 basechar 0
AnchorPoint: "bottom1" 263 0 basechar 0
AnchorPoint: "top1" 347 560 basechar 0
LayerCount: 2
Fore
SplineSet
137 208 m 6
 119 106 161 41 253 41 c 4
 349 41 416 102 431 200 c 5
 462 194 l 5
 443 77 352 -9 242 -9 c 4
 132 -9 65 86 86 203 c 6
 140 500 l 5
 190 500 l 5
 137 208 l 6
446 0 m 5
 396 0 l 5
 483 500 l 5
 533 500 l 5
 446 0 l 5
EndSplineSet
Substitution2: "'cv05' Character Variants 05 in Latin lookup 20-1" u.cv05
Substitution2: "'ss10' Style Set 10 in Latin lookup 9-1" u.ss10
EndChar

StartChar: i
Encoding: 105 105 4
GlifName: i
Width: 160
Flags: HMW
AnchorPoint: "bottom1" 83 0 basechar 0
AnchorPoint: "bottom2" 107 0 basechar 0
LayerCount: 2
Fore
SplineSet
163 643 m 1
 228 643 l 1
 215 573 l 1
 150 573 l 1
 163 643 l 1
144 500 m 5
 195 500 l 5
 107 0 l 5
 56 0 l 5
 144 500 l 5
EndSplineSet
Substitution2: "'cv05' Character Variants 05 in Latin lookup 20-1" i.cv05
Substitution2: "'ss03' Style Set 3 in Latin lookup 2-1" i.ss03
EndChar

StartChar: l
Encoding: 108 108 5
GlifName: l
Width: 160
Flags: HMW
AnchorPoint: "top2" 248 500 basechar 0
AnchorPoint: "bottom1" 80 0 basechar 0
AnchorPoint: "top1" 212 755 basechar 0
LayerCount: 2
Fore
SplineSet
179 700 m 5
 230 700 l 5
 107 0 l 5
 56 0 l 5
 179 700 l 5
EndSplineSet
Substitution2: "'cv05' Character Variants 05 in Latin lookup 20-1" l.cv05
Substitution2: "'ss02' Style Set 2 in Latin lookup 1-1" l.ss02
EndChar

StartChar: o
Encoding: 111 111 6
GlifName: o
Width: 545
Flags: HMW
AnchorPoint: "top3" 407 500 basechar 0
AnchorPoint: "bottom1" 261 0 basechar 0
AnchorPoint: "top1" 358 560 basechar 0
LayerCount: 2
Fore
SplineSet
84 209 m 0
 84 380 193 510 337 510 c 0
 463 510 545 425 545 294 c 0
 545 123 435 -8 292 -8 c 0
 166 -8 84 77 84 209 c 0
493 296 m 0
 493 400 434 460 332 460 c 0
 227 460 137 356 137 207 c 0
 137 102 196 42 298 42 c 0
 402 42 493 147 493 296 c 0
EndSplineSet
Substitution2: "'cv05' Character Variants 05 in Latin lookup 20-1" o.cv05
EndChar

StartChar: c
Encoding: 99 99 7
GlifName: c
Width: 537
Flags: HMW
AnchorPoint: "bottom1" 271 1 basechar 0
AnchorPoint: "top1" 369 558 basechar 0
LayerCount: 2
Fore
SplineSet
84 209 m 0
 84 380.16010879 193.134526499 510 337 510 c 0
 456.578062284 510 534 430 534 314 c 1
 482 314 l 1
 482 404 426.454064923 460 331 460 c 0
 220.842876518 460 137 350.658516706 137 207 c 0
 137 100.533260371 195.457358076 41 300 41 c 0
 376.916498385 41 440.071938497 94.2572096499 459 169 c 1
 516 169 l 1
 488.909482168 60.2062868198 403.747960207 -8 295 -8 c 0
 166.354537706 -8 84 76.6963729013 84 209 c 0
EndSplineSet
Substitution2: "'cv05' Character Variants 05 in Latin lookup 20-1" c.cv05
EndChar

StartChar: e
Encoding: 101 101 8
GlifName: e
Width: 543
Flags: HMW
AnchorPoint: "bottom2" 426 24 basechar 0
AnchorPoint: "bottom1" 279 0 basechar 0
AnchorPoint: "top1" 367 559 basechar 0
LayerCount: 2
Fore
SplineSet
84 207 m 0
 84 372 182 510 336 510 c 0
 483 510 562 394 540 262 c 2
 535 232 l 1
 130 232 l 1
 139 280 l 1
 490 280 l 1
 507 386 442 460 340 460 c 0
 219 460 136 357 136 204 c 0
 136 98 196 41 306 41 c 0
 383.924050633 41 439.291139241 80.6 468 151 c 1
 526 151 l 1
 485.636363636 46.4666666667 408.945454545 -9 304 -9 c 0
 168 -9 84 73 84 207 c 0
EndSplineSet
Substitution2: "'cv05' Character Variants 05 in Latin lookup 20-1" e.cv05
EndChar

StartChar: a
Encoding: 97 97 9
GlifName: a
Width: 501
Flags: HMW
AnchorPoint: "bottom2" 471 0 basechar 0
AnchorPoint: "bottom1" 277 -1 basechar 0
AnchorPoint: "top1" 352 559 basechar 0
LayerCount: 2
Fore
SplineSet
468 122 m 2
 459.912109375 76.9716796875 460.74609375 43.06640625 471 0 c 1
 420 0 l 1
 410.721679688 34.794921875 409.661132812 76.4794921875 417 118 c 2
 454 328 l 2
 466.458984375 404.461914062 406.998046875 461.141601562 314.326171875 461.141601562 c 0
 235.4921875 461.141601562 186.624023438 428.370117188 165 361 c 1
 109 361 l 1
 132.73046875 453.053710938 213.440429688 510.249023438 319.609375 510.249023438 c 0
 441.993164062 510.249023438 523.03515625 430.580078125 505 328 c 2
 468 122 l 2
468 205 m 1
 447 77 344.381835938 -8.8955078125 229.48046875 -8.8955078125 c 0
 134.712890625 -8.8955078125 69.6171875 45.3056640625 69.6171875 124.212890625 c 0
 69.6171875 210.356445312 133.250976562 272.846679688 235 277 c 2
 382 282 l 2
 433.228515625 283.903320312 447.939453125 292.893554688 454 326 c 1
 439 233 l 1
 242 228 l 2
 161.102539062 225.904296875 122.51171875 185.2265625 122.51171875 129.91796875 c 0
 122.51171875 76.1513671875 168.565429688 40.1982421875 237.436523438 40.1982421875 c 0
 335.086914062 40.1982421875 415.377929688 109.091796875 433 208 c 1
 468 205 l 1
EndSplineSet
Substitution2: "'cv05' Character Variants 05 in Latin lookup 20-1" a.cv05
Substitution2: "'ss01' Style Set 1 in Latin lookup 0-1" a.ss01
EndChar

StartChar: s
Encoding: 115 115 10
GlifName: s
Width: 490
Flags: HMW
AnchorPoint: "bottom1" 261 -0 basechar 0
AnchorPoint: "top1" 334 560 basechar 0
LayerCount: 2
Fore
SplineSet
318 218 m 2
 246 235 l 2
 155.825062135 255.452047763 114.23744267 293.268505867 114.23744267 360.972743799 c 0
 114.23744267 449.585892393 185.478226559 510.305541289 303.055427354 510.305541289 c 0
 425.228509309 510.305541289 499.547716487 444.746276026 492 338 c 1
 441 338 l 1
 441 419.997434419 392.28161883 460.978332598 302.557291166 460.978332598 c 0
 215.871508568 460.978332598 164.484928311 422.726099296 164.484928311 366.143483619 c 0
 164.484928311 324.590326469 192.198450794 302.314617687 259 288 c 2
 332 272 l 2
 423.851356814 251.686719166 467.860106513 209.716308329 467.860106513 138.377563713 c 0
 467.860106513 49.0040661108 398.787536761 -9.35312645096 279.074630569 -9.35312645096 c 0
 150.752744807 -9.35312645096 67.4187005631 57.69920901 74 163 c 1
 127 163 l 1
 127 82.0373944753 183.892526495 38.9678620872 280.493877549 38.9678620872 c 0
 368.648851221 38.9678620872 417.479541749 74.8350555925 417.479541749 130.427567571 c 0
 417.479541749 174.884642535 386.251695006 201.885016457 318 218 c 2
EndSplineSet
Substitution2: "'cv05' Character Variants 05 in Latin lookup 20-1" s.cv05
EndChar

StartChar: b
Encoding: 98 98 11
GlifName: b
Width: 552
Flags: HMW
LayerCount: 2
Fore
SplineSet
179 700 m 5
 230 700 l 5
 107 0 l 5
 56 0 l 5
 179 700 l 5
120 199 m 4
 120 370 206 510 350 510 c 4
 476 510 558 425 558 294 c 4
 558 123 448 -8 305 -8 c 4
 179 -8 120 67 120 199 c 4
506 296 m 4
 506 400 447 460 345 460 c 4
 240 460 150 356 150 207 c 4
 150 102 209 42 311 42 c 4
 415 42 506 147 506 296 c 4
EndSplineSet
Substitution2: "'cv05' Character Variants 05 in Latin lookup 20-1" b.cv05
EndChar

StartChar: d
Encoding: 100 100 12
GlifName: d
Width: 552
Flags: HMW
AnchorPoint: "top2" 640 500 basechar 0
LayerCount: 2
Fore
SplineSet
621 700 m 5
 570 700 l 5
 447 0 l 5
 498 0 l 5
 621 700 l 5
525 304 m 4
 525 425 463 510 337 510 c 4
 193 510 84 380 84 209 c 4
 84 77 166 -8 292 -8 c 4
 435 -8 525 133 525 304 c 4
137 207 m 4
 137 356 227 460 332 460 c 4
 434 460 493 400 493 296 c 4
 493 147 402 42 298 42 c 4
 196 42 137 102 137 207 c 4
EndSplineSet
Substitution2: "'cv05' Character Variants 05 in Latin lookup 20-1" d.cv05
EndChar

StartChar: p
Encoding: 112 112 13
GlifName: p
Width: 552
Flags: HMW
LayerCount: 2
Fore
SplineSet
143.911132812 500 m 5
 194.911132812 500 l 5
 78.611328125 -163 l 5
 27.611328125 -163 l 5
 143.911132812 500 l 5
120 199 m 0
 120 370 206 510 350 510 c 0
 476 510 558 425 558 294 c 0
 558 123 448 -8 305 -8 c 0
 179 -8 120 67 120 199 c 0
506 296 m 0
 506 400 447 460 345 460 c 0
 240 460 150 356 150 207 c 0
 150 102 209 42 311 42 c 0
 415 42 506 147 506 296 c 0
EndSplineSet
Substitution2: "'cv05' Character Variants 05 in Latin lookup 20-1" p.cv05
EndChar

StartChar: q
Encoding: 113 113 14
GlifName: q
Width: 552
Flags: HMW
LayerCount: 2
Fore
SplineSet
585.3828125 500 m 1
 534.3828125 500 l 1
 417.025390625 -163 l 1
 468.025390625 -163 l 1
 585.3828125 500 l 1
525 304 m 0
 525 425 463 510 337 510 c 0
 193 510 84 380 84 209 c 0
 84 77 166 -8 292 -8 c 0
 435 -8 525 133 525 304 c 0
137 207 m 0
 137 356 227 460 332 460 c 0
 434 460 493 400 493 296 c 0
 493 147 402 42 298 42 c 0
 196 42 137 102 137 207 c 0
EndSplineSet
Substitution2: "'cv05' Character Variants 05 in Latin lookup 20-1" q.cv05
EndChar

StartChar: g
Encoding: 103 103 15
GlifName: g
Width: 552
Flags: HMW
AnchorPoint: "top1" 366 559 basechar 0
LayerCount: 2
Fore
SplineSet
140 218 m 0
 140 361 218 460 332 460 c 0
 436 460 496 400 496 298 c 0
 496 155 417 56 303 56 c 0
 200 56 140 115 140 218 c 0
529 303 m 0
 529 430 455 510 336 510 c 0
 196 510 88 383 88 219 c 0
 88 92 169 7 291 7 c 0
 426 7 529 135 529 303 c 0
586 500 m 1
 535 500 l 1
 444 -21 l 2
 430 -100 373 -150 284 -150 c 0
 175 -150 104 -96 104 -21 c 1
 52 -21 l 1
 52 -126 141 -200 278 -200 c 0
 392 -200 475 -131 493 -30 c 2
 586 500 l 1
EndSplineSet
Substitution2: "'cv05' Character Variants 05 in Latin lookup 20-1" g.cv05
EndChar

StartChar: t
Encoding: 116 116 16
GlifName: t
Width: 312
Flags: HMW
AnchorPoint: "top2" 329.261 549 basechar 0
AnchorPoint: "bottom1" 233.457 0 basechar 0
LayerCount: 2
Fore
SplineSet
123.620117188 500 m 5
 365.620117188 500 l 5
 357.157226562 452 l 5
 115.157226562 452 l 5
 123.620117188 500 l 5
285.920898438 48 m 5
 277.45703125 0 l 5
 235.45703125 0 l 6
 185.45703125 0 136.39453125 28 152.263671875 118 c 6
 242.54296875 630 l 5
 293.54296875 630 l 5
 204.321289062 124 l 6
 193.389648439 62 213.920898438 48 244.920898438 48 c 6
 285.920898438 48 l 5
EndSplineSet
Substitution2: "'cv05' Character Variants 05 in Latin lookup 20-1" t.cv05
Substitution2: "'ss08' Style Set 8 in Latin lookup 7-1" t.ss08
EndChar

StartChar: r
Encoding: 114 114 17
GlifName: r
Width: 304
Flags: HMW
AnchorPoint: "bottom1" 83 0 basechar 0
AnchorPoint: "top1" 261 559 basechar 0
LayerCount: 2
Fore
SplineSet
351 450 m 1
 332 450 l 2
 256 450 178 403 164 321 c 1
 137 329 l 1
 157 446 256 503 340 503 c 2
 360 503 l 1
 351 450 l 1
145 500 m 1
 196 500 l 1
 108 0 l 1
 58 0 l 1
 145 500 l 1
EndSplineSet
Substitution2: "'cv05' Character Variants 05 in Latin lookup 20-1" r.cv05
EndChar

StartChar: v
Encoding: 118 118 19
GlifName: v
Width: 531
Flags: HMW
LayerCount: 2
Fore
SplineSet
124.08203125 500 m 5
 176.08203125 500 l 5
 274.555664062 66 l 5
 522.08203125 500 l 5
 585.08203125 500 l 5
 294.91796875 0 l 5
 237.91796875 0 l 5
 124.08203125 500 l 5
EndSplineSet
Substitution2: "'cv05' Character Variants 05 in Latin lookup 20-1" v.cv05
EndChar

StartChar: f
Encoding: 102 102 20
GlifName: f
Width: 312
Flags: HMW
LayerCount: 2
Fore
SplineSet
114.985351562 452 m 1
 123.44921875 500 l 1
 365.44921875 500 l 1
 356.985351562 452 l 1
 114.985351562 452 l 1
392.250976562 652 m 1
 351.250976562 652 l 2
 311.250976562 652 278.702148438 631.875976562 268.849609375 576 c 2
 167.28515625 0 l 1
 116.28515625 0 l 1
 218.908203125 582 l 2
 234.77734375 672 301.71484375 700 358.71484375 700 c 2
 400.71484375 700 l 1
 392.250976562 652 l 1
EndSplineSet
Substitution2: "'cv05' Character Variants 05 in Latin lookup 20-1" f.cv05
EndChar

StartChar: k
Encoding: 107 107 21
GlifName: k
Width: 467
Flags: HMW
AnchorPoint: "bottom1" 242.285 0 basechar 0
LayerCount: 2
Fore
SplineSet
177.71484375 700 m 5
 227.71484375 700 l 5
 104.28515625 0 l 5
 54.28515625 0 l 5
 177.71484375 700 l 5
436.44921875 500 m 5
 511.44921875 500 l 5
 244.543945312 251 l 5
 436.28515625 0 l 5
 376.28515625 0 l 5
 208.196289062 215 l 5
 128.852539062 145 l 5
 98.0244140625 180 l 5
 436.44921875 500 l 5
EndSplineSet
Substitution2: "'cv05' Character Variants 05 in Latin lookup 20-1" k.cv05
EndChar

StartChar: j
Encoding: 106 106 22
GlifName: j
Width: 160
Flags: HMW
LayerCount: 2
Fore
SplineSet
-53.802734375 -106 m 5
 -22.802734375 -106 l 6
 11.197265625 -106 39.666015625 -92 50.5986328125 -30 c 6
 144.051757812 500 l 5
 195.051757812 500 l 5
 100.540039062 -36 l 6
 84.6708984375 -126 21.7333984375 -154 -30.2666015625 -154 c 6
 -62.2666015625 -154 l 5
 -53.802734375 -106 l 5
162.266601562 643 m 1
 227.266601562 643 l 1
 214.923828125 573 l 1
 149.923828125 573 l 1
 162.266601562 643 l 1
EndSplineSet
Substitution2: "'cv05' Character Variants 05 in Latin lookup 20-1" j.cv05
Substitution2: "'ss03' Style Set 3 in Latin lookup 2-1" j.ss03
EndChar

StartChar: w
Encoding: 119 119 23
GlifName: w
Width: 749
Flags: HMW
AnchorPoint: "top1" 467.661 560 basechar 0
LayerCount: 2
Fore
SplineSet
122.08203125 500 m 1
 174.08203125 500 l 1
 218.4375 76 l 1
 427.08203125 500 l 1
 484.08203125 500 l 1
 543.4375 76 l 1
 739.08203125 500 l 1
 801.08203125 500 l 1
 558.91796875 0 l 1
 505.91796875 0 l 1
 444.267578125 424 l 5
 233.91796875 0 l 1
 180.91796875 0 l 1
 122.08203125 500 l 1
EndSplineSet
Substitution2: "'cv05' Character Variants 05 in Latin lookup 20-1" w.cv05
EndChar

StartChar: x
Encoding: 120 120 24
GlifName: x
Width: 497
Flags: HMW
LayerCount: 2
Fore
SplineSet
123.08203125 500 m 1
 180.08203125 500 l 1
 294.290039062 280 l 1
 483.08203125 500 l 1
 550.08203125 500 l 1
 335.529296875 253 l 1
 461.91796875 0 l 1
 405.91796875 0 l 1
 296.296875 226 l 5
 102.91796875 0 l 1
 34.91796875 0 l 1
 250.881835938 255 l 1
 123.08203125 500 l 1
EndSplineSet
Substitution2: "'cv05' Character Variants 05 in Latin lookup 20-1" x.cv05
EndChar

StartChar: y
Encoding: 121 121 25
GlifName: y
Width: 531
Flags: HMW
AnchorPoint: "bottom1" 361.495 0 basechar 0
AnchorPoint: "top1" 373.238 560 basechar 0
LayerCount: 2
Fore
SplineSet
38.509765625 -102 m 1
 112.509765625 -102 l 2
 162.509765625 -102 185.860351562 -83 214.206054688 -30 c 2
 234.495117188 10 l 1
 121.659179688 500 l 1
 174.659179688 500 l 5
 273.1328125 66 l 5
 520.659179688 500 l 5
 582.659179688 500 l 1
 274.147460938 -36 l 2
 225.3359375 -120 183.340820312 -154 127.340820312 -154 c 2
 32.3408203125 -154 l 1
 38.509765625 -102 l 1
EndSplineSet
Substitution2: "'cv05' Character Variants 05 in Latin lookup 20-1" y.cv05
Substitution2: "'ss07' Style Set 7 in Latin lookup 6-1" y.ss07
EndChar

StartChar: z
Encoding: 122 122 26
GlifName: z
Width: 462
Flags: HMW
AnchorPoint: "top1" 325.661 560 basechar 0
LayerCount: 2
Fore
SplineSet
131.08203125 500 m 1
 501.08203125 500 l 1
 492.854492188 442 l 1
 108.381835938 48 l 1
 423.381835938 48 l 1
 414.91796875 0 l 1
 44.91796875 0 l 5
 53.1455078125 58 l 1
 436.618164062 452 l 1
 122.618164062 452 l 1
 131.08203125 500 l 1
EndSplineSet
Substitution2: "'cv05' Character Variants 05 in Latin lookup 20-1" z.cv05
EndChar

StartChar: H
Encoding: 72 72 27
GlifName: H_
Width: 610
Flags: HMW
AnchorPoint: "top1" 435 700 basechar 0
LayerCount: 2
Fore
SplineSet
170 650 m 1
 220 650 l 1
 168 360 l 1
 568 360 l 1
 620 650 l 1
 670 650 l 1
 555 0 l 1
 505 0 l 1
 560 312 l 1
 160 312 l 1
 105 0 l 1
 55 0 l 1
 170 650 l 1
EndSplineSet
Substitution2: "'cv05' Character Variants 05 in Latin lookup 20-1" H.cv05
EndChar

StartChar: I
Encoding: 73 73 28
GlifName: I_
Width: 160
Flags: HMW
AnchorPoint: "bottom2" 105 0 basechar 0
AnchorPoint: "bottom1" 80 0 basechar 0
AnchorPoint: "top1" 204 700 basechar 0
LayerCount: 2
Fore
SplineSet
170 650 m 5
 220 650 l 5
 105 0 l 5
 55 0 l 5
 170 650 l 5
EndSplineSet
Substitution2: "'cv05' Character Variants 05 in Latin lookup 20-1" I.cv05
EndChar

StartChar: N
Encoding: 78 78 29
GlifName: N_
Width: 610
Flags: HMW
AnchorPoint: "bottom1" 319 0 basechar 0
AnchorPoint: "top1" 439 700 basechar 0
LayerCount: 2
Fore
SplineSet
620 650 m 1
 670 650 l 1
 555 0 l 1
 501 0 l 5
 209 591 l 1
 105 0 l 1
 55 0 l 1
 170 650 l 1
 236 650 l 1
 519 78 l 1
 620 650 l 1
EndSplineSet
Substitution2: "'cv05' Character Variants 05 in Latin lookup 20-1" N.cv05
EndChar

StartChar: M
Encoding: 77 77 30
GlifName: M_
Width: 726
Flags: HMW
LayerCount: 2
Fore
SplineSet
388 0 m 1
 338 0 l 1
 207 581 l 1
 105 0 l 1
 55 0 l 1
 170 650 l 1
 236 650 l 5
 371 72 l 5
 706 650 l 5
 786 650 l 1
 671 0 l 1
 621 0 l 1
 723 581 l 1
 388 0 l 1
EndSplineSet
Substitution2: "'cv05' Character Variants 05 in Latin lookup 20-1" M.cv05
EndChar

StartChar: L
Encoding: 76 76 31
GlifName: L_
Width: 470
Flags: HMW
AnchorPoint: "top2" 284 467 basechar 0
AnchorPoint: "bottom1" 247 0 basechar 0
AnchorPoint: "top1" 205 700 basechar 0
LayerCount: 2
Fore
SplineSet
435 0 m 5
 55 0 l 5
 170 650 l 5
 220 650 l 5
 113 48 l 5
 443 48 l 5
 435 0 l 5
EndSplineSet
Substitution2: "'cv05' Character Variants 05 in Latin lookup 20-1" L.cv05
EndChar

StartChar: E
Encoding: 69 69 32
GlifName: E_
Width: 530
Flags: HMW
AnchorPoint: "bottom2" 465 0 basechar 0
AnchorPoint: "bottom1" 279 0 basechar 0
AnchorPoint: "top1" 402 700 basechar 0
LayerCount: 2
Fore
SplineSet
600 650 m 1
 591 602 l 1
 211 602 l 1
 168 357 l 1
 520 357 l 1
 511 309 l 1
 159 309 l 1
 113 48 l 1
 493 48 l 1
 485 0 l 1
 55 0 l 1
 170 650 l 1
 600 650 l 1
EndSplineSet
Substitution2: "'cv05' Character Variants 05 in Latin lookup 20-1" E.cv05
EndChar

StartChar: F
Encoding: 70 70 33
GlifName: F_
Width: 530
Flags: HMW
LayerCount: 2
Fore
SplineSet
600 650 m 5
 591 602 l 5
 211 602 l 5
 164 337 l 5
 516 337 l 5
 508 289 l 5
 156 289 l 5
 105 0 l 5
 55 0 l 5
 170 650 l 5
 600 650 l 5
EndSplineSet
Substitution2: "'cv05' Character Variants 05 in Latin lookup 20-1" F.cv05
EndChar

StartChar: T
Encoding: 84 84 34
GlifName: T_
Width: 520
Flags: HMW
AnchorPoint: "bottom1" 260 0 basechar 0
AnchorPoint: "top1" 381 700 basechar 0
LayerCount: 2
Fore
SplineSet
600 650 m 5
 591 602 l 5
 391 602 l 5
 285 0 l 5
 235 0 l 5
 341 602 l 5
 141 602 l 5
 150 650 l 5
 600 650 l 5
EndSplineSet
Substitution2: "'cv05' Character Variants 05 in Latin lookup 20-1" T.cv05
EndChar

StartChar: O
Encoding: 79 79 35
GlifName: O_
Width: 665
Flags: HMW
AnchorPoint: "top3" 495 650 basechar 0
AnchorPoint: "bottom1" 332 0 basechar 0
AnchorPoint: "top1" 457 700 basechar 0
LayerCount: 2
Fore
SplineSet
97 264 m 0
 97 491.256498734 235.062864672 660 421 660 c 0
 573.061117183 660 680 543.564614076 680 378 c 0
 680 149.960591403 549.048214381 -8 360 -8 c 0
 205.199130007 -8 97 103.901761832 97 264 c 0
628 383 m 0
 628 526.60072442 549.376894387 610 414 610 c 0
 260.80940741 610 149 462.749120052 149 261 c 0
 149 122.683319094 229.314902112 42 367 42 c 0
 522.187731299 42 628 180.245147996 628 383 c 0
EndSplineSet
Substitution2: "'cv05' Character Variants 05 in Latin lookup 20-1" O.cv05
EndChar

StartChar: C
Encoding: 67 67 36
GlifName: C_
Width: 637
Flags: HMW
AnchorPoint: "bottom1" 321 0 basechar 0
AnchorPoint: "top1" 445 700 basechar 0
LayerCount: 2
Fore
SplineSet
97 266 m 0
 97 488 233 659 410 659 c 0
 563 659 666 563 666 419 c 1
 614 419 l 1
 614 538 535 610 405 610 c 0
 261 610 150 457 150 260 c 0
 150 120 224 42 359 42 c 0
 463 42 556 111 579 205 c 1
 634 205 l 1
 598 75 488 -8 352 -8 c 0
 194 -8 97 96 97 266 c 0
EndSplineSet
Substitution2: "'cv05' Character Variants 05 in Latin lookup 20-1" C.cv05
EndChar

StartChar: G
Encoding: 71 71 37
GlifName: G_
Width: 647
Flags: HMW
AnchorPoint: "bottom1" 322 0 basechar 0
AnchorPoint: "top1" 446 700 basechar 0
LayerCount: 2
Fore
SplineSet
600 327 m 1
 651 332 l 1
 593 0 l 1
 554 0 l 1
 600 327 l 1
378 332 m 5
 651 332 l 5
 633 284 l 5
 370 284 l 5
 378 332 l 5
97 266 m 4
 97 494 228 659 410 659 c 4
 564 659 666 564 666 419 c 5
 613 419 l 5
 613 539 536 610 405 610 c 4
 256 610 150 465 150 260 c 4
 150 126 224 42 344 42 c 4
 466 42 559 148 586 320 c 5
 625 316 l 5
 594 117 483 -8 338 -8 c 4
 195 -8 97 103 97 266 c 4
EndSplineSet
Substitution2: "'cv05' Character Variants 05 in Latin lookup 20-1" G.cv05
Substitution2: "'ss04' Style Set 4 in Latin lookup 3-1" G.ss04
EndChar

StartChar: Q
Encoding: 81 81 38
GlifName: Q_
Width: 665
Flags: HMW
LayerCount: 2
Fore
SplineSet
649 23 m 1
 617 -17 l 1
 357 187 l 5
 389 227 l 5
 649 23 l 1
97 264 m 0
 97 485 240 660 421 660 c 0
 578 660 680 549 680 378 c 0
 680 156 544 -8 360 -8 c 0
 200 -8 97 99 97 264 c 0
628 383 m 0
 628 527 549 610 414 610 c 0
 261 610 149 463 149 261 c 0
 149 123 229 42 367 42 c 0
 522 42 628 180 628 383 c 0
EndSplineSet
Substitution2: "'cv05' Character Variants 05 in Latin lookup 20-1" Q.cv05
EndChar

StartChar: S
Encoding: 83 83 39
GlifName: S_
Width: 570
Flags: HMW
AnchorPoint: "bottom1" 296 0 basechar 0
AnchorPoint: "top1" 395 700 basechar 0
LayerCount: 2
Fore
SplineSet
368 293 m 6
 296 310 l 6
 184 336 129 386 129 462 c 4
 129 582 218 659 356 659 c 4
 504 659 588 582 588 444 c 5
 536 444 l 5
 536 554 476 608 353 608 c 4
 252 608 182 551 182 470 c 4
 182 417 222 382 309 363 c 6
 382 347 l 6
 497 322 553 269 553 188 c 4
 553 67 466 -9 328 -9 c 4
 173 -9 78 73 78 206 c 5
 132 206 l 5
 132 100 202 42 332 42 c 4
 431 42 500 97 500 177 c 4
 500 234 457 272 368 293 c 6
EndSplineSet
Substitution2: "'cv05' Character Variants 05 in Latin lookup 20-1" S.cv05
EndChar

StartChar: J
Encoding: 74 74 40
GlifName: J_
Width: 312
Flags: HMW
AnchorPoint: "top1" 356 700 basechar 0
LayerCount: 2
Fore
SplineSet
34 48 m 1
 95 48 l 2
 163 48 221 78 243 204 c 2
 322 650 l 1
 372 650 l 1
 292 198 l 2
 265 44 181 0 108 0 c 2
 26 0 l 1
 34 48 l 1
EndSplineSet
Substitution2: "'cv05' Character Variants 05 in Latin lookup 20-1" J.cv05
Substitution2: "'ss06' Style Set 6 in Latin lookup 5-1" J.ss06
EndChar

StartChar: V
Encoding: 86 86 41
GlifName: V_
Width: 616
Flags: HMW
LayerCount: 2
Fore
SplineSet
150 650 m 1
 202 650 l 5
 316 66 l 5
 633 650 l 5
 696 650 l 1
 336 0 l 1
 279 0 l 1
 150 650 l 1
EndSplineSet
Substitution2: "'cv05' Character Variants 05 in Latin lookup 20-1" V.cv05
EndChar

StartChar: W
Encoding: 87 87 42
GlifName: W_
Width: 955
Flags: HMW
AnchorPoint: "top1" 600 700 basechar 0
LayerCount: 2
Fore
SplineSet
150 650 m 1
 204 650 l 1
 260 71 l 1
 560 650 l 1
 617 650 l 1
 707 71 l 1
 975 650 l 1
 1035 650 l 1
 724 0 l 1
 671 0 l 1
 580 583 l 1
 277 0 l 1
 224 0 l 1
 150 650 l 1
EndSplineSet
Substitution2: "'cv05' Character Variants 05 in Latin lookup 20-1" W.cv05
EndChar

StartChar: X
Encoding: 88 88 43
GlifName: X_
Width: 567
Flags: HMW
LayerCount: 2
Fore
SplineSet
150 650 m 1
 206 650 l 5
 341 350 l 5
 577 650 l 5
 647 650 l 1
 383 323 l 1
 532 0 l 1
 477 0 l 1
 342 299 l 1
 104 0 l 1
 35 0 l 1
 298 325 l 1
 150 650 l 1
EndSplineSet
Substitution2: "'cv05' Character Variants 05 in Latin lookup 20-1" X.cv05
EndChar

StartChar: Y
Encoding: 89 89 44
GlifName: Y_
Width: 567
Flags: HMW
AnchorPoint: "bottom1" 283 0 basechar 0
AnchorPoint: "top1" 417 700 basechar 0
LayerCount: 2
Fore
SplineSet
297 225 m 1
 150 650 l 1
 207 650 l 5
 328 288 l 5
 582 650 l 5
 647 650 l 1
 347 225 l 1
 307 0 l 1
 257 0 l 1
 297 225 l 1
EndSplineSet
Substitution2: "'cv05' Character Variants 05 in Latin lookup 20-1" Y.cv05
EndChar

StartChar: A
Encoding: 65 65 45
GlifName: A_
Width: 616
Flags: HMW
AnchorPoint: "bottom2" 581 0 basechar 0
AnchorPoint: "bottom1" 306 0 basechar 0
AnchorPoint: "top1" 431 700 basechar 0
LayerCount: 2
Fore
SplineSet
186 236 m 1
 508 236 l 1
 499 188 l 1
 177 188 l 1
 186 236 l 1
581 0 m 1
 528 0 l 1
 414 584 l 1
 97 0 l 1
 35 0 l 1
 395 650 l 1
 452 650 l 1
 581 0 l 1
EndSplineSet
Substitution2: "'cv05' Character Variants 05 in Latin lookup 20-1" A.cv05
EndChar

StartChar: Z
Encoding: 90 90 46
GlifName: Z_
Width: 552
Flags: HMW
AnchorPoint: "top1" 404 700 basechar 0
LayerCount: 2
Fore
SplineSet
160 650 m 1
 620 650 l 1
 611 592 l 1
 110 48 l 1
 515 48 l 1
 507 0 l 1
 47 0 l 5
 55 58 l 1
 555 602 l 1
 151 602 l 1
 160 650 l 1
EndSplineSet
Substitution2: "'cv05' Character Variants 05 in Latin lookup 20-1" Z.cv05
EndChar

StartChar: U
Encoding: 85 85 47
GlifName: U_
Width: 579
Flags: HMW
AnchorPoint: "top3" 594 650 basechar 0
AnchorPoint: "bottom2" 325 0 basechar 0
AnchorPoint: "bottom1" 291 0 basechar 0
AnchorPoint: "top1" 420 700 basechar 0
LayerCount: 2
Fore
SplineSet
163 650 m 1
 215 650 l 1
 146 264 l 2
 121 126 187 42 320 42 c 0
 427 42 500 111 521 231 c 2
 594 650 l 1
 645 650 l 1
 570 226 l 2
 545 85 445 -8 317 -8 c 0
 161 -8 68 103 97 268 c 2
 163 650 l 1
EndSplineSet
Substitution2: "'cv05' Character Variants 05 in Latin lookup 20-1" U.cv05
EndChar

StartChar: R
Encoding: 82 82 48
GlifName: R_
Width: 559
Flags: HMW
AnchorPoint: "bottom1" 294 0 basechar 0
AnchorPoint: "top1" 405 700 basechar 0
LayerCount: 2
Fore
SplineSet
321 279 m 1
 355 299 l 1
 479.121764866 299 523 260.867724229 523 153 c 2
 523 0 l 1
 473 0 l 1
 473 146 l 2
 473 243.443629607 432.364148122 279 321 279 c 1
418 602 m 6
 211 602 l 5
 163 327 l 5
 370 327 l 6
 475.928744071 327 545.127527449 392.999582646 545.127527449 494.031025073 c 4
 545.127527449 563.069376699 499.288860502 602 418 602 c 6
383 289 m 5
 363 279 l 5
 154 279 l 5
 105 0 l 5
 55 0 l 5
 170 650 l 5
 427 650 l 6
 532.967740591 650 598.583007812 588.588642051 598.583007812 489.41015625 c 4
 598.583007812 373.296564561 507.904435048 289 383 289 c 5
EndSplineSet
Substitution2: "'cv05' Character Variants 05 in Latin lookup 20-1" R.cv05
Substitution2: "'ss05' Style Set 5 in Latin lookup 4-1" R.ss05
EndChar

StartChar: B
Encoding: 66 66 49
GlifName: B_
Width: 589
Flags: HMW
LayerCount: 2
Fore
SplineSet
452 650 m 2
 546 650 603 596 603 509 c 0
 603 445 566 368 484 335 c 1
 543 313 577 262 577 193 c 0
 577 100 505 0 376 0 c 2
 55 0 l 1
 170 650 l 1
 452 650 l 2
448 602 m 2
 211 602 l 1
 168 357 l 1
 405 357 l 2
 516 357 549 457 549 513 c 0
 549 570 513 602 448 602 c 2
396 309 m 2
 159 309 l 1
 113 48 l 1
 370 48 l 2
 484 48 524 133 524 202 c 0
 524 270 478 309 396 309 c 2
EndSplineSet
Substitution2: "'cv05' Character Variants 05 in Latin lookup 20-1" B.cv05
EndChar

StartChar: D
Encoding: 68 68 50
GlifName: D_
Width: 609
Flags: HMW
AnchorPoint: "top1" 405 700 basechar 0
LayerCount: 2
Fore
SplineSet
211 602 m 5
 113 48 l 5
 305 48 l 6
 501 48 574 265 574 397 c 4
 574 528 507 602 383 602 c 6
 211 602 l 5
392 650 m 6
 540 650 627 549 627 389 c 4
 627 198 511 0 317 0 c 6
 55 0 l 5
 170 650 l 5
 392 650 l 6
EndSplineSet
Substitution2: "'cv05' Character Variants 05 in Latin lookup 20-1" D.cv05
EndChar

StartChar: P
Encoding: 80 80 51
GlifName: P_
Width: 554
Flags: HMW
LayerCount: 2
Fore
SplineSet
408 602 m 6
 211 602 l 5
 157 297 l 5
 354 297 l 6
 494 297 545 399 545 484 c 4
 545 560 497 602 408 602 c 6
365 249 m 6
 149 249 l 5
 105 0 l 5
 55 0 l 5
 170 650 l 5
 418 650 l 6
 529 650 597 583 597 479 c 4
 597 361 513 249 365 249 c 6
EndSplineSet
Substitution2: "'cv05' Character Variants 05 in Latin lookup 20-1" P.cv05
EndChar

StartChar: K
Encoding: 75 75 52
GlifName: K_
Width: 519
Flags: HMW
AnchorPoint: "bottom1" 266 0 basechar 0
AnchorPoint: "top1" 386 700 basechar 0
LayerCount: 2
Fore
SplineSet
170 650 m 1
 220 650 l 1
 105 0 l 1
 55 0 l 1
 170 650 l 1
536 650 m 1
 611 650 l 1
 260 337 l 1
 504 0 l 1
 446 0 l 1
 226 301 l 1
 145 231 l 1
 114 266 l 1
 536 650 l 1
EndSplineSet
Substitution2: "'cv05' Character Variants 05 in Latin lookup 20-1" K.cv05
EndChar

StartChar: four
Encoding: 52 52 53
GlifName: four
Width: 532
Flags: HMW
LayerCount: 2
Fore
SplineSet
434.328125 172 m 1
 404 0 l 1
 354 0 l 1
 384.328125 172 l 1
 65.328125 172 l 1
 75.37890625 229 l 1
 456.612304688 650 l 1
 518.612304688 650 l 1
 442.615234375 219 l 1
 545.615234375 219 l 1
 537.328125 172 l 1
 434.328125 172 l 1
392.615234375 219 m 1
 457.680664062 588 l 1
 128.615234375 219 l 5
 392.615234375 219 l 1
EndSplineSet
Substitution2: "'cv05' Character Variants 05 in Latin lookup 20-1" four.cv05
Substitution2: "'cv04' Character Variants 04 in Latin lookup 19-1" uni2463
Substitution2: "'cv03' Character Variants 03 in Latin lookup 18-1" uni2779
Substitution2: "'cv02' Character Variants 02 in Latin lookup 17-1" four.cv02
Substitution2: "'cv01' Character Variants 01 in Latin lookup 16-1" four.cv01
Substitution2: "'sups' Superscript in Latin lookup 15-1" uni2074
Substitution2: "'subs' Subscript in Latin lookup 14-1" uni2084
Substitution2: "'numr' Numerators in Latin lookup 13-1" four.numr
Substitution2: "'dnom' Denominators in Latin lookup 12-1" four.dnom
Substitution2: "'tnum' Tabular Numbers in Latin lookup 11-1" four.tabl
EndChar

StartChar: three
Encoding: 51 51 54
GlifName: three
Width: 517
Flags: HMW
LayerCount: 2
Fore
SplineSet
397.067382812 352 m 1
 388.250976562 302 l 1
 269.250976562 302 l 1
 278.067382812 352 l 1
 397.067382812 352 l 1
340.013671875 312 m 1
 347.067382812 352 l 1
 435.395685475 352 495.30183964 413.178716212 495.30183964 503.383341054 c 0
 495.30183964 570.62039851 448.461577827 608 364.20703125 608 c 0
 276.081454183 608 209.396317537 556.904843546 191.931640625 476 c 1
 138.931640625 476 l 1
 165.663432232 584.155275593 251.553544715 658 368.0234375 658 c 0
 478.70226323 658 547.830078125 599.058778091 547.830078125 504.689453125 c 0
 547.830078125 394.012817228 459.378901029 312 340.013671875 312 c 1
345.303710938 342 m 1
 443.822679443 342 505.786132812 285.700335214 505.786132812 196.186523438 c 0
 505.786132812 79.9254266886 403.215649713 -8 267.58984375 -8 c 0
 145.158868588 -8 73.15234375 57.9191844222 73.15234375 170 c 1
 126.15234375 170 l 1
 126.15234375 86.8857935271 176.737556388 42 270.405273438 42 c 0
 381.957279264 42 452.654840622 105.246191824 452.654840622 205.040858336 c 0
 452.654840622 267.453376944 411.892648424 302 338.250976562 302 c 1
 345.303710938 342 l 1
EndSplineSet
Substitution2: "'cv05' Character Variants 05 in Latin lookup 20-1" three.cv05
Substitution2: "'cv04' Character Variants 04 in Latin lookup 19-1" uni2462
Substitution2: "'cv03' Character Variants 03 in Latin lookup 18-1" uni2778
Substitution2: "'cv02' Character Variants 02 in Latin lookup 17-1" three.cv02
Substitution2: "'cv01' Character Variants 01 in Latin lookup 16-1" three.cv01
Substitution2: "'sups' Superscript in Latin lookup 15-1" uni00B3
Substitution2: "'subs' Subscript in Latin lookup 14-1" uni2083
Substitution2: "'numr' Numerators in Latin lookup 13-1" three.numr
Substitution2: "'dnom' Denominators in Latin lookup 12-1" three.dnom
Substitution2: "'tnum' Tabular Numbers in Latin lookup 11-1" three.tabl
EndChar

StartChar: period
Encoding: 46 46 55
GlifName: period
Width: 160
Flags: HMW
LayerCount: 2
Fore
SplineSet
60.3427734375 70 m 5
 124.342773438 70 l 5
 112 0 l 5
 48 0 l 5
 60.3427734375 70 l 5
EndSplineSet
Substitution2: "'cv05' Character Variants 05 in Latin lookup 20-1" period.cv05
Substitution2: "'tnum' Tabular Numbers in Latin lookup 11-1" period.tabl
Substitution2: "'ss03' Style Set 3 in Latin lookup 2-1" period.ss03
EndChar

StartChar: comma
Encoding: 44 44 56
GlifName: comma
Width: 160
Flags: HMW
LayerCount: 2
Fore
SplineSet
60.3427734375 70 m 5
 124.342773438 70 l 5
 112 0 l 5
 59.958984375 -125 l 5
 18.958984375 -125 l 5
 87 0 l 5
 48 0 l 5
 60.3427734375 70 l 5
EndSplineSet
Substitution2: "'cv05' Character Variants 05 in Latin lookup 20-1" comma.cv05
Substitution2: "'ss03' Style Set 3 in Latin lookup 2-1" comma.ss03
EndChar

StartChar: colon
Encoding: 58 58 57
GlifName: colon
Width: 160
Flags: HMW
LayerCount: 2
Fore
SplineSet
132.63671875 480 m 5
 196.63671875 480 l 5
 184.293945312 410 l 5
 120.293945312 410 l 5
 132.63671875 480 l 5
60.3427734375 70 m 5
 124.342773438 70 l 5
 112 0 l 5
 48 0 l 5
 60.3427734375 70 l 5
EndSplineSet
Substitution2: "'cv05' Character Variants 05 in Latin lookup 20-1" colon.cv05
Substitution2: "'tnum' Tabular Numbers in Latin lookup 11-1" colon.tabl
Substitution2: "'ss03' Style Set 3 in Latin lookup 2-1" colon.ss03
EndChar

StartChar: semicolon
Encoding: 59 59 58
GlifName: semicolon
Width: 160
Flags: HMW
LayerCount: 2
Fore
SplineSet
132.63671875 480 m 1
 196.63671875 480 l 1
 184.293945312 410 l 1
 120.293945312 410 l 1
 132.63671875 480 l 1
60.3427734375 70 m 1
 124.342773438 70 l 5
 112 0 l 5
 59.958984375 -125 l 1
 18.958984375 -125 l 1
 87 0 l 5
 48 0 l 1
 60.3427734375 70 l 1
EndSplineSet
Substitution2: "'cv05' Character Variants 05 in Latin lookup 20-1" semicolon.cv05
Substitution2: "'ss03' Style Set 3 in Latin lookup 2-1" semicolon.ss03
EndChar

StartChar: hyphen
Encoding: 45 45 59
GlifName: hyphen
Width: 462
Flags: HMW
LayerCount: 2
Fore
SplineSet
87.8984375 300 m 5
 479.8984375 300 l 5
 471.434570312 252 l 5
 79.4345703125 252 l 5
 87.8984375 300 l 5
EndSplineSet
Substitution2: "'cv05' Character Variants 05 in Latin lookup 20-1" hyphen.cv05
Substitution2: "'sups' Superscript in Latin lookup 15-1" uni207B
Substitution2: "'subs' Subscript in Latin lookup 14-1" uni208B
Substitution2: "'tnum' Tabular Numbers in Latin lookup 11-1" hyphen.tabl
EndChar

StartChar: plus
Encoding: 43 43 60
GlifName: plus
Width: 546
Flags: HMW
LayerCount: 2
Fore
SplineSet
349.8984375 300 m 5
 563.8984375 300 l 5
 555.434570312 252 l 5
 341.434570312 252 l 5
 303.700195312 38 l 5
 255.700195312 38 l 5
 293.434570312 252 l 5
 79.4345703125 252 l 5
 87.8984375 300 l 5
 301.8984375 300 l 5
 339.631835938 514 l 5
 387.631835938 514 l 5
 349.8984375 300 l 5
EndSplineSet
Substitution2: "'cv05' Character Variants 05 in Latin lookup 20-1" plus.cv05
Substitution2: "'sups' Superscript in Latin lookup 15-1" uni207A
Substitution2: "'subs' Subscript in Latin lookup 14-1" uni208A
Substitution2: "'tnum' Tabular Numbers in Latin lookup 11-1" plus.tabl
EndChar

StartChar: equal
Encoding: 61 61 61
GlifName: equal
Width: 546
Flags: HMW
LayerCount: 2
Fore
SplineSet
540.09375 165 m 5
 531.629882812 117 l 5
 55.6298828125 117 l 5
 64.09375 165 l 5
 540.09375 165 l 5
585.939453125 425 m 5
 577.475585938 377 l 5
 101.475585938 377 l 5
 109.939453125 425 l 5
 585.939453125 425 l 5
EndSplineSet
Substitution2: "'cv05' Character Variants 05 in Latin lookup 20-1" equal.cv05
Substitution2: "'sups' Superscript in Latin lookup 15-1" uni207C
Substitution2: "'subs' Subscript in Latin lookup 14-1" uni208C
EndChar

StartChar: quotesingle
Encoding: 39 39 62
GlifName: quotesingle
Width: 160
Flags: HMW
LayerCount: 2
Fore
SplineSet
178.428710938 700 m 1
 228.428710938 700 l 1
 183.163085938 500 l 1
 143.163085938 500 l 1
 178.428710938 700 l 1
EndSplineSet
Substitution2: "'cv05' Character Variants 05 in Latin lookup 20-1" quotesingle.cv05
EndChar

StartChar: quotedbl
Encoding: 34 34 63
GlifName: quotedbl
Width: 270
Flags: HMW
LayerCount: 2
Fore
SplineSet
288.428710938 700 m 5
 338.428710938 700 l 5
 293.163085938 500 l 5
 253.163085938 500 l 5
 288.428710938 700 l 5
178.428710938 700 m 5
 228.428710938 700 l 5
 183.163085938 500 l 5
 143.163085938 500 l 5
 178.428710938 700 l 5
EndSplineSet
Substitution2: "'cv05' Character Variants 05 in Latin lookup 20-1" quotedbl.cv05
EndChar

StartChar: one
Encoding: 49 49 64
GlifName: one
Width: 296
Flags: HMW
LayerCount: 2
Fore
SplineSet
305.612304688 650 m 1
 355.612304688 650 l 1
 241 0 l 1
 191 0 l 1
 279.163085938 500 l 1
 123.163085938 500 l 1
 130.745117188 543 l 1
 207.745117188 543 l 2
 259.745117188 543 289.390625 558 298.559570312 610 c 2
 305.612304688 650 l 1
EndSplineSet
Substitution2: "'cv05' Character Variants 05 in Latin lookup 20-1" one.cv05
Substitution2: "'cv04' Character Variants 04 in Latin lookup 19-1" uni2460
Substitution2: "'cv03' Character Variants 03 in Latin lookup 18-1" uni2776
Substitution2: "'cv02' Character Variants 02 in Latin lookup 17-1" one.cv02
Substitution2: "'cv01' Character Variants 01 in Latin lookup 16-1" one.cv01
Substitution2: "'sups' Superscript in Latin lookup 15-1" uni00B9
Substitution2: "'subs' Subscript in Latin lookup 14-1" uni2081
Substitution2: "'numr' Numerators in Latin lookup 13-1" one.numr
Substitution2: "'dnom' Denominators in Latin lookup 12-1" one.dnom
Substitution2: "'tnum' Tabular Numbers in Latin lookup 11-1" one.tabl
EndChar

StartChar: exclam
Encoding: 33 33 65
GlifName: exclam
Width: 160
Flags: HMW
LayerCount: 2
Fore
SplineSet
112 0 m 1
 48 0 l 1
 60.3427734375 70 l 1
 124.342773438 70 l 1
 112 0 l 1
126.21484375 143 m 5
 84.21484375 143 l 5
 169.612304688 650 l 5
 219.612304688 650 l 5
 126.21484375 143 l 5
EndSplineSet
Substitution2: "'cv05' Character Variants 05 in Latin lookup 20-1" exclam.cv05
Substitution2: "'ss03' Style Set 3 in Latin lookup 2-1" exclam.ss03
EndChar

StartChar: zero
Encoding: 48 48 66
GlifName: zero
Width: 545
Flags: HMW
LayerCount: 2
Fore
SplineSet
92 231 m 4
 92 471 213 660 367 660 c 4
 491 660 563 570 563 413 c 4
 563 170 448 -8 292 -8 c 4
 165 -8 92 79 92 231 c 4
511 421 m 4
 511 546 461 610 362 610 c 4
 238 610 144 444 144 225 c 4
 144 105 196 42 297 42 c 4
 422 42 511 199 511 421 c 4
EndSplineSet
Substitution2: "'cv05' Character Variants 05 in Latin lookup 20-1" zero.cv05
Substitution2: "'cv04' Character Variants 04 in Latin lookup 19-1" uni24EA
Substitution2: "'cv03' Character Variants 03 in Latin lookup 18-1" uni24FF
Substitution2: "'cv02' Character Variants 02 in Latin lookup 17-1" zero.cv02
Substitution2: "'cv01' Character Variants 01 in Latin lookup 16-1" zero.cv01
Substitution2: "'sups' Superscript in Latin lookup 15-1" uni2070
Substitution2: "'subs' Subscript in Latin lookup 14-1" uni2080
Substitution2: "'numr' Numerators in Latin lookup 13-1" zero.numr
Substitution2: "'dnom' Denominators in Latin lookup 12-1" zero.dnom
Substitution2: "'zero' Slashed Zero in Latin lookup 10-1" zero.slsh
Substitution2: "'tnum' Tabular Numbers in Latin lookup 11-1" zero.tabl
EndChar

StartChar: nine
Encoding: 57 57 67
GlifName: nine
Width: 537
Flags: HMW
LayerCount: 2
Fore
SplineSet
557.987304688 426.633789062 m 4
 557.987304688 166.433221324 435.507211451 -8 252.8046875 -8 c 4
 145.535084029 -8 79.193359375 56.7888198758 79.193359375 163 c 5
 132.193359375 163 l 5
 132.193359375 85.6036036036 176.918228807 42 256.62109375 42 c 4
 383.566367356 42 462.005079102 134.918037371 495.521484375 325 c 4
 497.162087758 334.303061543 498.059969856 341.944387171 499.516601562 359 c 5
 456.366796764 277.358348992 377.417363403 226 295.065429688 226 c 4
 188.225636175 226 117.884765625 298.59144654 117.884765625 408.849609375 c 4
 117.884765625 545.172319887 226.108396338 660 354.590820312 660 c 4
 478.174649508 660 557.987304688 568.427242579 557.987304688 426.633789062 c 4
497.145507812 474.296875 m 4
 497.145507812 554.106304419 439.870389873 609 356.598632812 609 c 4
 252.265361466 609 171.739257812 519.683901419 171.739257812 403.961914062 c 4
 171.739257812 325.157653761 219.652806213 277 298.057617188 277 c 4
 409.038523634 277 497.145507812 364.314364472 497.145507812 474.296875 c 4
EndSplineSet
Substitution2: "'cv05' Character Variants 05 in Latin lookup 20-1" nine.cv05
Substitution2: "'cv04' Character Variants 04 in Latin lookup 19-1" uni2468
Substitution2: "'cv03' Character Variants 03 in Latin lookup 18-1" uni277E
Substitution2: "'cv02' Character Variants 02 in Latin lookup 17-1" nine.cv02
Substitution2: "'cv01' Character Variants 01 in Latin lookup 16-1" nine.cv01
Substitution2: "'sups' Superscript in Latin lookup 15-1" uni2079
Substitution2: "'subs' Subscript in Latin lookup 14-1" uni2089
Substitution2: "'numr' Numerators in Latin lookup 13-1" nine.numr
Substitution2: "'dnom' Denominators in Latin lookup 12-1" nine.dnom
Substitution2: "'tnum' Tabular Numbers in Latin lookup 11-1" nine.tabl
EndChar

StartChar: seven
Encoding: 55 55 68
GlifName: seven
Width: 542
Flags: HMW
LayerCount: 2
Fore
SplineSet
250 0 m 5
 309.001664999 295 436.793750927 432 601.385742188 592 c 1
 611.612304688 650 l 1
 159.612304688 650 l 1
 151.1484375 602 l 1
 552.1484375 602 l 1
 407.273620988 458 270.34870719 343 194 0 c 5
 250 0 l 5
EndSplineSet
Substitution2: "'cv05' Character Variants 05 in Latin lookup 20-1" seven.cv05
Substitution2: "'cv04' Character Variants 04 in Latin lookup 19-1" uni2466
Substitution2: "'cv03' Character Variants 03 in Latin lookup 18-1" uni277C
Substitution2: "'cv02' Character Variants 02 in Latin lookup 17-1" seven.cv02
Substitution2: "'cv01' Character Variants 01 in Latin lookup 16-1" seven.cv01
Substitution2: "'sups' Superscript in Latin lookup 15-1" uni2077
Substitution2: "'subs' Subscript in Latin lookup 14-1" uni2087
Substitution2: "'numr' Numerators in Latin lookup 13-1" seven.numr
Substitution2: "'dnom' Denominators in Latin lookup 12-1" seven.dnom
Substitution2: "'tnum' Tabular Numbers in Latin lookup 11-1" seven.tabl
EndChar

StartChar: two
Encoding: 50 50 69
GlifName: two
Width: 517
Flags: HMW
LayerCount: 2
Fore
SplineSet
111 48 m 1
 479 48 l 1
 470 0 l 1
 45 0 l 1
 47 14 l 2
 63.86 132.02 138 199 310 273 c 0
 459 338 501 383 501 476 c 0
 501 557 441 608 345 608 c 0
 275 608 200 560 181 476 c 1
 128 476 l 1
 154 585 236 658 350 658 c 0
 472 658 554 585 554 477 c 0
 554 368 495 301 335 231 c 0
 177 161 123 114 111 48 c 1
EndSplineSet
Substitution2: "'cv05' Character Variants 05 in Latin lookup 20-1" two.cv05
Substitution2: "'cv04' Character Variants 04 in Latin lookup 19-1" uni2461
Substitution2: "'cv03' Character Variants 03 in Latin lookup 18-1" uni2777
Substitution2: "'cv02' Character Variants 02 in Latin lookup 17-1" two.cv02
Substitution2: "'cv01' Character Variants 01 in Latin lookup 16-1" two.cv01
Substitution2: "'sups' Superscript in Latin lookup 15-1" uni00B2
Substitution2: "'subs' Subscript in Latin lookup 14-1" uni2082
Substitution2: "'numr' Numerators in Latin lookup 13-1" two.numr
Substitution2: "'dnom' Denominators in Latin lookup 12-1" two.dnom
Substitution2: "'tnum' Tabular Numbers in Latin lookup 11-1" two.tabl
EndChar

StartChar: eight
Encoding: 56 56 70
GlifName: eight
Width: 517
Flags: HMW
LayerCount: 2
Fore
SplineSet
412 328 m 1
 472 305 505 256 505 192 c 0
 505 78 403 -8 267 -8 c 0
 147 -8 72 52 72 148 c 0
 72 231 130 300 221 328 c 1
 173 352 146 397 146 456 c 0
 146 570 242 658 364 658 c 0
 472 658 540 599 540 504 c 0
 540 425 491 357 412 328 c 1
327 352 m 2
 423 352 486 414 486 508 c 0
 486 572 439 608 355 608 c 0
 262 608 200 545 200 449 c 0
 200 387 240 352 314 352 c 2
 327 352 l 2
318 302 m 2
 305 302 l 2
 197 302 126 239 126 144 c 0
 126 78 179 42 275 42 c 0
 383 42 452 103 452 199 c 0
 452 265 404 302 318 302 c 2
EndSplineSet
Substitution2: "'cv05' Character Variants 05 in Latin lookup 20-1" eight.cv05
Substitution2: "'cv04' Character Variants 04 in Latin lookup 19-1" uni2467
Substitution2: "'cv03' Character Variants 03 in Latin lookup 18-1" uni277D
Substitution2: "'cv02' Character Variants 02 in Latin lookup 17-1" eight.cv02
Substitution2: "'cv01' Character Variants 01 in Latin lookup 16-1" eight.cv01
Substitution2: "'sups' Superscript in Latin lookup 15-1" uni2078
Substitution2: "'subs' Subscript in Latin lookup 14-1" uni2088
Substitution2: "'numr' Numerators in Latin lookup 13-1" eight.numr
Substitution2: "'dnom' Denominators in Latin lookup 12-1" eight.dnom
Substitution2: "'tnum' Tabular Numbers in Latin lookup 11-1" eight.tabl
EndChar

StartChar: five
Encoding: 53 53 71
GlifName: five
Width: 517
Flags: HMW
LayerCount: 2
Fore
SplineSet
460.728954786 256.942187438 m 0
 460.728954786 128.046916635 382.135507665 42 264.405273438 42 c 0
 174.534256938 42 126.91796875 84.2525350408 126.91796875 164 c 1
 73.91796875 164 l 1
 73.91796875 56.6075914206 145.914818673 -8 265.58984375 -8 c 0
 407.181531102 -8 514.354492188 105.623070676 514.354492188 255.736328125 c 0
 514.354492188 367.410056438 446.286338905 437 337.0546875 437 c 0
 270.51607536 437 208.169858376 413.453720432 162.298828125 371 c 1
 227.325195312 603 l 1
 555.325195312 603 l 1
 563.7890625 651 l 1
 189.7890625 651 l 1
 99.4853515625 309 l 1
 148.485351562 309 l 1
 188.711721492 359.199470251 250.283810735 387 321.23828125 387 c 0
 410.459626891 387 460.728954786 340.130064833 460.728954786 256.942187438 c 0
EndSplineSet
Substitution2: "'cv05' Character Variants 05 in Latin lookup 20-1" five.cv05
Substitution2: "'cv04' Character Variants 04 in Latin lookup 19-1" uni2464
Substitution2: "'cv03' Character Variants 03 in Latin lookup 18-1" uni277A
Substitution2: "'cv02' Character Variants 02 in Latin lookup 17-1" five.cv02
Substitution2: "'cv01' Character Variants 01 in Latin lookup 16-1" five.cv01
Substitution2: "'sups' Superscript in Latin lookup 15-1" uni2075
Substitution2: "'subs' Subscript in Latin lookup 14-1" uni2085
Substitution2: "'numr' Numerators in Latin lookup 13-1" five.numr
Substitution2: "'dnom' Denominators in Latin lookup 12-1" five.dnom
Substitution2: "'tnum' Tabular Numbers in Latin lookup 11-1" five.tabl
EndChar

StartChar: six
Encoding: 54 54 72
GlifName: six
Width: 537
Flags: HMW
LayerCount: 2
Fore
SplineSet
93.193359375 225.366210938 m 0
 93.193359375 485.566778676 215.673452611 660 398.375976562 660 c 0
 505.927505447 660 571.987304688 594.933821473 571.987304688 489 c 1
 518.987304688 489 l 1
 518.987304688 566.451813009 474.205467965 610 394.559570312 610 c 0
 267.614296706 610 189.175584961 517.081962629 155.659179688 327 c 0
 154.018576305 317.696938457 153.120694206 310.055612829 151.6640625 293 c 1
 194.813867299 374.641651008 273.763300659 426 356.115234375 426 c 0
 462.955027887 426 533.295898438 353.40855346 533.295898438 243.150390625 c 0
 533.295898438 106.827680113 425.072267724 -8 296.58984375 -8 c 0
 173.006014554 -8 93.193359375 83.5727574215 93.193359375 225.366210938 c 0
154.035393954 177.702960764 m 0
 154.035393954 97.8936286526 211.310415025 43 294.58203125 43 c 0
 398.915150999 43 479.441137646 132.316227123 479.441137646 248.038381025 c 0
 479.441137646 326.842458168 431.527691129 375 353.123046875 375 c 0
 242.142272935 375 154.035393954 287.685562845 154.035393954 177.702960764 c 0
EndSplineSet
Substitution2: "'cv05' Character Variants 05 in Latin lookup 20-1" six.cv05
Substitution2: "'cv04' Character Variants 04 in Latin lookup 19-1" uni2465
Substitution2: "'cv03' Character Variants 03 in Latin lookup 18-1" uni277B
Substitution2: "'cv02' Character Variants 02 in Latin lookup 17-1" six.cv02
Substitution2: "'cv01' Character Variants 01 in Latin lookup 16-1" six.cv01
Substitution2: "'sups' Superscript in Latin lookup 15-1" uni2076
Substitution2: "'subs' Subscript in Latin lookup 14-1" uni2086
Substitution2: "'numr' Numerators in Latin lookup 13-1" six.numr
Substitution2: "'dnom' Denominators in Latin lookup 12-1" six.dnom
Substitution2: "'tnum' Tabular Numbers in Latin lookup 11-1" six.tabl
EndChar

StartChar: a.ss01
Encoding: 65536 -1 73
GlifName: a.ss01
Width: 552
Flags: HMW
AnchorPoint: "bottom2" 498 0 basechar 0
AnchorPoint: "bottom1" 294.742 0 basechar 0
AnchorPoint: "top1" 390.485 560 basechar 0
LayerCount: 2
Fore
SplineSet
586.087890625 500 m 1
 535.087890625 500 l 1
 447 0 l 1
 498 0 l 1
 586.087890625 500 l 1
525 304 m 0
 525 425 463 510 337 510 c 0
 193 510 84 380 84 209 c 0
 84 77 166 -8 292 -8 c 0
 435 -8 525 133 525 304 c 0
137 207 m 0
 137 356 227 460 332 460 c 0
 434 460 493 400 493 296 c 0
 493 147 402 42 298 42 c 0
 196 42 137 102 137 207 c 0
EndSplineSet
EndChar

StartChar: l.ss02
Encoding: 65537 -1 74
GlifName: l.ss02
Width: 221
Flags: HMW
AnchorPoint: "top1" 212.127 755 basechar 0
AnchorPoint: "bottom1" 110 0 basechar 0
AnchorPoint: "top2" 248.163 500 basechar 0
LayerCount: 2
Fore
SplineSet
194.463867188 48 m 1
 186 0 l 1
 174 0 l 2
 117 0 59.9375 28 75.806640625 118 c 2
 178.428710938 700 l 1
 228.428710938 700 l 1
 126.864257812 124 l 2
 115.932617188 62 144.463867188 48 183.463867188 48 c 2
 194.463867188 48 l 1
EndSplineSet
EndChar

StartChar: i.ss03
Encoding: 65538 -1 75
GlifName: i.ss03
Width: 160
Flags: HMW
AnchorPoint: "bottom2" 107 0 basechar 0
AnchorPoint: "bottom1" 83 0 basechar 0
LayerCount: 2
Fore
SplineSet
149 619 m 4
 149 642 168 661 191 661 c 4
 214 661 233 642 233 619 c 4
 233 596 214 577 191 577 c 4
 168 577 149 596 149 619 c 4
144 500 m 1
 195 500 l 1
 107 0 l 1
 56 0 l 1
 144 500 l 1
EndSplineSet
EndChar

StartChar: j.ss03
Encoding: 65539 -1 76
GlifName: j.ss03
Width: 160
Flags: HMW
LayerCount: 2
Fore
SplineSet
149 619 m 4
 149 642 168 661 191 661 c 4
 214 661 233 642 233 619 c 4
 233 596 214 577 191 577 c 4
 168 577 149 596 149 619 c 4
-53.802734375 -106 m 1
 -22.802734375 -106 l 2
 11.197265625 -106 39.666015625 -92 50.5986328125 -30 c 2
 144.051757812 500 l 1
 195.051757812 500 l 1
 100.540039062 -36 l 2
 84.6708984375 -126 21.7333984375 -154 -30.2666015625 -154 c 2
 -62.2666015625 -154 l 1
 -53.802734375 -106 l 1
EndSplineSet
EndChar

StartChar: G.ss04
Encoding: 65540 -1 77
GlifName: G_.ss04
Width: 647
Flags: HMW
AnchorPoint: "top1" 445.429 700 basechar 0
AnchorPoint: "bottom1" 321 0 basechar 0
LayerCount: 2
Fore
SplineSet
97 266 m 0
 97 494 228 659 410 659 c 0
 564 659 666 564 666 419 c 1
 613 419 l 1
 613 539 536 610 405 610 c 0
 256 610 150 465 150 260 c 0
 150 127.229357798 229.340206186 44 358 44 c 0
 476.5617706 44 576.683398742 118.307948561 595.363257051 284 c 1
 370 284 l 1
 378 332 l 1
 650 332 l 1
 646 284 l 2
 630.944827586 103.337931034 507.898244086 -8 347 -8 c 0
 198.659751037 -8 97 103 97 266 c 0
EndSplineSet
EndChar

StartChar: R.ss05
Encoding: 65541 -1 78
GlifName: R_.ss05
Width: 559
Flags: HMW
AnchorPoint: "top1" 405.429 700 basechar 0
AnchorPoint: "bottom1" 294 0 basechar 0
LayerCount: 2
Fore
SplineSet
402 301 m 1
 533 0 l 5
 480 0 l 5
 349 301 l 1
 402 301 l 1
418 602 m 2
 211 602 l 1
 163 327 l 1
 370 327 l 2
 476.533853697 327 546.127929688 391.419136825 546.127929688 490.03125 c 0
 546.127929688 561.627168539 499.928545389 602 418 602 c 2
378 279 m 2
 154 279 l 1
 105 0 l 1
 55 0 l 1
 170 650 l 1
 427 650 l 2
 532.967740591 650 598.583007812 588.588642051 598.583007812 489.41015625 c 0
 598.583007812 367.502766788 505.801333934 279 378 279 c 2
EndSplineSet
EndChar

StartChar: J.ss06
Encoding: 65542 -1 79
GlifName: J_.ss06
Width: 519
Flags: HMW
AnchorPoint: "top1" 568 700 basechar 0
LayerCount: 2
Fore
SplineSet
129 179 m 1
 129 89.3065280892 179.414256212 42 275 42 c 0
 373.982930489 42 437.988909372 104.706241691 456 207 c 2
 534 650 l 1
 584 650 l 1
 506 198 l 2
 485.21413161 75.4446022068 402.496758709 -8 277 -8 c 0
 155.34804074 -8 79 64.1064829207 79 179 c 1
 129 179 l 1
EndSplineSet
EndChar

StartChar: y.ss07
Encoding: 65543 -1 80
GlifName: y.ss07
Width: 531
Flags: HMW
AnchorPoint: "top1" 374.743 560 basechar 0
AnchorPoint: "bottom1" 363 0 basechar 0
LayerCount: 2
Fore
SplineSet
130.319335938 -174 m 5
 238.350585938 19 l 5
 123.163085938 500 l 1
 175.163085938 500 l 1
 277.98828125 85 l 1
 521.163085938 500 l 1
 584.163085938 500 l 1
 188.319335938 -174 l 1
 130.319335938 -174 l 5
EndSplineSet
EndChar

StartChar: t.ss08
Encoding: 65544 -1 81
GlifName: t.ss08
Width: 312
Flags: HMW
AnchorPoint: "bottom1" 157 0 basechar 0
AnchorPoint: "top2" 328.804 549 basechar 0
LayerCount: 2
Fore
SplineSet
123.163085938 500 m 5
 365.163085938 500 l 5
 356.700195312 452 l 5
 114.700195312 452 l 5
 123.163085938 500 l 5
131 0 m 5
 242.0859375 630 l 5
 292.0859375 630 l 5
 181 0 l 5
 131 0 l 5
EndSplineSet
EndChar

StartChar: exclam.ss03
Encoding: 65545 -1 82
GlifName: exclam.ss03
Width: 160
Flags: HMW
LayerCount: 2
Fore
SplineSet
46 34 m 4
 46 57 65 76 88 76 c 4
 111 76 130 57 130 34 c 4
 130 11 111 -8 88 -8 c 4
 65 -8 46 11 46 34 c 4
126.21484375 143 m 1
 84.21484375 143 l 1
 169.612304688 650 l 1
 219.612304688 650 l 1
 126.21484375 143 l 1
EndSplineSet
EndChar

StartChar: comma.ss03
Encoding: 65546 -1 83
GlifName: comma.ss03
Width: 160
Flags: HMW
LayerCount: 2
Fore
SplineSet
43 34 m 4
 43 57 62 76 85 76 c 4
 108 76 127 57 127 34 c 6
 127 -17 l 6
 127 -76 90 -95 57 -95 c 6
 45 -95 l 5
 45 -71 l 5
 56 -71 l 6
 85 -71 107 -60 107 -11 c 6
 107 -2 l 5
 101 -6 93 -8 85 -8 c 4
 62 -8 43 11 43 34 c 4
EndSplineSet
EndChar

StartChar: period.ss03
Encoding: 65547 -1 84
GlifName: period.ss03
Width: 160
Flags: HMW
LayerCount: 2
Fore
SplineSet
48 34 m 4
 48 57 67 76 90 76 c 4
 113 76 132 57 132 34 c 4
 132 11 113 -8 90 -8 c 4
 67 -8 48 11 48 34 c 4
EndSplineSet
Substitution2: "'tnum' Tabular Numbers in Latin lookup 11-1" period.ss03.tabl
EndChar

StartChar: colon.ss03
Encoding: 65548 -1 85
GlifName: colon.ss03
Width: 160
Flags: HMW
LayerCount: 2
Fore
SplineSet
118 447 m 0
 118 470 137 489 160 489 c 0
 183 489 202 470 202 447 c 0
 202 424 183 405 160 405 c 0
 137 405 118 424 118 447 c 0
46 34 m 4
 46 57 65 76 88 76 c 4
 111 76 130 57 130 34 c 4
 130 11 111 -8 88 -8 c 4
 65 -8 46 11 46 34 c 4
EndSplineSet
Substitution2: "'tnum' Tabular Numbers in Latin lookup 11-1" colon.ss03.tabl
EndChar

StartChar: semicolon.ss03
Encoding: 65549 -1 86
GlifName: semicolon.ss03
Width: 160
Flags: HMW
LayerCount: 2
Fore
SplineSet
118 447 m 0
 118 470 137 489 160 489 c 0
 183 489 202 470 202 447 c 0
 202 424 183 405 160 405 c 0
 137 405 118 424 118 447 c 0
42 33 m 4
 42 56 61 75 84 75 c 4
 107 75 126 56 126 33 c 6
 126 -18 l 6
 126 -77 89 -96 56 -96 c 6
 44 -96 l 5
 44 -72 l 5
 55 -72 l 6
 84 -72 106 -61 106 -12 c 6
 106 -3 l 5
 100 -7 92 -9 84 -9 c 4
 61 -9 42 10 42 33 c 4
EndSplineSet
EndChar

StartChar: numbersign
Encoding: 35 35 87
GlifName: numbersign
Width: 688
Flags: HMW
LayerCount: 2
Fore
SplineSet
639 221 m 5
 639 173 l 5
 91 173 l 5
 91 221 l 5
 639 221 l 5
709 481 m 5
 709 433 l 5
 161 433 l 5
 161 481 l 5
 709 481 l 5
633 650 m 5
 689 650 l 5
 421 0 l 5
 365 0 l 5
 633 650 l 5
379 650 m 5
 435 650 l 5
 167 0 l 5
 111 0 l 5
 379 650 l 5
EndSplineSet
Substitution2: "'cv05' Character Variants 05 in Latin lookup 20-1" numbersign.cv05
EndChar

StartChar: slash
Encoding: 47 47 88
GlifName: slash
Width: 394
Flags: HMW
LayerCount: 2
Fore
SplineSet
412.612304688 650 m 5
 473.612304688 650 l 5
 96 0 l 5
 35 0 l 5
 412.612304688 650 l 5
EndSplineSet
Substitution2: "'cv05' Character Variants 05 in Latin lookup 20-1" slash.cv05
Substitution2: "'tnum' Tabular Numbers in Latin lookup 11-1" slash.tabl
EndChar

StartChar: backslash
Encoding: 92 92 89
GlifName: backslash
Width: 394
Flags: HMW
LayerCount: 2
Fore
SplineSet
200.612304688 650 m 1
 359 0 l 1
 308 0 l 5
 149.612304688 650 l 1
 200.612304688 650 l 1
EndSplineSet
Substitution2: "'cv05' Character Variants 05 in Latin lookup 20-1" backslash.cv05
EndChar

StartChar: dollar
Encoding: 36 36 90
GlifName: dollar
Width: 570
Flags: HMW
LayerCount: 2
Fore
SplineSet
393.702148438 750 m 5
 443.702148438 750 l 5
 290.297851562 -120 l 5
 240.297851562 -120 l 5
 393.702148438 750 l 5
368 293 m 2
 296 310 l 2
 184 336 129 386 129 462 c 0
 129 582 218 659 356 659 c 0
 504 659 588 582 588 444 c 1
 536 444 l 1
 536 554 476 608 353 608 c 0
 252 608 182 551 182 470 c 0
 182 417 222 382 309 363 c 2
 382 347 l 2
 497 322 553 269 553 188 c 0
 553 67 466 -9 328 -9 c 0
 173 -9 78 73 78 206 c 1
 132 206 l 1
 132 100 202 42 332 42 c 0
 431 42 500 97 500 177 c 0
 500 234 457 272 368 293 c 2
EndSplineSet
Substitution2: "'cv05' Character Variants 05 in Latin lookup 20-1" dollar.cv05
EndChar

StartChar: bar
Encoding: 124 124 91
GlifName: bar
Width: 160
Flags: HMW
LayerCount: 2
Fore
SplineSet
196.23828125 801 m 5
 246.23828125 801 l 5
 69.734375 -200 l 5
 19.734375 -200 l 5
 196.23828125 801 l 5
EndSplineSet
Substitution2: "'cv05' Character Variants 05 in Latin lookup 20-1" bar.cv05
EndChar

StartChar: percent
Encoding: 37 37 92
GlifName: percent
Width: 834
Flags: HMW
LayerCount: 2
Fore
SplineSet
516 153 m 4
 516 287 595 390 697 390 c 4
 782 390 837 327 837 230 c 4
 837 97 757 -8 656 -8 c 4
 571 -8 516 55 516 153 c 4
785 231 m 4
 785 300 751 340 693 340 c 4
 622 340 569 260 569 152 c 4
 569 82 603 42 661 42 c 4
 732 42 785 123 785 231 c 4
638 650 m 5
 694 650 l 5
 312 0 l 5
 256 0 l 5
 638 650 l 5
110 422 m 4
 110 556 189 659 291 659 c 4
 376 659 431 596 431 499 c 4
 431 366 351 261 250 261 c 4
 165 261 110 324 110 422 c 4
379 500 m 4
 379 569 345 609 287 609 c 4
 216 609 163 529 163 421 c 4
 163 351 197 311 255 311 c 4
 326 311 379 392 379 500 c 4
EndSplineSet
Substitution2: "'cv05' Character Variants 05 in Latin lookup 20-1" percent.cv05
EndChar

StartChar: less
Encoding: 60 60 93
GlifName: less
Width: 570
Flags: HMW
LayerCount: 2
Fore
SplineSet
623.163085938 500 m 5
 613.2890625 444 l 5
 148.255859375 268 l 5
 552.280273438 98 l 5
 542.052734375 40 l 5
 77.6708984375 242 l 5
 87.5458984375 298 l 5
 623.163085938 500 l 5
EndSplineSet
Substitution2: "'cv05' Character Variants 05 in Latin lookup 20-1" less.cv05
EndChar

StartChar: greater
Encoding: 62 62 94
GlifName: greater
Width: 570
Flags: HMW
LayerCount: 2
Fore
SplineSet
42.052734375 40 m 5
 51.927734375 96 l 5
 516.9609375 272 l 5
 112.936523438 442 l 5
 123.163085938 500 l 5
 587.545898438 298 l 5
 577.670898438 242 l 5
 42.052734375 40 l 5
EndSplineSet
Substitution2: "'cv05' Character Variants 05 in Latin lookup 20-1" greater.cv05
EndChar

StartChar: question
Encoding: 63 63 95
GlifName: question
Width: 517
Flags: HMW
LayerCount: 2
Fore
SplineSet
260.21484375 143 m 5
 278.364113147 245.928255582 346.431369215 293.499350528 406.010815709 340 c 4
 458.147251227 380.691517889 503.784105591 420.563336989 503.784105591 495.992566072 c 4
 503.784105591 567.961668603 453.464759309 608 362.20703125 608 c 4
 270.20703125 608 198.979492188 550 178.934570312 459 c 5
 125.934570312 459 l 5
 153.917513822 577 244.336521482 658 364.0234375 658 c 4
 483.777700249 658 557.260630113 597.307171529 557.260630113 501.813878505 c 4
 557.260630113 396.752438519 494.277846215 347.419586378 431.02734375 300 c 4
 377.240501728 258.347615003 323.253686104 218.171410713 310.21484375 143 c 5
 260.21484375 143 l 5
291 0 m 1
 227 0 l 1
 239.342773438 70 l 1
 303.342773438 70 l 1
 291 0 l 1
EndSplineSet
Substitution2: "'cv05' Character Variants 05 in Latin lookup 20-1" question.cv05
Substitution2: "'ss03' Style Set 3 in Latin lookup 2-1" question.ss03
EndChar

StartChar: question.ss03
Encoding: 65550 -1 96
GlifName: question.ss03
Width: 517
Flags: HMW
LayerCount: 2
Fore
SplineSet
229 34 m 4
 229 57 248 76 271 76 c 4
 294 76 313 57 313 34 c 4
 313 11 294 -8 271 -8 c 4
 248 -8 229 11 229 34 c 4
260.21484375 143 m 1
 278.364113147 245.928255582 346.431369215 293.499350528 406.010815709 340 c 0
 458.147251227 380.691517889 503.784105591 420.563336989 503.784105591 495.992566072 c 0
 503.784105591 567.961668603 453.464759309 608 362.20703125 608 c 0
 270.20703125 608 198.979492188 550 178.934570312 459 c 1
 125.934570312 459 l 1
 153.917513822 577 244.336521482 658 364.0234375 658 c 0
 483.777700249 658 557.260630113 597.307171529 557.260630113 501.813878505 c 0
 557.260630113 396.752438519 494.277846215 347.419586378 431.02734375 300 c 0
 377.240501728 258.347615003 323.253686104 218.171410713 310.21484375 143 c 1
 260.21484375 143 l 1
EndSplineSet
EndChar

StartChar: parenleft
Encoding: 40 40 97
GlifName: parenleft
Width: 231
Flags: HMW
LayerCount: 2
Fore
SplineSet
192.372070312 -134 m 5
 141.372070312 -134 l 5
 80.1259765625 -56 50.3408203125 87 83.8427734375 277 c 4
 117.344726562 467 197.559570312 610 286.3125 688 c 5
 337.3125 688 l 5
 236.325195312 603 172.284179688 478 136.842773438 277 c 4
 101.400390625 76 121.360351562 -49 192.372070312 -134 c 5
EndSplineSet
Substitution2: "'cv05' Character Variants 05 in Latin lookup 20-1" parenleft.cv05
Substitution2: "'sups' Superscript in Latin lookup 15-1" uni207D
Substitution2: "'subs' Subscript in Latin lookup 14-1" uni208D
EndChar

StartChar: parenright
Encoding: 41 41 98
GlifName: parenright
Width: 231
Flags: HMW
LayerCount: 2
Fore
SplineSet
126.3125 688 m 1
 177.3125 688 l 1
 238.559570312 610 268.344726562 467 234.842773438 277 c 4
 201.340820312 87 121.125976562 -56 32.3720703125 -134 c 5
 -18.6279296875 -134 l 5
 82.3603515625 -49 146.400390625 76 181.842773438 277 c 4
 217.284179688 478 197.325195312 603 126.3125 688 c 1
EndSplineSet
Substitution2: "'cv05' Character Variants 05 in Latin lookup 20-1" parenright.cv05
Substitution2: "'sups' Superscript in Latin lookup 15-1" uni207E
Substitution2: "'subs' Subscript in Latin lookup 14-1" uni208E
EndChar

StartChar: bracketleft
Encoding: 91 91 99
GlifName: bracketleft
Width: 230
Flags: HMW
LayerCount: 2
Fore
SplineSet
208.202148438 642 m 5
 328.202148438 642 l 5
 336.666015625 690 l 5
 166.666015625 690 l 5
 22.0771484375 -130 l 5
 192.077148438 -130 l 5
 200.541015625 -82 l 5
 80.541015625 -82 l 5
 208.202148438 642 l 5
EndSplineSet
Substitution2: "'cv05' Character Variants 05 in Latin lookup 20-1" bracketleft.cv05
EndChar

StartChar: bracketright
Encoding: 93 93 100
GlifName: bracketright
Width: 230
Flags: HMW
LayerCount: 2
Fore
SplineSet
120.541015625 -82 m 5
 0.541015625 -82 l 5
 -7.9228515625 -130 l 5
 162.077148438 -130 l 5
 306.666015625 690 l 5
 136.666015625 690 l 5
 128.202148438 642 l 5
 248.202148438 642 l 5
 120.541015625 -82 l 5
EndSplineSet
Substitution2: "'cv05' Character Variants 05 in Latin lookup 20-1" bracketright.cv05
EndChar

StartChar: underscore
Encoding: 95 95 101
GlifName: underscore
Width: 562
Flags: HMW
LayerCount: 2
Fore
SplineSet
35 0 m 5
 527 0 l 5
 518.536132812 -48 l 5
 26.5361328125 -48 l 5
 35 0 l 5
EndSplineSet
Substitution2: "'cv05' Character Variants 05 in Latin lookup 20-1" underscore.cv05
EndChar

StartChar: grave
Encoding: 96 96 102
GlifName: grave
Width: 245
Flags: HMW
LayerCount: 2
Fore
SplineSet
158.428710938 700 m 1
 214.428710938 700 l 5
 305.216796875 540 l 1
 262.216796875 540 l 1
 158.428710938 700 l 1
EndSplineSet
Substitution2: "'cv05' Character Variants 05 in Latin lookup 20-1" grave.cv05
EndChar

StartChar: asterisk
Encoding: 42 42 103
GlifName: asterisk
Width: 528
Flags: HMW
LayerCount: 2
Fore
SplineSet
361.926757812 700.793945312 m 1
 411.166992188 692.111328125 l 1
 370.647460938 473.831054688 l 1
 587.178710938 509.77734375 l 1
 593.616210938 459.901367188 l 1
 377.779296875 427.895507812 l 1
 474.952148438 236.107421875 l 1
 430.5234375 214.494140625 l 1
 335.204101562 411.032226562 l 1
 180.3828125 258.600585938 l 1
 146.026367188 294.106445312 l 1
 303.107421875 442.077148438 l 1
 111.060546875 544.989257812 l 1
 134.16796875 589.655273438 l 1
 325.520507812 482.803710938 l 1
 361.926757812 700.793945312 l 1
EndSplineSet
Substitution2: "'cv05' Character Variants 05 in Latin lookup 20-1" asterisk.cv05
Substitution2: "'ss09' Style Set 9 in Latin lookup 8-1" asterisk.ss09
EndChar

StartChar: asterisk.ss09
Encoding: 65551 -1 104
GlifName: asterisk.ss09
Width: 658
Flags: HMW
LayerCount: 2
Fore
SplineSet
416.815429688 649.403320312 m 1
 466.055664062 640.721679688 l 1
 414.422851562 359.4140625 l 1
 681.864257812 459.493164062 l 1
 699.017578125 412.805664062 l 1
 429.31640625 317.185546875 l 1
 650.048828125 135.08984375 l 1
 617.961914062 97.083984375 l 1
 400.877929688 282.598632812 l 1
 353.184570312 0.5966796875 l 1
 303.944335938 9.2783203125 l 1
 355.577148438 290.5859375 l 1
 88.1357421875 190.506835938 l 1
 70.982421875 237.194335938 l 1
 340.68359375 332.814453125 l 1
 119.951171875 514.91015625 l 1
 152.038085938 552.916015625 l 1
 369.122070312 367.401367188 l 1
 416.815429688 649.403320312 l 1
EndSplineSet
EndChar

StartChar: u.ss10
Encoding: 65552 -1 105
GlifName: u.ss10
Width: 502
Flags: HMW
AnchorPoint: "top1" 347 560 basechar 0
AnchorPoint: "bottom1" 263 0 basechar 0
AnchorPoint: "bottom2" 316 0 basechar 0
AnchorPoint: "top3" 483 500 basechar 0
LayerCount: 2
Fore
SplineSet
138 500 m 1
 189 500 l 1
 136 200 l 2
 118.931955176 101.85874226 171.719707392 42.1233873337 275.514555834 42.1233873337 c 0
 356.585238189 42.1233873337 410.307344023 89.5172281333 425 174 c 2
 483 500 l 1
 533 500 l 1
 474 170 l 2
 455.412820732 61.2650012807 375.957183514 -7.94571656455 269.713861379 -7.94571656455 c 0
 140.862264736 -7.94571656455 65.6781081795 79.2669328501 87 204 c 2
 138 500 l 1
EndSplineSet
EndChar

StartChar: braceleft
Encoding: 123 123 106
GlifName: braceleft
Width: 230
Flags: HMW
LayerCount: 2
Fore
SplineSet
328.202148438 642 m 1
 307.202148438 642 l 2
 265.202148438 642 243.146484375 619 233.80078125 566 c 2
 196.419921875 354 l 2
 190.072265625 318 169.487304688 292 138.37109375 280 c 1
 165.255859375 268 176.670898438 242 170.323242188 206 c 2
 132.942382812 -6 l 2
 123.596679688 -59 137.541015625 -82 179.541015625 -82 c 2
 200.541015625 -82 l 1
 192.077148438 -130 l 1
 166.077148438 -130 l 2
 100.077148438 -130 68.8359375 -86 81.8837890625 -12 c 2
 119.265625 200 l 2
 126.142578125 239 115.139648438 256 84.1396484375 256 c 2
 58.1396484375 256 l 1
 66.603515625 304 l 1
 92.603515625 304 l 2
 123.603515625 304 140.600585938 321 147.477539062 360 c 2
 184.859375 572 l 2
 197.907226562 646 244.666015625 690 310.666015625 690 c 2
 336.666015625 690 l 1
 328.202148438 642 l 1
EndSplineSet
Substitution2: "'cv05' Character Variants 05 in Latin lookup 20-1" braceleft.cv05
EndChar

StartChar: braceright
Encoding: 125 125 107
GlifName: braceright
Width: 230
Flags: HMW
LayerCount: 2
Fore
SplineSet
-1.458984375 -82 m 5
 19.541015625 -82 l 6
 61.541015625 -82 83.5966796875 -59 92.9423828125 -6 c 6
 130.323242188 206 l 6
 136.670898438 242 157.255859375 268 188.37109375 280 c 5
 161.487304688 292 150.072265625 318 156.419921875 354 c 6
 193.80078125 566 l 6
 203.146484375 619 189.202148438 642 147.202148438 642 c 6
 126.202148438 642 l 5
 134.666015625 690 l 5
 160.666015625 690 l 6
 226.666015625 690 257.907226562 646 244.859375 572 c 6
 207.477539062 360 l 6
 200.600585938 321 211.603515625 304 242.603515625 304 c 6
 268.603515625 304 l 5
 260.139648438 256 l 5
 234.139648438 256 l 6
 203.139648438 256 186.142578125 239 179.265625 200 c 6
 141.883789062 -12 l 6
 128.8359375 -86 82.0771484375 -130 16.0771484375 -130 c 6
 -9.9228515625 -130 l 5
 -1.458984375 -82 l 5
EndSplineSet
Substitution2: "'cv05' Character Variants 05 in Latin lookup 20-1" braceright.cv05
EndChar

StartChar: asciicircum
Encoding: 94 94 108
GlifName: asciicircum
Width: 367
Flags: HMW
LayerCount: 2
Fore
SplineSet
280.428710938 700 m 1
 333.428710938 700 l 1
 420.163085938 500 l 1
 381.163085938 500 l 5
 305.786132812 668 l 5
 170.163085938 500 l 5
 123.163085938 500 l 1
 280.428710938 700 l 1
EndSplineSet
Substitution2: "'cv05' Character Variants 05 in Latin lookup 20-1" asciicircum.cv05
EndChar

StartChar: ampersand
Encoding: 38 38 109
GlifName: ampersand
Width: 607
Flags: HMW
LayerCount: 2
Fore
SplineSet
363.0234375 658 m 0
 446.276367188 658 503.712890625 604.797851562 503.712890625 531.48828125 c 0
 503.712890625 402.622070312 379.220987926 351.791447524 301.072265625 318 c 0
 216.683001828 281.462599413 123.93485257 231.306113497 123.93485257 135.367024953 c 0
 123.93485257 76.339898914 167.362657488 42 250.405273438 42 c 0
 378.405273438 42 483.390625 144 534.600585938 321 c 1
 588.600585938 321 l 1
 533.688476562 123 399.58984375 -8 247.58984375 -8 c 0
 141.021484375 -8 70.6825324178 44.8409146488 70.6825324178 129.510881923 c 0
 70.6825324178 227.212420347 128.926757812 289.62890625 282 362 c 0
 329.233398438 384.388671875 450.698377262 437.051862388 450.698377262 529.43906401 c 0
 450.698377262 577.414472758 415.883874887 608 359.20703125 608 c 0
 280.675304103 608 243.702206355 543.05084065 243.702206355 486.117580074 c 0
 243.702206355 431.957053098 281.616628421 393.244187857 316.538085938 349 c 2
 592 0 l 1
 525 0 l 1
 274.072265625 318 l 2
 234.84765625 367.708984375 189.845703125 419.864257812 189.845703125 483.444335938 c 0
 189.845703125 571.61328125 255.44921875 658 363.0234375 658 c 0
EndSplineSet
Substitution2: "'cv05' Character Variants 05 in Latin lookup 20-1" ampersand.cv05
EndChar

StartChar: at
Encoding: 64 64 110
GlifName: at
Width: 885
Flags: HW
LayerCount: 2
Fore
SplineSet
356 230 m 0
 356 349.711679837 421.782502152 437 512 437 c 0
 576.964290368 437 612 397.040039062 612 325 c 0
 612 205.798828125 546.847139769 119 456 119 c 0
 391.067550667 119 356 157.924981241 356 230 c 0
647 334 m 0
 647 429.240738838 591.791015625 487 509 487 c 0
 392.240234375 487 302 374.296875 302 230 c 0
 302 133.956054688 360.038085938 69 445 69 c 0
 559.913085938 69 647 186.888872767 647 334 c 0
694 477 m 1
 644 477 l 1
 593 187 l 2
 580.802194182 117.639927702 626.91796875 73 703 73 c 0
 819.973632812 73 900 195.959960938 900 372 c 0
 900 562.801757812 759.212890625 690 555 690 c 0
 287.043945312 690 87 482.045898438 87 204 c 0
 87 9.9638671875 214.038459941 -118 423 -118 c 0
 476.309918822 -118 530.313589001 -109.224403596 583 -92 c 1
 592 -42 l 1
 532.678818149 -59.7963545554 480.617222058 -68 427 -68 c 0
 246.009328248 -68 140 30.9912890952 140 200 c 0
 140 453.923081649 315.927268259 640 556 640 c 0
 737.843780814 640 845 539.147087825 845 368 c 0
 845 219.169023103 790.095551987 122 706 122 c 0
 655.759706812 122 636.042736951 146.242176058 645 197 c 2
 694 477 l 1
EndSplineSet
Substitution2: "'cv05' Character Variants 05 in Latin lookup 20-1" at.cv05
EndChar

StartChar: dotlessi
Encoding: 305 305 111
GlifName: dotlessi
Width: 160
Flags: HW
AnchorPoint: "bottom1" 81 0 basechar 0
AnchorPoint: "top1" 178.743 560 basechar 0
LayerCount: 2
Fore
SplineSet
143.163085938 500 m 5
 193.163085938 500 l 5
 105 0 l 5
 55 0 l 5
 143.163085938 500 l 5
EndSplineSet
Substitution2: "'ss03' Style Set 3 in Latin lookup 2-1" dotlessi.ss03
EndChar

StartChar: uni0237
Encoding: 567 567 112
GlifName: uni0237
Width: 160
Flags: HW
AnchorPoint: "top1" 178.743 560 basechar 0
LayerCount: 2
Fore
SplineSet
-54.6904296875 -106 m 1
 -23.6904296875 -106 l 2
 10.3095703125 -106 38.7783203125 -92 49.7099609375 -30 c 2
 143.163085938 500 l 1
 193.163085938 500 l 1
 98.65234375 -36 l 2
 82.783203125 -126 20.845703125 -154 -31.154296875 -154 c 2
 -63.154296875 -154 l 1
 -54.6904296875 -106 l 1
EndSplineSet
EndChar

StartChar: gravecomb
Encoding: 768 768 113
GlifName: gravecomb
Width: 300
Flags: HW
AnchorPoint: "top1" 156 500 mark 0
LayerCount: 2
Fore
SplineSet
49 650 m 1
 107 650 l 5
 204 500 l 1
 161 500 l 1
 49 650 l 1
EndSplineSet
EndChar

StartChar: acutecomb
Encoding: 769 769 116
GlifName: acutecomb
Width: 300
Flags: HW
AnchorPoint: "top1" 156 500 mark 0
LayerCount: 2
Fore
SplineSet
301 650 m 1
 154 500 l 5
 106 500 l 1
 233 650 l 1
 301 650 l 1
EndSplineSet
EndChar

StartChar: uni0302
Encoding: 770 770 117
GlifName: uni0302
Width: 300
Flags: W
HStem: 500 160
AnchorPoint: "top1" 244.163 500 mark 0
LayerCount: 2
Fore
SplineSet
240.375976562 660 m 1
 293.375976562 660 l 1
 427.163085938 500 l 1
 369.163085938 500 l 5
 266.733398438 628 l 5
 118.163085938 500 l 5
 50.1630859375 500 l 1
 240.375976562 660 l 1
EndSplineSet
EndChar

StartChar: tildecomb
Encoding: 771 771 118
GlifName: tildecomb
Width: 300
Flags: HW
AnchorPoint: "top1" 244.163 500 mark 0
LayerCount: 2
Fore
SplineSet
187.849609375 640 m 4
 228.112304688 640 246.26171875 611 263.327148438 586 c 4
 278.24609375 562.995117188 290.442382812 540 316.216796875 540 c 4
 346.216796875 540 372.740234375 577 382.791015625 634 c 5
 428.791015625 634 l 1
 414.0234375 550.248046875 367.822265625 496 311.458007812 496 c 0
 270.25 496 254.80078125 520.463867188 237.921875 544 c 0
 221.16796875 568.546875 210.063476562 596 185.090820312 596 c 0
 154.090820312 596 127.390625 558 117.163085938 500 c 1
 68.1630859375 500 l 1
 83.4453125 586.666992188 127.3203125 640 187.849609375 640 c 4
EndSplineSet
EndChar

StartChar: uni0304
Encoding: 772 772 119
GlifName: uni0304
Width: 300
Flags: HW
AnchorPoint: "top1" 244.163 500 mark 0
LayerCount: 2
Fore
SplineSet
99.80078125 566 m 5
 399.80078125 566 l 5
 391.690429688 520 l 5
 91.6904296875 520 l 5
 99.80078125 566 l 5
EndSplineSet
EndChar

StartChar: uni0306
Encoding: 774 774 120
GlifName: uni0306
Width: 300
Flags: HW
AnchorPoint: "top1" 244.163 500 mark 0
LayerCount: 2
Fore
SplineSet
421.849609375 640 m 1
 401.233867825 556 337.771952902 500 251.163085938 500 c 0
 150.272729248 500 98.5288533003 556 106.849609375 640 c 1
 157.849609375 640 l 1
 153.725585938 577.93359375 182.077148438 542 247.569335938 542 c 0
 313.05859375 542 353.078125 577.93359375 370.849609375 640 c 1
 421.849609375 640 l 1
EndSplineSet
EndChar

StartChar: uni0308
Encoding: 776 776 121
GlifName: uni0308
Width: 300
Flags: HW
AnchorPoint: "top1" 244.163 500 mark 0
LayerCount: 2
Fore
SplineSet
317.506835938 570 m 1
 381.506835938 570 l 1
 369.163085938 500 l 1
 305.163085938 500 l 1
 317.506835938 570 l 1
118.506835938 570 m 5
 182.506835938 570 l 5
 170.163085938 500 l 5
 106.163085938 500 l 5
 118.506835938 570 l 5
EndSplineSet
Substitution2: "'ss03' Style Set 3 in Latin lookup 2-1" uni0308.ss03
EndChar

StartChar: uni0307
Encoding: 775 775 122
GlifName: uni0307
Width: 300
Flags: HW
AnchorPoint: "top1" 244.163 500 mark 0
LayerCount: 2
Fore
SplineSet
223.506835938 570 m 5
 287.506835938 570 l 5
 275.163085938 500 l 5
 211.163085938 500 l 5
 223.506835938 570 l 5
EndSplineSet
Substitution2: "'ss03' Style Set 3 in Latin lookup 2-1" uni0307.ss03
EndChar

StartChar: uni030A
Encoding: 778 778 123
GlifName: uni030A_
Width: 300
Flags: HW
AnchorPoint: "top1" 156 500 mark 0
LayerCount: 2
Fore
SplineSet
71 606 m 0
 71 560.721042178 98.1701149768 535 146 535 c 0
 196.843194873 535 232 577.92400626 232 640 c 0
 232 685.278957822 204.829885023 711 157 711 c 0
 106.156805127 711 71 668.07599374 71 606 c 0
280 640 m 0
 280 555.450009714 221.798290266 493 143 493 c 0
 70.6564122435 493 23 537.876454863 23 606 c 0
 23 690.549990286 81.2017097338 753 160 753 c 0
 232.343587756 753 280 708.123545137 280 640 c 0
EndSplineSet
EndChar

StartChar: uni030C
Encoding: 780 780 124
GlifName: uni030C_
Width: 300
Flags: HW
AnchorPoint: "top1" 244.163 500 mark 0
LayerCount: 2
Fore
SplineSet
265.163085938 500 m 1
 212.163085938 500 l 1
 78.3759765625 660 l 1
 137.375976562 660 l 5
 239.805664062 532 l 5
 388.375976562 660 l 5
 455.375976562 660 l 1
 265.163085938 500 l 1
EndSplineSet
EndChar

StartChar: uni0327
Encoding: 807 807 252
GlifName: uni0327
Width: 300
Flags: HW
AnchorPoint: "bottom1" 160 0 mark 0
LayerCount: 2
Fore
SplineSet
140.763671875 10 m 5
 185.763671875 10 l 1
 165.301757812 -55 l 1
 180.301757812 -55 l 2
 233.186352266 -55 263.428710938 -95.7939453125 263.428710938 -144.783203125 c 0
 263.428710938 -220.758789062 213.982421875 -266 128.096679688 -266 c 2
 29.0966796875 -266 l 1
 37.9130859375 -216 l 1
 118.913085938 -216 l 2
 176.430727249 -216 212.816488081 -187.903285071 212.816488081 -143.488746682 c 0
 212.816488081 -118.951047525 195.297861453 -105 164.485351562 -105 c 2
 130.485351562 -105 l 1
 111.775390625 -75 l 1
 140.763671875 10 l 5
EndSplineSet
EndChar

StartChar: uni0328
Encoding: 808 808 253
GlifName: uni0328
Width: 300
Flags: HW
AnchorPoint: "bottom2" 196 0 mark 0
LayerCount: 2
Fore
SplineSet
196 0 m 1
 102.282427093 -63.2048747514 66 -111.209316751 66 -172 c 0
 66 -207.374198509 90.4894797386 -226 137 -226 c 2
 198 -226 l 1
 189 -276 l 1
 126 -276 l 2
 58.322265625 -276 12 -238.278320312 12 -180 c 4
 12 -105.995117188 60.0364220645 -44.357701694 148 0 c 1
 196 0 l 1
EndSplineSet
EndChar

StartChar: longs
Encoding: 383 383 268
GlifName: longs
Width: 251
Flags: HW
LayerCount: 2
Fore
SplineSet
331.250976562 652 m 5
 290.250976562 652 l 6
 250.250976562 652 217.702148438 631.875976562 207.849609375 576 c 6
 106.28515625 0 l 5
 55.28515625 0 l 5
 157.908203125 582 l 6
 173.77734375 672 240.71484375 700 297.71484375 700 c 6
 339.71484375 700 l 5
 331.250976562 652 l 5
EndSplineSet
EndChar

StartChar: thorn
Encoding: 254 254 269
GlifName: thorn
Width: 552
Flags: HW
LayerCount: 2
Fore
SplineSet
179 700 m 1
 230 700 l 1
 78.96484375 -163 l 1
 27.96484375 -163 l 1
 179 700 l 1
120 199 m 0
 120 370 206 510 350 510 c 0
 476 510 558 425 558 294 c 0
 558 123 448 -8 305 -8 c 0
 179 -8 120 67 120 199 c 0
506 296 m 0
 506 400 447 460 345 460 c 0
 240 460 150 356 150 207 c 0
 150 102 209 42 311 42 c 0
 415 42 506 147 506 296 c 0
EndSplineSet
EndChar

StartChar: Thorn
Encoding: 222 222 270
GlifName: T_horn
Width: 554
Flags: HW
LayerCount: 2
Fore
SplineSet
170 650 m 1
 220 650 l 1
 200.184615385 538 l 1
 398.899414062 538 l 2
 509.899414062 538 577.899414062 471 577.899414062 367 c 0
 577.899414062 249 493.899414062 137 345.899414062 137 c 2
 129.899414062 137 l 1
 105 0 l 1
 55 0 l 1
 170 650 l 1
191.899414062 490 m 1
 137.899414062 185 l 1
 334.899414062 185 l 2
 474.899414062 185 525.899414062 287 525.899414062 372 c 0
 525.899414062 448 477.899414062 490 388.899414062 490 c 2
 191.899414062 490 l 1
EndSplineSet
EndChar

StartChar: uni0326
Encoding: 806 806 273
GlifName: uni0326
Width: 300
Flags: HW
AnchorPoint: "bottom1" 160 0 mark 0
LayerCount: 2
Fore
SplineSet
121.299804688 -38 m 1
 185.299804688 -38 l 1
 170.311523438 -123 l 2
 157.241210938 -197.127929688 116.03125 -221 83.03125 -221 c 2
 71.03125 -221 l 1
 77.0263671875 -187 l 1
 88.0263671875 -187 l 2
 114.18359375 -187 136.290039062 -174.166992188 146.370117188 -117 c 2
 147.95703125 -108 l 1
 108.95703125 -108 l 1
 121.299804688 -38 l 1
EndSplineSet
Substitution2: "'ss03' Style Set 3 in Latin lookup 2-1" uni0326.ss03
EndChar

StartChar: uni0312
Encoding: 786 786 274
GlifName: uni0312
Width: 300
Flags: HW
AnchorPoint: "top1" 244.163 500 mark 0
LayerCount: 2
Fore
SplineSet
276.163085938 500 m 1
 212.163085938 500 l 1
 227.151367188 585 l 2
 240.221679688 659.127929688 281.431640625 683 314.431640625 683 c 2
 326.431640625 683 l 1
 320.436523438 649 l 1
 309.436523438 649 l 2
 283.279296875 649 261.173828125 636.166992188 251.09375 579 c 2
 249.506835938 570 l 1
 288.506835938 570 l 1
 276.163085938 500 l 1
EndSplineSet
Substitution2: "'ss03' Style Set 3 in Latin lookup 2-1" uni0312.ss03
EndChar

StartChar: uni0313
Encoding: 787 787 275
GlifName: uni0313
Width: 300
Flags: HW
AnchorPoint: "top1" 244.163 500 mark 0
LayerCount: 2
Fore
SplineSet
262.431640625 683 m 5
 326.431640625 683 l 5
 311.443359375 598 l 6
 298.373046875 523.872070312 257.163085938 500 224.163085938 500 c 6
 212.163085938 500 l 5
 218.158203125 534 l 5
 229.158203125 534 l 6
 255.315429688 534 277.421875 546.833007812 287.501953125 604 c 6
 289.088867188 613 l 5
 250.088867188 613 l 5
 262.431640625 683 l 5
EndSplineSet
Substitution2: "'ss03' Style Set 3 in Latin lookup 2-1" uni0313.ss03
EndChar

StartChar: kgreenlandic
Encoding: 312 312 284
GlifName: kgreenlandic
Width: 467
Flags: HW
LayerCount: 2
Fore
SplineSet
141.744140625 500 m 1
 191.744140625 500 l 1
 104.28515625 0 l 1
 54.28515625 0 l 1
 141.744140625 500 l 1
436.44921875 500 m 1
 511.44921875 500 l 1
 244.543945312 251 l 1
 436.28515625 0 l 1
 376.28515625 0 l 1
 208.196289062 215 l 1
 128.852539062 145 l 1
 98.0244140625 180 l 1
 436.44921875 500 l 1
EndSplineSet
EndChar

StartChar: AE
Encoding: 198 198 285
GlifName: A_E_
Width: 950
Flags: HW
AnchorPoint: "top1" 591.429 700 basechar 0
LayerCount: 2
Fore
SplineSet
1019.61230469 650 m 1
 1011.1484375 602 l 1
 631.1484375 602 l 1
 587.94921875 357 l 1
 939.94921875 357 l 1
 931.485351562 309 l 1
 579.485351562 309 l 1
 533.463867188 48 l 1
 913.463867188 48 l 1
 905 0 l 1
 475 0 l 1
 508.149414062 188 l 1
 220.08984375 188 l 5
 92 0 l 5
 35 0 l 1
 476.612304688 650 l 1
 1019.61230469 650 l 1
252.79296875 236 m 5
 516.61328125 236 l 1
 580.795898438 600 l 1
 500.795898438 600 l 5
 252.79296875 236 l 5
EndSplineSet
EndChar

StartChar: Eth
Encoding: 208 208 286
GlifName: E_th
Width: 699
Flags: HW
LayerCount: 2
Fore
SplineSet
89.951171875 340 m 5
 461.951171875 340 l 5
 453.487304688 292 l 5
 81.4873046875 292 l 5
 89.951171875 340 l 5
301 602 m 5
 203 48 l 5
 395 48 l 6
 591 48 664 265 664 397 c 4
 664 528 597 602 473 602 c 6
 301 602 l 5
482 650 m 6
 630 650 717 549 717 389 c 4
 717 198 601 0 407 0 c 6
 145 0 l 5
 260 650 l 5
 482 650 l 6
EndSplineSet
EndChar

StartChar: Oslash
Encoding: 216 216 287
GlifName: O_slash
Width: 665
Flags: HW
LayerCount: 2
Fore
SplineSet
699.90234375 685 m 1
 734.612304688 650 l 1
 79.7099609375 -34 l 1
 45 0 l 1
 699.90234375 685 l 1
97 264 m 0
 97 485 240 660 421 660 c 0
 578 660 680 549 680 378 c 0
 680 156 544 -8 360 -8 c 0
 200 -8 97 99 97 264 c 0
628 383 m 0
 628 527 549 610 414 610 c 0
 261 610 149 463 149 261 c 0
 149 123 229 42 367 42 c 0
 522 42 628 180 628 383 c 0
EndSplineSet
EndChar

StartChar: oslash
Encoding: 248 248 288
GlifName: oslash
Width: 545
Flags: HW
LayerCount: 2
Fore
SplineSet
548.453125 532 m 1
 584.163085938 500 l 1
 80.7099609375 -32 l 5
 45 0 l 1
 548.453125 532 l 1
84 209 m 0
 84 380 193 510 337 510 c 0
 463 510 545 425 545 294 c 0
 545 123 435 -8 292 -8 c 0
 166 -8 84 77 84 209 c 0
493 296 m 0
 493 400 434 460 332 460 c 0
 227 460 137 356 137 207 c 0
 137 102 196 42 298 42 c 0
 402 42 493 147 493 296 c 0
EndSplineSet
EndChar

StartChar: ae
Encoding: 230 230 289
GlifName: ae
Width: 893
Flags: HW
AnchorPoint: "top1" 536.743 560 basechar 0
LayerCount: 2
Fore
SplineSet
440 207 m 0
 440 372 538 510 692 510 c 0
 839 510 918 394 896 262 c 2
 891 232 l 1
 486 232 l 1
 495 280 l 1
 846 280 l 1
 863 386 798 460 696 460 c 0
 575 460 492 357 492 204 c 0
 492 98 552 41 662 41 c 0
 739.924050633 41 795.291139241 80.6 824 151 c 1
 882 151 l 1
 841.636363636 46.4666666667 764.945454545 -9 660 -9 c 0
 524 -9 440 73 440 207 c 0
471.703125 143 m 1
 420.703125 139 l 1
 454 328 l 2
 467.440142512 404.289049191 406.998046875 461.141601562 314.326171875 461.141601562 c 0
 235.4921875 461.141601562 186.624023438 428.370117188 165 361 c 1
 109 361 l 1
 132.73046875 453.053710938 213.440429688 510.249023438 319.609375 510.249023438 c 0
 441.993164062 510.249023438 523.449281759 430.505629294 505 328 c 2
 471.703125 143 l 1
476 205 m 1
 454.295655165 77 348.235654251 -8.8955078125 229.48046875 -8.8955078125 c 0
 134.712890625 -8.8955078125 69.6171875 45.3056640625 69.6171875 124.212890625 c 0
 69.6171875 210.356445312 133.227450407 273.538348653 235 277 c 2
 382 282 l 2
 433.23398052 283.742652399 447.939453125 292.893554688 454 326 c 1
 439 233 l 1
 242 228 l 2
 161.101461886 225.946737611 122.51171875 185.2265625 122.51171875 129.91796875 c 0
 122.51171875 76.1513671875 168.565429688 40.1982421875 237.436523438 40.1982421875 c 0
 335.086914062 40.1982421875 415.377929688 109.091796875 433 208 c 1
 476 205 l 1
EndSplineSet
EndChar

StartChar: multiply
Encoding: 215 215 290
GlifName: multiply
Width: 546
Flags: HW
LayerCount: 2
Fore
SplineSet
327.661132812 310 m 1
 528.813476562 481 l 1
 556.818359375 447 l 1
 355.666015625 276 l 1
 496.514648438 105 l 1
 456.51953125 71 l 1
 315.670898438 242 l 1
 114.51953125 71 l 1
 86.5146484375 105 l 1
 287.666015625 276 l 1
 146.818359375 447 l 1
 186.813476562 481 l 1
 327.661132812 310 l 1
EndSplineSet
Substitution2: "'tnum' Tabular Numbers in Latin lookup 11-1" multiply.tabl
EndChar

StartChar: divide
Encoding: 247 247 291
GlifName: divide
Width: 462
Flags: HW
LayerCount: 2
Fore
SplineSet
287.397460938 507 m 5
 351.397460938 507 l 5
 339.0546875 437 l 5
 275.0546875 437 l 5
 287.397460938 507 l 5
215.103515625 97 m 5
 279.103515625 97 l 5
 266.760742188 27 l 5
 202.760742188 27 l 5
 215.103515625 97 l 5
87.8984375 300 m 1
 479.8984375 300 l 1
 471.434570312 252 l 1
 79.4345703125 252 l 1
 87.8984375 300 l 1
EndSplineSet
Substitution2: "'tnum' Tabular Numbers in Latin lookup 11-1" divide.tabl
Substitution2: "'ss03' Style Set 3 in Latin lookup 2-1" divide.ss03
EndChar

StartChar: Dcroat
Encoding: 272 272 292
GlifName: D_croat
Width: 699
Flags: HW
LayerCount: 2
Fore
SplineSet
89.951171875 340 m 5
 461.951171875 340 l 5
 453.487304688 292 l 5
 81.4873046875 292 l 5
 89.951171875 340 l 5
301 602 m 5
 203 48 l 5
 395 48 l 6
 591 48 664 265 664 397 c 4
 664 528 597 602 473 602 c 6
 301 602 l 5
482 650 m 6
 630 650 717 549 717 389 c 4
 717 198 601 0 407 0 c 6
 145 0 l 5
 260 650 l 5
 482 650 l 6
EndSplineSet
EndChar

StartChar: dcroat
Encoding: 273 273 293
GlifName: dcroat
Width: 602
Flags: HW
LayerCount: 2
Fore
SplineSet
361.0859375 630 m 1
 352.974609375 584 l 1
 684.974609375 584 l 1
 693.0859375 630 l 1
 361.0859375 630 l 1
621 700 m 1
 570 700 l 1
 447 0 l 1
 498 0 l 1
 621 700 l 1
525 304 m 0
 525 425 463 510 337 510 c 0
 193 510 84 380 84 209 c 0
 84 77 166 -8 292 -8 c 0
 435 -8 525 133 525 304 c 0
137 207 m 0
 137 356 227 460 332 460 c 0
 434 460 493 400 493 296 c 0
 493 147 402 42 298 42 c 0
 196 42 137 102 137 207 c 0
EndSplineSet
EndChar

StartChar: eth
Encoding: 240 240 296
GlifName: eth
Width: 557
Flags: HW
LayerCount: 2
Fore
SplineSet
437 250.356159222 m 0
 437 368.145973361 365.389523807 451 263.584155699 451 c 0
 163.177637673 451 98 370.231522906 98 245.807228916 c 0
 98 123.108424014 161.793759654 43 259.50405874 43 c 0
 362.05306349 43 437 130.55529163 437 250.356159222 c 0
360.333007812 700 m 1
 464.1661675 597.098711091 512 483.082745234 512 338.488958567 c 0
 512 131.337268156 411.83593057 -8 262.922746212 -8 c 0
 134.466638243 -8 45 96.1719524172 45 245.741935484 c 0
 45 394.496536591 133.74771407 502 256.549625627 502 c 0
 347.008199015 502 424.557838628 443.968449905 457 352 c 1
 458.550510257 369.055612829 459 376.389037451 459 384.629997632 c 0
 459 474.868571891 386.610355558 612.037528138 292.56640625 700 c 1
 360.333007812 700 l 1
218 592 m 5
 526 656 l 5
 526 608 l 1
 218 544 l 1
 218 592 l 5
EndSplineSet
EndChar

StartChar: uni0315
Encoding: 789 789 298
GlifName: uni0315
Width: 300
Flags: HWO
AnchorPoint: "top2" 124 500 mark 0
LayerCount: 2
Fore
SplineSet
185 683 m 5
 237 683 l 5
 171 500 l 1
 124 500 l 1
 185 683 l 5
EndSplineSet
EndChar

StartChar: periodcentered
Encoding: 183 183 302
GlifName: periodcentered
Width: 160
Flags: HW
LayerCount: 2
Fore
SplineSet
110.419921875 354 m 5
 174.419921875 354 l 5
 162.077148438 284 l 5
 98.0771484375 284 l 5
 110.419921875 354 l 5
EndSplineSet
Substitution2: "'ss03' Style Set 3 in Latin lookup 2-1" periodcentered.ss03
EndChar

StartChar: Hbar
Encoding: 294 294 305
GlifName: H_bar
Width: 650
Flags: HW
LayerCount: 2
Fore
SplineSet
113.100585938 528 m 1
 723.100585938 528 l 1
 714.63671875 480 l 1
 104.63671875 480 l 1
 113.100585938 528 l 1
189.612304688 650 m 1
 239.612304688 650 l 1
 188.477539062 360 l 1
 588.477539062 360 l 1
 639.612304688 650 l 1
 689.612304688 650 l 1
 575 0 l 1
 525 0 l 1
 580.013671875 312 l 1
 180.013671875 312 l 1
 125 0 l 1
 75 0 l 1
 189.612304688 650 l 1
EndSplineSet
EndChar

StartChar: hbar
Encoding: 295 295 306
GlifName: hbar
Width: 540
Flags: HW
LayerCount: 2
Fore
SplineSet
111.0859375 630 m 5
 443.0859375 630 l 5
 434.974609375 584 l 5
 102.974609375 584 l 5
 111.0859375 630 l 5
489.825195312 292 m 6
 508.212438153 393.638524524 460.92313851 459 369 459 c 4
 272.650655317 459 203.105708152 397.966973811 187.825195312 300 c 5
 156.825195312 306 l 5
 176.05829559 423.232564772 270.349579361 509 380 509 c 4
 489.628588786 509 561.964929107 413.646133847 540.825195312 297 c 6
 487 0 l 5
 437 0 l 5
 489.825195312 292 l 6
207.20703125 700 m 5
 257.20703125 700 l 5
 136 0 l 5
 86 0 l 5
 207.20703125 700 l 5
EndSplineSet
EndChar

StartChar: uni030B
Encoding: 779 779 307
GlifName: uni030B_
Width: 300
Flags: HW
AnchorPoint: "top1" 244.163 500 mark 0
LayerCount: 2
Fore
SplineSet
475.612304688 650 m 5
 317.163085938 500 l 5
 274.163085938 500 l 5
 412.612304688 650 l 5
 475.612304688 650 l 5
335.612304688 650 m 5
 177.163085938 500 l 5
 134.163085938 500 l 5
 272.612304688 650 l 5
 335.612304688 650 l 5
EndSplineSet
EndChar

StartChar: uni02BC
Encoding: 700 700 311
GlifName: uni02B_C_
Width: 125
Flags: HW
LayerCount: 2
Fore
SplineSet
181.431640625 683 m 5
 245.431640625 683 l 5
 230.443359375 598 l 6
 217.373046875 523.872070312 176.163085938 500 143.163085938 500 c 6
 131.163085938 500 l 5
 137.158203125 534 l 5
 148.158203125 534 l 6
 174.315429688 534 196.421875 546.833007812 206.501953125 604 c 6
 208.088867188 613 l 5
 169.088867188 613 l 5
 181.431640625 683 l 5
EndSplineSet
EndChar

StartChar: Lslash
Encoding: 321 321 312
GlifName: L_slash
Width: 500
Flags: HW
LayerCount: 2
Fore
SplineSet
58.3642578125 331 m 1
 377.649414062 395 l 1
 369.185546875 347 l 1
 49.900390625 283 l 1
 58.3642578125 331 l 1
465 0 m 1
 85 0 l 1
 199.612304688 650 l 1
 249.612304688 650 l 1
 143.463867188 48 l 1
 473.463867188 48 l 1
 465 0 l 1
EndSplineSet
EndChar

StartChar: lslash
Encoding: 322 322 313
GlifName: lslash
Width: 228
Flags: HW
LayerCount: 2
Fore
SplineSet
61.890625 351 m 5
 297.649414062 395 l 5
 289.185546875 347 l 5
 53.4267578125 303 l 5
 61.890625 351 l 5
216.428710938 700 m 1
 266.428710938 700 l 1
 143 0 l 1
 93 0 l 1
 216.428710938 700 l 1
EndSplineSet
Substitution2: "'ss02' Style Set 2 in Latin lookup 1-1" lslash.ss02
EndChar

StartChar: Eng
Encoding: 330 330 314
GlifName: E_ng
Width: 610
Flags: HW
LayerCount: 2
Fore
SplineSet
619.612304688 650 m 1
 669.612304688 650 l 1
 548.65234375 -36 l 2
 534.383217976 -122.567382812 480.962773273 -174 405.319335938 -174 c 6
 343.319335938 -174 l 1
 351.783203125 -126 l 1
 402.783203125 -126 l 2
 458.556640625 -126 487.909179688 -96.9287109375 499.709960938 -30 c 2
 505 0 l 1
 209.208984375 591 l 1
 105 0 l 1
 55 0 l 1
 169.612304688 650 l 1
 234.612304688 650 l 1
 520.045898438 87 l 1
 619.612304688 650 l 1
EndSplineSet
EndChar

StartChar: eng
Encoding: 331 331 315
GlifName: eng
Width: 510
Flags: HW
LayerCount: 2
Fore
SplineSet
143.163085938 500 m 1
 193.163085938 500 l 1
 105 0 l 1
 55 0 l 1
 143.163085938 500 l 1
459.661132812 310 m 2
 475.549665087 408.333007812 437.815407671 460 350.110351562 460 c 0
 256.760494411 460 176.110498544 398.6796875 160.719726562 316 c 1
 132.77734375 322 l 1
 151.325653655 426.009765625 248.784823089 510 350.926757812 510 c 0
 471.202138769 510 533.088618466 436.737304688 511.424804688 320 c 2
 448.65234375 -36 l 2
 434.482770243 -122.567382812 381.435027163 -174 306.319335938 -174 c 6
 243.319335938 -174 l 1
 251.783203125 -126 l 1
 302.783203125 -126 l 2
 358.556640625 -126 387.909179688 -96.9287109375 399.709960938 -30 c 2
 459.661132812 310 l 2
EndSplineSet
EndChar

StartChar: OE
Encoding: 338 338 316
GlifName: O_E_
Width: 1042
Flags: HW
LayerCount: 2
Fore
SplineSet
1115 650 m 5
 1106 602 l 5
 726 602 l 5
 683 357 l 5
 1035 357 l 5
 1026 309 l 5
 674 309 l 5
 628 48 l 5
 1008 48 l 5
 1000 0 l 5
 570 0 l 5
 685 650 l 5
 1115 650 l 5
97 264 m 4
 97 491.256498734 232.932264909 660 416 660 c 4
 561.602923017 660 664 547.69352847 664 388 c 4
 664 154.052834704 537.549682011 -8 355 -8 c 4
 203.142112326 -8 97 103.901761832 97 264 c 4
628 383 m 4
 628 526.60072442 549.376894387 610 414 610 c 4
 260.80940741 610 149 462.749120052 149 261 c 4
 149 122.683319094 229.314902112 42 367 42 c 4
 522.187731299 42 628 180.245147996 628 383 c 4
EndSplineSet
EndChar

StartChar: oe
Encoding: 339 339 317
GlifName: oe
Width: 947
Flags: HW
LayerCount: 2
Fore
SplineSet
489 207 m 4
 489 372 587 510 741 510 c 4
 888 510 967 394 945 262 c 6
 940 232 l 5
 535 232 l 5
 544 280 l 5
 895 280 l 5
 912 386 847 460 745 460 c 4
 624 460 541 357 541 204 c 4
 541 98 601 41 711 41 c 4
 788.924050633 41 844.291139241 80.6 873 151 c 5
 931 151 l 5
 890.636363636 46.4666666667 813.945454545 -9 709 -9 c 4
 573 -9 489 73 489 207 c 4
84 209 m 4
 84 380 193 510 337 510 c 4
 463 510 545 425 545 294 c 4
 545 123 435 -8 292 -8 c 4
 166 -8 84 77 84 209 c 4
493 296 m 4
 493 400 434 460 332 460 c 4
 227 460 137 356 137 207 c 4
 137 102 196 42 298 42 c 4
 402 42 493 147 493 296 c 4
EndSplineSet
EndChar

StartChar: Tbar
Encoding: 358 358 320
GlifName: T_bar
Width: 520
Flags: HW
LayerCount: 2
Fore
SplineSet
134.951171875 340 m 5
 506.951171875 340 l 5
 498.487304688 292 l 5
 126.487304688 292 l 5
 134.951171875 340 l 5
599.612304688 650 m 1
 591.1484375 602 l 1
 391.1484375 602 l 1
 285 0 l 1
 235 0 l 1
 341.1484375 602 l 1
 141.1484375 602 l 1
 149.612304688 650 l 1
 599.612304688 650 l 1
EndSplineSet
EndChar

StartChar: tbar
Encoding: 359 359 321
GlifName: tbar
Width: 312
Flags: HW
LayerCount: 2
Fore
SplineSet
87.8984375 300 m 5
 329.8984375 300 l 5
 321.434570312 252 l 5
 79.4345703125 252 l 5
 87.8984375 300 l 5
123.163085938 500 m 1
 365.163085938 500 l 1
 356.700195312 452 l 1
 114.700195312 452 l 1
 123.163085938 500 l 1
285.463867188 48 m 1
 277 0 l 1
 235 0 l 2
 185 0 135.9375 28 151.806640625 118 c 2
 242.0859375 630 l 1
 292.0859375 630 l 1
 202.864257812 124 l 2
 191.932617188 62 213.463867188 48 244.463867188 48 c 2
 285.463867188 48 l 1
EndSplineSet
Substitution2: "'ss08' Style Set 8 in Latin lookup 7-1" tbar.ss08
EndChar

StartChar: germandbls
Encoding: 223 223 322
GlifName: germandbls
Width: 545
Flags: HW
LayerCount: 2
Fore
SplineSet
399.0234375 658 m 0
 289.00611159 658 208.766647034 588.489515696 188.931640625 476 c 2
 105 0 l 1
 55 0 l 1
 139.989257812 482 l 2
 162.680778964 616.197627243 267.014819819 708 396.83984375 708 c 0
 505.44832295 708 584.556640625 636.0048544 584.556640625 537.162109375 c 0
 584.556640625 428.039235199 497.774309046 338 392.598632812 338 c 1
 379.651367188 378 l 1
 464.557974017 378 530.998046875 446.793656246 530.998046875 534.708007812 c 0
 530.998046875 607.96420744 477.438573459 658 399.0234375 658 c 0
429.651367188 378 m 1
 420.834960938 328 l 1
 301.834960938 328 l 1
 310.651367188 378 l 1
 429.651367188 378 l 1
377.888671875 368 m 1
 475.959955628 368 537.51953125 307.618425091 537.51953125 211.423828125 c 0
 537.51953125 92.9459732552 438.816435521 0 313 0 c 2
 204 0 l 1
 212.81640625 50 l 1
 301.81640625 50 l 2
 411.011307154 50 484.435422744 121.443250242 484.435422744 227.692247151 c 0
 484.435422744 292.296097666 444.000065773 328 370.834960938 328 c 1
 377.888671875 368 l 1
EndSplineSet
EndChar

StartChar: uni1E9E
Encoding: 7838 7838 323
GlifName: uni1E_9E_
Width: 605
Flags: HW
LayerCount: 2
Fore
SplineSet
516 580 m 1
 456.844312881 599.330952442 393.415813969 613 317 613 c 0
 168.740970309 613 105 550.762354463 105 406 c 2
 105 0 l 1
 55 0 l 1
 55 412 l 2
 55 576.164703178 143.242336855 661 314 661 c 0
 391.578643763 661 456.249783362 646.088311755 516 625 c 1
 516 580 l 1
357.272460938 348.759765625 m 1
 500.61452832 344.301114358 560 278.131635994 560 181 c 0
 560 72.3844374432 472.418829834 -1.60936334026e-14 341 0 c 2
 271 0 l 1
 271 50 l 1
 334 50 l 2
 444.136002287 50 507 97.6022179215 507 181 c 0
 507 257.963613132 448.042192788 302 345 302 c 2
 304 302 l 1
 304 352 l 1
 475 604 l 1
 516 580 l 1
 357.272460938 348.759765625 l 1
EndSplineSet
EndChar

StartChar: asciitilde
Encoding: 126 126 324
GlifName: asciitilde
Width: 427
Flags: HW
LayerCount: 2
Fore
SplineSet
221.163085938 500 m 4
 266.163085938 500 287.049804688 471 306.641601562 446 c 4
 324.670898438 422.995117188 339.53125 400 369.53125 400 c 4
 399.53125 400 426.0546875 437 436.10546875 494 c 5
 479.10546875 494 l 5
 464.337890625 410.248046875 418.135742188 356 361.772460938 356 c 4
 315.772460938 356 293.560546875 380.463867188 274.236328125 404 c 4
 254.08203125 428.546875 240.405273438 456 211.405273438 456 c 4
 180.405273438 456 153.705078125 418 143.477539062 360 c 5
 98.4775390625 360 l 5
 113.759765625 446.666992188 160.633789062 500 221.163085938 500 c 4
EndSplineSet
Substitution2: "'cv05' Character Variants 05 in Latin lookup 20-1" asciitilde.cv05
EndChar

StartChar: exclamdown
Encoding: 161 161 325
GlifName: exclamdown
Width: 160
Flags: HW
LayerCount: 2
Fore
SplineSet
136.163085938 500 m 1
 200.163085938 500 l 1
 187.8203125 430 l 1
 123.8203125 430 l 1
 136.163085938 500 l 1
121.94921875 357 m 1
 163.94921875 357 l 1
 78.55078125 -150 l 1
 28.55078125 -150 l 1
 121.94921875 357 l 1
EndSplineSet
Substitution2: "'ss03' Style Set 3 in Latin lookup 2-1" exclamdown.ss03
EndChar

StartChar: questiondown
Encoding: 191 191 326
GlifName: questiondown
Width: 517
Flags: HW
LayerCount: 2
Fore
SplineSet
344.78515625 357 m 5
 326.635742188 254.071289062 258.568359375 206.500976562 198.989257812 160 c 4
 146.852539062 119.30859375 101.215820312 79.4365234375 101.215820312 4.0078125 c 4
 101.215820312 -67.9619140625 151.53515625 -108 242.79296875 -108 c 4
 334.79296875 -108 406.020507812 -50 426.065429688 41 c 5
 479.065429688 41 l 5
 451.08203125 -77 360.663085938 -158 240.9765625 -158 c 4
 121.22265625 -158 47.7392578125 -97.3076171875 47.7392578125 -1.8134765625 c 4
 47.7392578125 103.248046875 110.721679688 152.580078125 173.97265625 200 c 4
 227.759765625 241.65234375 281.74609375 281.828125 294.78515625 357 c 5
 344.78515625 357 l 5
314 500 m 5
 378 500 l 5
 365.657226562 430 l 5
 301.657226562 430 l 5
 314 500 l 5
EndSplineSet
Substitution2: "'ss03' Style Set 3 in Latin lookup 2-1" questiondown.ss03
EndChar

StartChar: endash
Encoding: 8211 8211 327
GlifName: endash
Width: 654
Flags: HW
LayerCount: 2
Fore
SplineSet
87.8984375 300 m 1
 671.8984375 300 l 5
 663.434570312 252 l 5
 79.4345703125 252 l 1
 87.8984375 300 l 1
EndSplineSet
EndChar

StartChar: emdash
Encoding: 8212 8212 328
GlifName: emdash
Width: 982
Flags: HW
LayerCount: 2
Fore
SplineSet
87.8984375 300 m 1
 999.8984375 300 l 5
 991.434570312 252 l 5
 79.4345703125 252 l 1
 87.8984375 300 l 1
EndSplineSet
EndChar

StartChar: quoteleft
Encoding: 8216 8216 329
GlifName: quoteleft
Width: 160
Flags: HW
LayerCount: 2
Fore
SplineSet
193.163085938 500 m 5
 129.163085938 500 l 5
 141.506835938 570 l 5
 194.428710938 700 l 5
 235.428710938 700 l 5
 166.506835938 570 l 5
 205.506835938 570 l 5
 193.163085938 500 l 5
EndSplineSet
Substitution2: "'ss03' Style Set 3 in Latin lookup 2-1" quoteleft.ss03
EndChar

StartChar: quoteright
Encoding: 8217 8217 330
GlifName: quoteright
Width: 160
Flags: HW
LayerCount: 2
Fore
SplineSet
171.428710938 700 m 5
 235.428710938 700 l 5
 223.0859375 630 l 5
 170.163085938 500 l 5
 129.163085938 500 l 5
 198.0859375 630 l 5
 159.0859375 630 l 5
 171.428710938 700 l 5
EndSplineSet
Substitution2: "'ss03' Style Set 3 in Latin lookup 2-1" quoteright.ss03
EndChar

StartChar: quotedblleft
Encoding: 8220 8220 331
GlifName: quotedblleft
Width: 270
Flags: HW
LayerCount: 2
Fore
SplineSet
303.163085938 500 m 5
 239.163085938 500 l 5
 251.506835938 570 l 5
 304.428710938 700 l 5
 345.428710938 700 l 5
 276.506835938 570 l 5
 315.506835938 570 l 5
 303.163085938 500 l 5
193.163085938 500 m 1
 129.163085938 500 l 1
 141.506835938 570 l 1
 194.428710938 700 l 1
 235.428710938 700 l 1
 166.506835938 570 l 1
 205.506835938 570 l 1
 193.163085938 500 l 1
EndSplineSet
Substitution2: "'ss03' Style Set 3 in Latin lookup 2-1" quotedblleft.ss03
EndChar

StartChar: quotesinglbase
Encoding: 8218 8218 332
GlifName: quotesinglbase
Width: 160
Flags: HW
LayerCount: 2
Fore
SplineSet
60.3427734375 70 m 5
 124.342773438 70 l 5
 112 0 l 5
 59.0771484375 -130 l 5
 18.0771484375 -130 l 5
 87 0 l 5
 48 0 l 5
 60.3427734375 70 l 5
EndSplineSet
Substitution2: "'ss03' Style Set 3 in Latin lookup 2-1" quotesinglbase.ss03
EndChar

StartChar: quotereversed
Encoding: 8219 8219 333
GlifName: quotereversed
Width: 160
Flags: HW
LayerCount: 2
Fore
SplineSet
228.428710938 700 m 5
 216.0859375 630 l 5
 177.0859375 630 l 5
 200.163085938 500 l 5
 159.163085938 500 l 5
 152.0859375 630 l 5
 164.428710938 700 l 5
 228.428710938 700 l 5
EndSplineSet
Substitution2: "'ss03' Style Set 3 in Latin lookup 2-1" quotereversed.ss03
EndChar

StartChar: quotedblright
Encoding: 8221 8221 334
GlifName: quotedblright
Width: 270
Flags: HW
LayerCount: 2
Fore
SplineSet
171.428710938 700 m 5
 235.428710938 700 l 5
 223.0859375 630 l 5
 170.163085938 500 l 5
 129.163085938 500 l 5
 198.0859375 630 l 5
 159.0859375 630 l 5
 171.428710938 700 l 5
281.428710938 700 m 1
 345.428710938 700 l 1
 333.0859375 630 l 1
 280.163085938 500 l 1
 239.163085938 500 l 1
 308.0859375 630 l 1
 269.0859375 630 l 1
 281.428710938 700 l 1
EndSplineSet
Substitution2: "'ss03' Style Set 3 in Latin lookup 2-1" quotedblright.ss03
EndChar

StartChar: quotedblbase
Encoding: 8222 8222 335
GlifName: quotedblbase
Width: 270
Flags: HW
LayerCount: 2
Fore
SplineSet
60.3427734375 70 m 5
 124.342773438 70 l 5
 112 0 l 5
 59.0771484375 -130 l 5
 18.0771484375 -130 l 5
 87 0 l 5
 48 0 l 5
 60.3427734375 70 l 5
170.342773438 70 m 5
 234.342773438 70 l 5
 222 0 l 5
 169.077148438 -130 l 5
 128.077148438 -130 l 5
 197 0 l 5
 158 0 l 5
 170.342773438 70 l 5
EndSplineSet
Substitution2: "'ss03' Style Set 3 in Latin lookup 2-1" quotedblbase.ss03
EndChar

StartChar: uni201F
Encoding: 8223 8223 336
GlifName: uni201F_
Width: 270
Flags: HW
LayerCount: 2
Fore
SplineSet
338.428710938 700 m 5
 326.0859375 630 l 5
 287.0859375 630 l 5
 310.163085938 500 l 5
 269.163085938 500 l 5
 262.0859375 630 l 5
 274.428710938 700 l 5
 338.428710938 700 l 5
228.428710938 700 m 1
 216.0859375 630 l 1
 177.0859375 630 l 1
 200.163085938 500 l 1
 159.163085938 500 l 1
 152.0859375 630 l 1
 164.428710938 700 l 1
 228.428710938 700 l 1
EndSplineSet
Substitution2: "'ss03' Style Set 3 in Latin lookup 2-1" uni201F.ss03
EndChar

StartChar: dagger
Encoding: 8224 8224 337
GlifName: dagger
Width: 312
Flags: HW
LayerCount: 2
Fore
SplineSet
210.700195312 452 m 1
 114.700195312 452 l 1
 123.163085938 500 l 1
 219.163085938 500 l 1
 242.0859375 630 l 1
 292.0859375 630 l 1
 269.163085938 500 l 1
 365.163085938 500 l 1
 356.700195312 452 l 1
 260.700195312 452 l 1
 181 0 l 1
 131 0 l 1
 210.700195312 452 l 1
EndSplineSet
EndChar

StartChar: daggerdbl
Encoding: 8225 8225 338
GlifName: daggerdbl
Width: 312
Flags: HW
LayerCount: 2
Fore
SplineSet
269.163085938 500 m 1
 365.163085938 500 l 1
 356.700195312 452 l 1
 260.700195312 452 l 1
 212.385742188 178 l 1
 308.385742188 178 l 1
 299.922851562 130 l 1
 203.922851562 130 l 1
 181 0 l 1
 131 0 l 1
 153.922851562 130 l 1
 57.9228515625 130 l 1
 66.3857421875 178 l 1
 162.385742188 178 l 1
 210.700195312 452 l 1
 114.700195312 452 l 1
 123.163085938 500 l 1
 219.163085938 500 l 1
 242.0859375 630 l 1
 292.0859375 630 l 1
 269.163085938 500 l 1
EndSplineSet
EndChar

StartChar: bullet
Encoding: 8226 8226 339
GlifName: bullet
Width: 200
Flags: HW
LayerCount: 2
Fore
SplineSet
38 374 m 0
 38 407.952380952 66.0476190476 436 100 436 c 0
 133.952380952 436 162 407.952380952 162 374 c 0
 162 340.047619048 133.952380952 312 100 312 c 4
 66.0476190476 312 38 340.047619048 38 374 c 0
EndSplineSet
EndChar

StartChar: ellipsis
Encoding: 8230 8230 340
GlifName: ellipsis
Width: 480
Flags: HW
LayerCount: 2
Fore
SplineSet
380.342773438 70 m 1
 444.342773438 70 l 1
 432 0 l 1
 368 0 l 1
 380.342773438 70 l 1
220.342773438 70 m 1
 284.342773438 70 l 1
 272 0 l 1
 208 0 l 1
 220.342773438 70 l 1
60.3427734375 70 m 1
 124.342773438 70 l 1
 112 0 l 1
 48 0 l 1
 60.3427734375 70 l 1
EndSplineSet
Substitution2: "'ss03' Style Set 3 in Latin lookup 2-1" ellipsis.ss03
EndChar

StartChar: perthousand
Encoding: 8240 8240 341
GlifName: perthousand
Width: 1207
Flags: HW
LayerCount: 2
Fore
SplineSet
889 153 m 0
 889 287 968 390 1070 390 c 0
 1155 390 1210 327 1210 230 c 0
 1210 97 1130 -8 1029 -8 c 0
 944 -8 889 55 889 153 c 0
1158 231 m 0
 1158 300 1124 340 1066 340 c 0
 995 340 942 260 942 152 c 0
 942 82 976 42 1034 42 c 0
 1105 42 1158 123 1158 231 c 0
516 153 m 0
 516 287 595 390 697 390 c 0
 782 390 837 327 837 230 c 0
 837 97 757 -8 656 -8 c 0
 571 -8 516 55 516 153 c 0
785 231 m 0
 785 300 751 340 693 340 c 0
 622 340 569 260 569 152 c 0
 569 82 603 42 661 42 c 0
 732 42 785 123 785 231 c 0
638 650 m 1
 694 650 l 1
 312 0 l 1
 256 0 l 1
 638 650 l 1
110 422 m 0
 110 556 189 659 291 659 c 0
 376 659 431 596 431 499 c 0
 431 366 351 261 250 261 c 0
 165 261 110 324 110 422 c 0
379 500 m 0
 379 569 345 609 287 609 c 0
 216 609 163 529 163 421 c 0
 163 351 197 311 255 311 c 0
 326 311 379 392 379 500 c 0
EndSplineSet
EndChar

StartChar: minute
Encoding: 8242 8242 342
GlifName: minute
Width: 225
Flags: HW
LayerCount: 2
Fore
SplineSet
314.612304688 650 m 5
 156.163085938 500 l 5
 113.163085938 500 l 5
 251.612304688 650 l 5
 314.612304688 650 l 5
EndSplineSet
EndChar

StartChar: second
Encoding: 8243 8243 343
GlifName: second
Width: 353
Flags: HW
LayerCount: 2
Fore
SplineSet
442.612304688 650 m 1
 284.163085938 500 l 1
 241.163085938 500 l 1
 379.612304688 650 l 1
 442.612304688 650 l 1
314.612304688 650 m 1
 156.163085938 500 l 1
 113.163085938 500 l 1
 251.612304688 650 l 1
 314.612304688 650 l 1
EndSplineSet
EndChar

StartChar: uni2034
Encoding: 8244 8244 344
GlifName: uni2034
Width: 481
Flags: HW
LayerCount: 2
Fore
SplineSet
314.612304688 650 m 1
 156.163085938 500 l 1
 113.163085938 500 l 1
 251.612304688 650 l 1
 314.612304688 650 l 1
570.612304688 650 m 1
 412.163085938 500 l 1
 369.163085938 500 l 1
 507.612304688 650 l 1
 570.612304688 650 l 1
442.612304688 650 m 1
 284.163085938 500 l 1
 241.163085938 500 l 1
 379.612304688 650 l 1
 442.612304688 650 l 1
EndSplineSet
EndChar

StartChar: uni2035
Encoding: 8245 8245 345
GlifName: uni2035
Width: 225
Flags: HW
LayerCount: 2
Fore
SplineSet
139.612304688 650 m 5
 202.612304688 650 l 5
 288.163085938 500 l 5
 245.163085938 500 l 5
 139.612304688 650 l 5
EndSplineSet
EndChar

StartChar: uni2036
Encoding: 8246 8246 346
GlifName: uni2036
Width: 353
Flags: HW
LayerCount: 2
Fore
SplineSet
139.612304688 650 m 1
 202.612304688 650 l 1
 288.163085938 500 l 1
 245.163085938 500 l 1
 139.612304688 650 l 1
267.612304688 650 m 1
 330.612304688 650 l 1
 416.163085938 500 l 1
 373.163085938 500 l 1
 267.612304688 650 l 1
EndSplineSet
EndChar

StartChar: uni2037
Encoding: 8247 8247 347
GlifName: uni2037
Width: 481
Flags: HW
LayerCount: 2
Fore
SplineSet
395.612304688 650 m 1
 458.612304688 650 l 1
 544.163085938 500 l 1
 501.163085938 500 l 1
 395.612304688 650 l 1
139.612304688 650 m 1
 202.612304688 650 l 1
 288.163085938 500 l 1
 245.163085938 500 l 1
 139.612304688 650 l 1
267.612304688 650 m 1
 330.612304688 650 l 1
 416.163085938 500 l 1
 373.163085938 500 l 1
 267.612304688 650 l 1
EndSplineSet
EndChar

StartChar: uni031B
Encoding: 795 795 348
GlifName: uni031B_
Width: 300
Flags: HW
AnchorPoint: "top3" 173 548 mark 0
LayerCount: 2
Fore
SplineSet
173 548 m 1
 234 548 l 2
 274 548 306 562 317 624 c 2
 322 650 l 1
 372 650 l 1
 366 618 l 2
 350 528 288 500 236 500 c 2
 173 500 l 5
 173 548 l 1
EndSplineSet
EndChar

StartChar: Ohorn
Encoding: 416 416 349
GlifName: O_horn
Width: 665
Flags: HW
AnchorPoint: "top1" 422.835 700 basechar 0
AnchorPoint: "bottom1" 327.406 0 basechar 0
LayerCount: 2
Fore
SplineSet
97 264 m 0
 97 485 240 660 421 660 c 0
 578 660 680 549 680 378 c 0
 680 156 544 -8 360 -8 c 0
 200 -8 97 99 97 264 c 0
628 383 m 0
 628 527 549 610 414 610 c 0
 261 610 149 463 149 261 c 0
 149 123 229 42 367 42 c 0
 522 42 628 180 628 383 c 0
495 650 m 1
 616 650 l 2
 655.666992188 650 688.46875 664 699.401367188 726 c 2
 703.985351562 752 l 1
 753.985351562 752 l 1
 748.342773438 720 l 2
 732.473632812 630 670.536132812 602 618.536132812 602 c 2
 486.536132812 602 l 1
 495 650 l 1
EndSplineSet
EndChar

StartChar: ohorn
Encoding: 417 417 350
GlifName: ohorn
Width: 545
Flags: HW
AnchorPoint: "top1" 338.374 560 basechar 0
AnchorPoint: "bottom1" 240.631 0 basechar 0
LayerCount: 2
Fore
SplineSet
84 209 m 0
 84 380 193 510 337 510 c 0
 463 510 545 425 545 294 c 0
 545 123 435 -8 292 -8 c 0
 166 -8 84 77 84 209 c 0
493 296 m 0
 493 400 434 460 332 460 c 0
 227 460 137 356 137 207 c 0
 137 102 196 42 298 42 c 0
 402 42 493 147 493 296 c 0
407 500 m 1
 488 500 l 2
 527.666992188 500 560.46875 514 571.401367188 576 c 2
 575.985351562 602 l 1
 625.985351562 602 l 1
 620.342773438 570 l 2
 604.473632812 480 542.536132812 452 490.536132812 452 c 2
 398.536132812 452 l 1
 407 500 l 1
EndSplineSet
EndChar

StartChar: hookabovecomb
Encoding: 777 777 353
GlifName: hookabovecomb
Width: 300
Flags: HW
AnchorPoint: "top1" 244.163 500 mark 0
LayerCount: 2
Fore
SplineSet
214.163085938 500 m 1
 218.69921875 525.725585938 232.338867188 541.659179688 277.927734375 574.494140625 c 0
 305.446289062 594.313476562 314.708007812 605.171875 317.474609375 620.858398438 c 0
 321.260742188 642.33203125 306.25 656 278.8828125 656 c 0
 250.072265625 656 227.125976562 640.533203125 215.088867188 613 c 1
 167.088867188 613 l 1
 187.881949518 664.336914062 230.578699139 695 281.267578125 695 c 0
 339.442664395 695 371.813333006 664.46484375 362.959960938 617.94140625 c 0
 358.112304688 588.325733818 347.471679688 574.203747514 310.37109375 548.143554688 c 4
 281.290039062 530.963014214 270.947265625 519.439135727 267.163085938 500 c 1
 214.163085938 500 l 1
EndSplineSet
EndChar

StartChar: dotbelowcomb
Encoding: 803 803 354
GlifName: dotbelowcomb
Width: 300
Flags: HW
AnchorPoint: "bottom1" 150 0 mark 0
LayerCount: 2
Fore
SplineSet
106.127929688 -73 m 1
 170.127929688 -73 l 1
 157.78515625 -143 l 1
 93.78515625 -143 l 1
 106.127929688 -73 l 1
EndSplineSet
Substitution2: "'ss03' Style Set 3 in Latin lookup 2-1" dotbelowcomb.ss03
EndChar

StartChar: exclamdown.ss03
Encoding: 65553 -1 445
GlifName: exclamdown.ss03
Width: 160
Flags: HW
LayerCount: 2
Fore
SplineSet
202 468 m 0
 202 445 183 426 160 426 c 0
 137 426 118 445 118 468 c 0
 118 491 137 510 160 510 c 0
 183 510 202 491 202 468 c 0
121.78515625 359 m 1
 163.78515625 359 l 1
 78.3876953125 -148 l 1
 28.3876953125 -148 l 1
 121.78515625 359 l 1
EndSplineSet
EndChar

StartChar: periodcentered.ss03
Encoding: 65554 -1 446
GlifName: periodcentered.ss03
Width: 160
Flags: HW
LayerCount: 2
Fore
SplineSet
38 319 m 0
 38 342 57 361 80 361 c 0
 103 361 122 342 122 319 c 0
 122 296 103 277 80 277 c 0
 57 277 38 296 38 319 c 0
EndSplineSet
EndChar

StartChar: questiondown.ss03
Encoding: 65555 -1 447
GlifName: questiondown.ss03
Width: 517
Flags: HW
LayerCount: 2
Fore
SplineSet
377 469 m 4
 377 446 358 427 335 427 c 4
 312 427 293 446 293 469 c 4
 293 492 312 511 335 511 c 4
 358 511 377 492 377 469 c 4
345.78515625 360 m 5
 327.635896005 257.071744418 259.568774422 209.500521141 199.989257812 163 c 4
 147.852743579 122.308580864 102.215820312 82.4368585269 102.215820312 7.0078125 c 4
 102.215820312 -64.9615332781 152.53519293 -105 243.79296875 -105 c 4
 335.79296875 -105 407.020507812 -47 427.065429688 44 c 5
 480.065429688 44 l 5
 452.082486178 -74 361.663478518 -155 241.9765625 -155 c 4
 122.222230295 -155 48.7392578125 -94.307015337 48.7392578125 1.1865234375 c 4
 48.7392578125 106.247754178 112.470417142 154.59843507 174.97265625 203 c 4
 228.759498272 244.652384997 282.746313896 284.828589287 295.78515625 360 c 5
 345.78515625 360 l 5
EndSplineSet
EndChar

StartChar: divide.ss03
Encoding: 65556 -1 448
GlifName: divide.ss03
Width: 462
Flags: HW
LayerCount: 2
Fore
SplineSet
279.161132812 475 m 0
 279.161132812 498 298.161132812 517 321.161132812 517 c 0
 344.161132812 517 363.161132812 498 363.161132812 475 c 0
 363.161132812 452 344.161132812 433 321.161132812 433 c 0
 298.161132812 433 279.161132812 452 279.161132812 475 c 0
207.161132812 62 m 0
 207.161132812 85 226.161132812 104 249.161132812 104 c 0
 272.161132812 104 291.161132812 85 291.161132812 62 c 0
 291.161132812 39 272.161132812 20 249.161132812 20 c 0
 226.161132812 20 207.161132812 39 207.161132812 62 c 0
87.8984375 300 m 1
 479.8984375 300 l 1
 471.434570312 252 l 1
 79.4345703125 252 l 1
 87.8984375 300 l 1
EndSplineSet
Substitution2: "'tnum' Tabular Numbers in Latin lookup 11-1" divide.ss03.tabl
EndChar

StartChar: uni0307.ss03
Encoding: 65557 -1 449
GlifName: uni0307.ss03
Width: 300
Flags: HW
AnchorPoint: "top1" 156 500 mark 0
LayerCount: 2
Fore
SplineSet
113 536 m 4
 113 559 132 578 155 578 c 4
 178 578 197 559 197 536 c 4
 197 513 178 494 155 494 c 4
 132 494 113 513 113 536 c 4
EndSplineSet
EndChar

StartChar: uni0308.ss03
Encoding: 65558 -1 450
GlifName: uni0308.ss03
Width: 300
Flags: HW
AnchorPoint: "top1" 156 500 mark 0
LayerCount: 2
Fore
SplineSet
9 536 m 0
 9 559 28 578 51 578 c 0
 74 578 93 559 93 536 c 0
 93 513 74 494 51 494 c 0
 28 494 9 513 9 536 c 0
206 536 m 0
 206 559 225 578 248 578 c 0
 271 578 290 559 290 536 c 0
 290 513 271 494 248 494 c 0
 225 494 206 513 206 536 c 0
EndSplineSet
EndChar

StartChar: uni0312.ss03
Encoding: 65559 -1 451
GlifName: uni0312.ss03
Width: 300
Flags: HW
AnchorPoint: "top1" 156 500 mark 0
LayerCount: 2
Fore
SplineSet
208 542 m 4
 208 519 189 500 166 500 c 4
 143 500 124 519 124 542 c 6
 124 593 l 6
 124 659.564102564 161 681 194 681 c 6
 206 681 l 5
 206 657 l 5
 195 657 l 6
 166 657 144 644.166666667 144 587 c 6
 144 578 l 5
 150 582 158 584 166 584 c 4
 189 584 208 565 208 542 c 4
EndSplineSet
EndChar

StartChar: uni0313.ss03
Encoding: 65560 -1 452
GlifName: uni0313.ss03
Width: 300
Flags: HW
AnchorPoint: "top1" 156 500 mark 0
LayerCount: 2
Fore
SplineSet
124 639 m 4
 124 662 143 681 166 681 c 4
 189 681 208 662 208 639 c 6
 208 588 l 6
 208 521.435897436 171 500 138 500 c 6
 126 500 l 5
 126 524 l 5
 137 524 l 6
 166 524 188 536.833333333 188 594 c 6
 188 603 l 5
 182 599 174 597 166 597 c 4
 143 597 124 616 124 639 c 4
EndSplineSet
EndChar

StartChar: dotbelowcomb.ss03
Encoding: 65561 -1 453
GlifName: dotbelowcomb.ss03
Width: 300
Flags: HW
AnchorPoint: "bottom1" 150 0 mark 0
LayerCount: 2
Fore
SplineSet
84 -108 m 4
 84 -85 103 -66 126 -66 c 4
 149 -66 168 -85 168 -108 c 4
 168 -131 149 -150 126 -150 c 4
 103 -150 84 -131 84 -108 c 4
EndSplineSet
EndChar

StartChar: uni0326.ss03
Encoding: 65562 -1 454
GlifName: uni0326.ss03
Width: 300
Flags: HW
AnchorPoint: "bottom1" 160 0 mark 0
LayerCount: 2
Fore
SplineSet
118 -80 m 0
 118 -57 137 -38 160 -38 c 0
 183 -38 202 -57 202 -80 c 2
 202 -131 l 2
 202 -197.564102564 165 -219 132 -219 c 2
 120 -219 l 1
 120 -195 l 1
 131 -195 l 2
 160 -195 182 -182.166666667 182 -125 c 2
 182 -116 l 1
 176 -120 168 -122 160 -122 c 0
 137 -122 118 -103 118 -80 c 0
EndSplineSet
EndChar

StartChar: ellipsis.ss03
Encoding: 65563 -1 455
GlifName: ellipsis.ss03
Width: 480
Flags: HW
LayerCount: 2
Fore
SplineSet
364 34 m 4
 364 57 383 76 406 76 c 4
 429 76 448 57 448 34 c 4
 448 11 429 -8 406 -8 c 4
 383 -8 364 11 364 34 c 4
204 34 m 4
 204 57 223 76 246 76 c 4
 269 76 288 57 288 34 c 4
 288 11 269 -8 246 -8 c 4
 223 -8 204 11 204 34 c 4
44 34 m 4
 44 57 63 76 86 76 c 4
 109 76 128 57 128 34 c 4
 128 11 109 -8 86 -8 c 4
 63 -8 44 11 44 34 c 4
EndSplineSet
EndChar

StartChar: quoteleft.ss03
Encoding: 65564 -1 456
GlifName: quoteleft.ss03
Width: 160
Flags: HW
LayerCount: 2
Fore
SplineSet
212.334960938 535 m 0
 208.279296875 512 185.9296875 493 162.9296875 493 c 0
 139.9296875 493 124.279296875 512 128.334960938 535 c 2
 137.327148438 586 l 2
 152.532226562 672.23046875 199.71484375 700 237.428710938 700 c 2
 249.428710938 700 l 1
 243.43359375 666 l 1
 232.43359375 666 l 2
 201.159179688 666 174.71875 650.599609375 162.622070312 582 c 2
 161.03515625 573 l 1
 165.869140625 575.666992188 171.922851562 577 177.740234375 577 c 0
 200.740234375 577 216.390625 558 212.334960938 535 c 0
EndSplineSet
EndChar

StartChar: quoteright.ss03
Encoding: 65565 -1 457
GlifName: quoteright.ss03
Width: 160
Flags: HW
LayerCount: 2
Fore
SplineSet
158.0234375 658 m 4
 162.079101562 681 184.428710938 700 207.428710938 700 c 4
 230.428710938 700 246.079101562 681 242.0234375 658 c 6
 233.030273438 607 l 6
 217.825195312 520.76953125 170.643554688 493 132.9296875 493 c 6
 120.9296875 493 l 5
 126.924804688 527 l 5
 137.924804688 527 l 6
 169.19921875 527 195.639648438 542.400390625 207.735351562 611 c 6
 209.322265625 620 l 5
 204.489257812 617.333007812 198.435546875 616 192.6171875 616 c 4
 169.6171875 616 153.967773438 635 158.0234375 658 c 4
EndSplineSet
EndChar

StartChar: quotesinglbase.ss03
Encoding: 65566 -1 458
GlifName: quotesinglbase.ss03
Width: 160
Flags: HW
LayerCount: 2
Fore
SplineSet
49.4052734375 42 m 0
 53.4609375 65 75.8115234375 84 98.8115234375 84 c 0
 121.811523438 84 137.4609375 65 133.405273438 42 c 2
 124.413085938 -9 l 2
 109.208007812 -95.23046875 62.0263671875 -123 24.3115234375 -123 c 2
 12.3115234375 -123 l 1
 18.306640625 -89 l 1
 29.306640625 -89 l 2
 60.5810546875 -89 87.0224609375 -73.599609375 99.1181640625 -5 c 2
 100.705078125 4 l 1
 95.87109375 1.3330078125 89.818359375 0 84 0 c 0
 61 0 45.3505859375 19 49.4052734375 42 c 0
EndSplineSet
EndChar

StartChar: quotereversed.ss03
Encoding: 65567 -1 459
GlifName: quotereversed.ss03
Width: 160
Flags: HW
LayerCount: 2
Fore
SplineSet
234.0234375 658 m 4
 229.967773438 635 207.6171875 616 184.6171875 616 c 4
 178.798828125 616 173.215820312 617.333007812 169.322265625 620 c 5
 167.735351562 611 l 6
 155.639648438 542.400390625 176.650390625 527 207.924804688 527 c 6
 218.924804688 527 l 5
 212.9296875 493 l 5
 200.9296875 493 l 6
 163.215820312 493 125.826171875 520.76953125 141.030273438 607 c 6
 150.0234375 658 l 6
 154.079101562 681 176.428710938 700 199.428710938 700 c 4
 222.428710938 700 238.079101562 681 234.0234375 658 c 4
EndSplineSet
EndChar

StartChar: quotedblleft.ss03
Encoding: 65568 -1 460
GlifName: quotedblleft.ss03
Width: 270
Flags: HW
LayerCount: 2
Fore
SplineSet
322.334960938 535 m 4
 318.279296875 512 295.9296875 493 272.9296875 493 c 4
 249.9296875 493 234.279296875 512 238.334960938 535 c 6
 247.327148438 586 l 6
 262.532226562 672.23046875 309.71484375 700 347.428710938 700 c 6
 359.428710938 700 l 5
 353.43359375 666 l 5
 342.43359375 666 l 6
 311.159179688 666 284.71875 650.599609375 272.622070312 582 c 6
 271.03515625 573 l 5
 275.869140625 575.666992188 281.922851562 577 287.740234375 577 c 4
 310.740234375 577 326.390625 558 322.334960938 535 c 4
212.334960938 535 m 4
 208.279296875 512 185.9296875 493 162.9296875 493 c 4
 139.9296875 493 124.279296875 512 128.334960938 535 c 6
 137.327148438 586 l 6
 152.532226562 672.23046875 199.71484375 700 237.428710938 700 c 6
 249.428710938 700 l 5
 243.43359375 666 l 5
 232.43359375 666 l 6
 201.159179688 666 174.71875 650.599609375 162.622070312 582 c 6
 161.03515625 573 l 5
 165.869140625 575.666992188 171.922851562 577 177.740234375 577 c 4
 200.740234375 577 216.390625 558 212.334960938 535 c 4
EndSplineSet
EndChar

StartChar: quotedblright.ss03
Encoding: 65569 -1 461
GlifName: quotedblright.ss03
Width: 270
Flags: HW
LayerCount: 2
Fore
SplineSet
158.0234375 658 m 4
 162.079101562 681 184.428710938 700 207.428710938 700 c 4
 230.428710938 700 246.079101562 681 242.0234375 658 c 6
 233.030273438 607 l 6
 217.825195312 520.76953125 170.643554688 493 132.9296875 493 c 6
 120.9296875 493 l 5
 126.924804688 527 l 5
 137.924804688 527 l 6
 169.19921875 527 195.639648438 542.400390625 207.735351562 611 c 6
 209.322265625 620 l 5
 204.489257812 617.333007812 198.435546875 616 192.6171875 616 c 4
 169.6171875 616 153.967773438 635 158.0234375 658 c 4
268.0234375 658 m 4
 272.079101562 681 294.428710938 700 317.428710938 700 c 4
 340.428710938 700 356.079101562 681 352.0234375 658 c 6
 343.030273438 607 l 6
 327.825195312 520.76953125 280.643554688 493 242.9296875 493 c 6
 230.9296875 493 l 5
 236.924804688 527 l 5
 247.924804688 527 l 6
 279.19921875 527 305.639648438 542.400390625 317.735351562 611 c 6
 319.322265625 620 l 5
 314.489257812 617.333007812 308.435546875 616 302.6171875 616 c 4
 279.6171875 616 263.967773438 635 268.0234375 658 c 4
EndSplineSet
EndChar

StartChar: quotedblbase.ss03
Encoding: 65570 -1 462
GlifName: quotedblbase.ss03
Width: 270
Flags: HW
LayerCount: 2
Fore
SplineSet
49.4052734375 42 m 4
 53.4609375 65 75.8115234375 84 98.8115234375 84 c 4
 121.811523438 84 137.4609375 65 133.405273438 42 c 6
 124.413085938 -9 l 6
 109.208007812 -95.23046875 62.0263671875 -123 24.3115234375 -123 c 6
 12.3115234375 -123 l 5
 18.306640625 -89 l 5
 29.306640625 -89 l 6
 60.5810546875 -89 87.0224609375 -73.599609375 99.1181640625 -5 c 6
 100.705078125 4 l 5
 95.87109375 1.3330078125 89.818359375 0 84 0 c 4
 61 0 45.3505859375 19 49.4052734375 42 c 4
159.405273438 42 m 4
 163.4609375 65 185.811523438 84 208.811523438 84 c 4
 231.811523438 84 247.4609375 65 243.405273438 42 c 6
 234.413085938 -9 l 6
 219.208007812 -95.23046875 172.026367188 -123 134.311523438 -123 c 6
 122.311523438 -123 l 5
 128.306640625 -89 l 5
 139.306640625 -89 l 6
 170.581054688 -89 197.022460938 -73.599609375 209.118164062 -5 c 6
 210.705078125 4 l 5
 205.87109375 1.3330078125 199.818359375 0 194 0 c 4
 171 0 155.350585938 19 159.405273438 42 c 4
EndSplineSet
EndChar

StartChar: uni201F.ss03
Encoding: 65571 -1 463
GlifName: uni201F_.ss03
Width: 270
Flags: HW
LayerCount: 2
Fore
SplineSet
344.0234375 658 m 4
 339.967773438 635 317.6171875 616 294.6171875 616 c 4
 288.798828125 616 283.215820312 617.333007812 279.322265625 620 c 5
 277.735351562 611 l 6
 265.639648438 542.400390625 286.650390625 527 317.924804688 527 c 6
 328.924804688 527 l 5
 322.9296875 493 l 5
 310.9296875 493 l 6
 273.215820312 493 235.826171875 520.76953125 251.030273438 607 c 6
 260.0234375 658 l 6
 264.079101562 681 286.428710938 700 309.428710938 700 c 4
 332.428710938 700 348.079101562 681 344.0234375 658 c 4
234.0234375 658 m 4
 229.967773438 635 207.6171875 616 184.6171875 616 c 4
 178.798828125 616 173.215820312 617.333007812 169.322265625 620 c 5
 167.735351562 611 l 6
 155.639648438 542.400390625 176.650390625 527 207.924804688 527 c 6
 218.924804688 527 l 5
 212.9296875 493 l 5
 200.9296875 493 l 6
 163.215820312 493 125.826171875 520.76953125 141.030273438 607 c 6
 150.0234375 658 l 6
 154.079101562 681 176.428710938 700 199.428710938 700 c 4
 222.428710938 700 238.079101562 681 234.0234375 658 c 4
EndSplineSet
EndChar

StartChar: ldot.ss02
Encoding: 65595 -1 487
GlifName: ldot.ss02
Width: 302
Flags: HW
LayerCount: 2
Fore
SplineSet
234.171875 354 m 1
 298.171875 354 l 1
 285.828125 284 l 1
 221.828125 284 l 1
 234.171875 354 l 1
EndSplineSet
Refer: 74 -1 N 1 0 0 1 0 0 2
Substitution2: "'ss03' Style Set 3 in Latin lookup 2-1" ldot.ss02.ss03
EndChar

StartChar: lslash.ss02
Encoding: 65596 -1 488
GlifName: lslash.ss02
Width: 228
Flags: HW
LayerCount: 2
Fore
SplineSet
224.463867188 48 m 1
 216 0 l 1
 204 0 l 2
 147 0 89.9375 28 105.806640625 118 c 2
 208.428710938 700 l 1
 258.428710938 700 l 1
 156.864257812 124 l 2
 145.932617188 62 174.463867188 48 213.463867188 48 c 2
 224.463867188 48 l 1
61.890625 351 m 1
 297.649414062 395 l 1
 289.185546875 347 l 1
 53.4267578125 303 l 1
 61.890625 351 l 1
EndSplineSet
EndChar

StartChar: dotlessi.ss03
Encoding: 65647 -1 539
GlifName: dotlessi.ss03
Width: 160
Flags: HW
AnchorPoint: "top1" 80 560 basechar 0
AnchorPoint: "bottom1" 81 0 basechar 0
LayerCount: 2
Fore
SplineSet
55 500 m 5
 105 500 l 5
 105 0 l 5
 55 0 l 5
 55 500 l 5
EndSplineSet
EndChar

StartChar: adieresis.ss01.ss03
Encoding: 65657 -1 549
GlifName: adieresis.ss01.ss03
Width: 552
Flags: HW
LayerCount: 2
Fore
SplineSet
231 595 m 4
 231 618 250 637 273 637 c 4
 296 637 315 618 315 595 c 4
 315 572 296 553 273 553 c 4
 250 553 231 572 231 595 c 4
428 595 m 4
 428 618 447 637 470 637 c 4
 493 637 512 618 512 595 c 4
 512 572 493 553 470 553 c 4
 447 553 428 572 428 595 c 4
EndSplineSet
Refer: 73 -1 N 1 0 0 1 0 0 3
Decomposition: "a+AwgA"
EndChar

StartChar: uni1EA1.ss01.ss03
Encoding: 65658 -1 550
GlifName: uni1E_A_1.ss01.ss03
Width: 552
Flags: HW
AnchorPoint: "top1" 390.485 560 basechar 0
LayerCount: 2
Fore
SplineSet
231 -108 m 0
 231 -85 250 -66 273 -66 c 0
 296 -66 315 -85 315 -108 c 0
 315 -131 296 -150 273 -150 c 0
 250 -150 231 -131 231 -108 c 0
EndSplineSet
Refer: 73 -1 N 1 0 0 1 0 0 3
Decomposition: "a+AyMA"
EndChar

StartChar: ldot.ss02.ss03
Encoding: 65661 -1 553
GlifName: ldot.ss02.ss03
Width: 340
Flags: HW
LayerCount: 2
Fore
SplineSet
264.248046875 319 m 0
 268.303710938 342 290.654296875 361 313.654296875 361 c 0
 336.654296875 361 352.303710938 342 348.248046875 319 c 0
 344.192382812 296 321.842773438 277 298.842773438 277 c 0
 275.842773438 277 260.192382812 296 264.248046875 319 c 0
194.463867188 48 m 1
 186 0 l 1
 174 0 l 2
 117 0 59.9375 28 75.806640625 118 c 2
 178.428710938 700 l 1
 228.428710938 700 l 1
 126.864257812 124 l 2
 115.932617188 62 144.463867188 48 183.463867188 48 c 2
 194.463867188 48 l 1
EndSplineSet
EndChar

StartChar: tbar.ss08
Encoding: 65679 -1 571
GlifName: tbar.ss08
Width: 312
Flags: HW
LayerCount: 2
Fore
SplineSet
87.8984375 300 m 1
 329.8984375 300 l 1
 321.434570312 252 l 1
 79.4345703125 252 l 1
 87.8984375 300 l 1
123.163085938 500 m 1
 365.163085938 500 l 1
 356.700195312 452 l 1
 114.700195312 452 l 1
 123.163085938 500 l 1
131 0 m 1
 242.0859375 630 l 1
 292.0859375 630 l 1
 181 0 l 1
 131 0 l 1
EndSplineSet
EndChar

StartChar: Gdotaccent.ss04.ss03
Encoding: 65698 -1 590
GlifName: G_dotaccent.ss04.ss03
Width: 647
Flags: HW
LayerCount: 2
Fore
SplineSet
409 735 m 4
 409 758 428 777 451 777 c 4
 474 777 493 758 493 735 c 4
 493 712 474 693 451 693 c 4
 428 693 409 712 409 735 c 4
EndSplineSet
Refer: 77 -1 N 1 0 0 1 0 0 3
EndChar

StartChar: uni0122.ss04.ss03
Encoding: 65699 -1 591
GlifName: uni0122.ss04.ss03
Width: 647
Flags: HW
LayerCount: 2
Fore
SplineSet
298 -80 m 4
 298 -57 317 -38 340 -38 c 4
 363 -38 382 -57 382 -80 c 6
 382 -131 l 6
 382 -197.564102564 345 -219 312 -219 c 6
 300 -219 l 5
 300 -195 l 5
 311 -195 l 6
 340 -195 362 -182.166666667 362 -125 c 6
 362 -116 l 5
 356 -120 348 -122 340 -122 c 4
 317 -122 298 -103 298 -80 c 4
EndSplineSet
Refer: 77 -1 N 1 0 0 1 0 0 3
EndChar

StartChar: uni0156.ss05.ss03
Encoding: 65700 -1 592
GlifName: uni0156.ss05.ss03
Width: 559
Flags: HW
LayerCount: 2
Fore
SplineSet
251 -80 m 0
 251 -57 270 -38 293 -38 c 0
 316 -38 335 -57 335 -80 c 2
 335 -131 l 2
 335 -197.564102564 298 -219 265 -219 c 2
 253 -219 l 1
 253 -195 l 1
 264 -195 l 2
 293 -195 315 -182.166666667 315 -125 c 2
 315 -116 l 1
 309 -120 301 -122 293 -122 c 0
 270 -122 251 -103 251 -80 c 0
EndSplineSet
Refer: 78 -1 N 1 0 0 1 0 0 3
EndChar

StartChar: ydieresis.ss07.ss03
Encoding: 65701 -1 593
GlifName: ydieresis.ss07.ss03
Width: 531
Flags: HW
LayerCount: 2
Fore
SplineSet
209 595 m 4
 209 618 228 637 251 637 c 4
 274 637 293 618 293 595 c 4
 293 572 274 553 251 553 c 4
 228 553 209 572 209 595 c 4
406 595 m 4
 406 618 425 637 448 637 c 4
 471 637 490 618 490 595 c 4
 490 572 471 553 448 553 c 4
 425 553 406 572 406 595 c 4
EndSplineSet
Refer: 80 -1 N 1 0 0 1 0 0 3
EndChar

StartChar: uni1EF5.ss07.ss03
Encoding: 65702 -1 594
GlifName: uni1E_F_5.ss07.ss03
Width: 531
Flags: HW
LayerCount: 2
Fore
SplineSet
322 -108 m 4
 322 -85 341 -66 364 -66 c 4
 387 -66 406 -85 406 -108 c 4
 406 -131 387 -150 364 -150 c 4
 341 -150 322 -131 322 -108 c 4
EndSplineSet
Refer: 80 -1 N 1 0 0 1 0 0 3
EndChar

StartChar: udieresis.ss10.ss03
Encoding: 65703 -1 595
GlifName: udieresis.ss10.ss03
Width: 502
Flags: HW
LayerCount: 2
Fore
SplineSet
199 595 m 4
 199 618 218 637 241 637 c 4
 264 637 283 618 283 595 c 4
 283 572 264 553 241 553 c 4
 218 553 199 572 199 595 c 4
396 595 m 4
 396 618 415 637 438 637 c 4
 461 637 480 618 480 595 c 4
 480 572 461 553 438 553 c 4
 415 553 396 572 396 595 c 4
EndSplineSet
Refer: 105 -1 N 1 0 0 1 0 0 3
EndChar

StartChar: uni1EE5.ss10.ss03
Encoding: 65704 -1 596
GlifName: uni1E_E_5.ss10.ss03
Width: 502
Flags: HW
LayerCount: 2
Fore
SplineSet
210 -108 m 4
 210 -85 229 -66 252 -66 c 4
 275 -66 294 -85 294 -108 c 4
 294 -131 275 -150 252 -150 c 4
 229 -150 210 -131 210 -108 c 4
EndSplineSet
Refer: 105 -1 N 1 0 0 1 0 0 3
EndChar

StartChar: uni1EF1.ss10.ss03
Encoding: 65705 -1 597
GlifName: uni1E_F_1.ss10.ss03
Width: 558
Flags: HW
LayerCount: 2
Fore
SplineSet
210 -108 m 0
 210 -85 229 -66 252 -66 c 0
 275 -66 294 -85 294 -108 c 0
 294 -131 275 -150 252 -150 c 0
 229 -150 210 -131 210 -108 c 0
EndSplineSet
Refer: 582 -1 N 1 0 0 1 0 0 3
EndChar

StartChar: Gdotaccent.ss03.ss04
Encoding: 65706 -1 598
GlifName: G_dotaccent.ss03.ss04
Width: 647
Flags: HW
LayerCount: 2
Fore
SplineSet
409 735 m 4
 409 758 428 777 451 777 c 4
 474 777 493 758 493 735 c 4
 493 712 474 693 451 693 c 4
 428 693 409 712 409 735 c 4
EndSplineSet
Refer: 77 -1 N 1 0 0 1 0 0 3
Decomposition: "G+AwcA"
EndChar

StartChar: uni0122.ss03.ss04
Encoding: 65707 -1 599
GlifName: uni0122.ss03.ss04
Width: 647
Flags: HW
LayerCount: 2
Fore
SplineSet
298 -80 m 4
 298 -57 317 -38 340 -38 c 4
 363 -38 382 -57 382 -80 c 6
 382 -131 l 6
 382 -197.564102564 345 -219 312 -219 c 6
 300 -219 l 5
 300 -195 l 5
 311 -195 l 6
 340 -195 362 -182.166666667 362 -125 c 6
 362 -116 l 5
 356 -120 348 -122 340 -122 c 4
 317 -122 298 -103 298 -80 c 4
EndSplineSet
Refer: 77 -1 N 1 0 0 1 0 0 3
EndChar

StartChar: uni0156.ss03.ss05
Encoding: 65708 -1 600
GlifName: uni0156.ss03.ss05
Width: 559
Flags: HW
LayerCount: 2
Fore
SplineSet
251 -80 m 0
 251 -57 270 -38 293 -38 c 0
 316 -38 335 -57 335 -80 c 2
 335 -131 l 2
 335 -197.564102564 298 -219 265 -219 c 2
 253 -219 l 1
 253 -195 l 1
 264 -195 l 2
 293 -195 315 -182.166666667 315 -125 c 2
 315 -116 l 1
 309 -120 301 -122 293 -122 c 0
 270 -122 251 -103 251 -80 c 0
EndSplineSet
Refer: 78 -1 N 1 0 0 1 0 0 3
EndChar

StartChar: uni1EF5.ss03.ss07
Encoding: 65709 -1 601
GlifName: uni1E_F_5.ss03.ss07
Width: 531
Flags: HW
LayerCount: 2
Fore
SplineSet
322 -108 m 4
 322 -85 341 -66 364 -66 c 4
 387 -66 406 -85 406 -108 c 4
 406 -131 387 -150 364 -150 c 4
 341 -150 322 -131 322 -108 c 4
EndSplineSet
Refer: 80 -1 N 1 0 0 1 0 0 3
EndChar

StartChar: ydieresis.ss03.ss07
Encoding: 65710 -1 602
GlifName: ydieresis.ss03.ss07
Width: 531
Flags: HW
LayerCount: 2
Fore
SplineSet
209 595 m 4
 209 618 228 637 251 637 c 4
 274 637 293 618 293 595 c 4
 293 572 274 553 251 553 c 4
 228 553 209 572 209 595 c 4
406 595 m 4
 406 618 425 637 448 637 c 4
 471 637 490 618 490 595 c 4
 490 572 471 553 448 553 c 4
 425 553 406 572 406 595 c 4
EndSplineSet
Refer: 80 -1 N 1 0 0 1 0 0 3
EndChar

StartChar: udieresis.ss03.ss10
Encoding: 65711 -1 603
GlifName: udieresis.ss03.ss10
Width: 502
Flags: HW
LayerCount: 2
Fore
SplineSet
199 595 m 4
 199 618 218 637 241 637 c 4
 264 637 283 618 283 595 c 4
 283 572 264 553 241 553 c 4
 218 553 199 572 199 595 c 4
396 595 m 4
 396 618 415 637 438 637 c 4
 461 637 480 618 480 595 c 4
 480 572 461 553 438 553 c 4
 415 553 396 572 396 595 c 4
EndSplineSet
Refer: 105 -1 N 1 0 0 1 0 0 3
EndChar

StartChar: uni1EE5.ss03.ss10
Encoding: 65712 -1 604
GlifName: uni1E_E_5.ss03.ss10
Width: 502
Flags: HW
LayerCount: 2
Fore
SplineSet
210 -108 m 0
 210 -85 229 -66 252 -66 c 0
 275 -66 294 -85 294 -108 c 0
 294 -131 275 -150 252 -150 c 0
 229 -150 210 -131 210 -108 c 0
EndSplineSet
Refer: 105 -1 N 1 0 0 1 0 0 3
EndChar

StartChar: uni1EF1.ss03.ss10
Encoding: 65713 -1 605
GlifName: uni1E_F_1.ss03.ss10
Width: 558
Flags: HW
LayerCount: 2
Fore
SplineSet
210 -108 m 0
 210 -85 229 -66 252 -66 c 0
 275 -66 294 -85 294 -108 c 0
 294 -131 275 -150 252 -150 c 0
 229 -150 210 -131 210 -108 c 0
EndSplineSet
Refer: 582 -1 N 1 0 0 1 0 0 3
EndChar

StartChar: zero.slsh
Encoding: 65714 -1 606
GlifName: zero.slsh
Width: 545
Flags: HW
LayerCount: 2
Fore
SplineSet
516.213867188 557 m 1
 546.924804688 517 l 1
 144.80859375 101 l 1
 114.098632812 141 l 5
 516.213867188 557 l 1
92 231 m 0
 92 471 213 660 367 660 c 0
 491 660 563 570 563 413 c 0
 563 170 448 -8 292 -8 c 0
 165 -8 92 79 92 231 c 0
511 421 m 0
 511 546 461 610 362 610 c 0
 238 610 144 444 144 225 c 0
 144 105 196 42 297 42 c 0
 422 42 511 199 511 421 c 0
EndSplineSet
Substitution2: "'tnum' Tabular Numbers in Latin lookup 11-1" zero.slsh.tabl
EndChar

StartChar: zero.tabl
Encoding: 65715 -1 607
GlifName: zero.tabl
Width: 545
Flags: HW
LayerCount: 2
Fore
SplineSet
92 231 m 4
 92 471 213 660 367 660 c 4
 491 660 563 570 563 413 c 4
 563 170 448 -8 292 -8 c 4
 165 -8 92 79 92 231 c 4
511 421 m 4
 511 546 461 610 362 610 c 4
 238 610 144 444 144 225 c 4
 144 105 196 42 297 42 c 4
 422 42 511 199 511 421 c 4
EndSplineSet
Substitution2: "'zero' Slashed Zero in Latin lookup 10-1" zero.tabl.slsh
EndChar

StartChar: one.tabl
Encoding: 65716 -1 608
GlifName: one.tabl
Width: 545
Flags: HW
LayerCount: 2
Fore
SplineSet
369.612304688 650 m 1
 419.612304688 650 l 1
 313.463867188 48 l 1
 476.463867188 48 l 1
 468 0 l 1
 76 0 l 1
 84.4638671875 48 l 1
 263.463867188 48 l 1
 343.163085938 500 l 1
 187.163085938 500 l 1
 194.745117188 543 l 1
 270.745117188 543 l 2
 322.745117188 543 353.390625 558 362.559570312 610 c 2
 369.612304688 650 l 1
EndSplineSet
EndChar

StartChar: two.tabl
Encoding: 65717 -1 609
GlifName: two.tabl
Width: 545
Flags: HW
LayerCount: 2
Fore
SplineSet
124 48 m 1
 492 48 l 1
 483 0 l 1
 58 0 l 1
 60 14 l 2
 77 132 151 199 323 273 c 0
 472 338 514 383 514 476 c 0
 514 557 454 608 358 608 c 0
 288 608 213 560 194 476 c 1
 141 476 l 1
 167 585 249 658 363 658 c 0
 485 658 567 585 567 477 c 0
 567 368 508 301 348 231 c 0
 190 161 136 114 124 48 c 1
EndSplineSet
EndChar

StartChar: three.tabl
Encoding: 65718 -1 610
GlifName: three.tabl
Width: 545
Flags: HW
LayerCount: 2
Fore
SplineSet
411 352 m 1
 402 302 l 1
 283 302 l 1
 292 352 l 1
 411 352 l 1
354 312 m 1
 361 352 l 1
 449 352 509 413 509 503 c 0
 509 570 462 608 378 608 c 0
 290 608 223 557 206 476 c 1
 153 476 l 1
 180 584 266 658 382 658 c 0
 493 658 562 599 562 505 c 0
 562 394 473 312 354 312 c 1
359 342 m 1
 458 342 520 286 520 196 c 0
 520 80 417 -8 281 -8 c 0
 159 -8 87 58 87 170 c 1
 140 170 l 1
 140 87 190 42 284 42 c 0
 396 42 466 105 466 205 c 0
 466 267 426 302 352 302 c 1
 359 342 l 1
EndSplineSet
EndChar

StartChar: four.tabl
Encoding: 65719 -1 611
GlifName: four.tabl
Width: 545
Flags: HW
LayerCount: 2
Fore
SplineSet
436 172 m 1
 406 0 l 1
 356 0 l 1
 386 172 l 1
 67 172 l 1
 77 229 l 1
 458 650 l 1
 520 650 l 1
 444 219 l 1
 547 219 l 1
 539 172 l 1
 436 172 l 1
394 219 m 1
 459 588 l 1
 130 219 l 5
 394 219 l 1
EndSplineSet
EndChar

StartChar: five.tabl
Encoding: 65720 -1 612
GlifName: five.tabl
Width: 545
Flags: HW
LayerCount: 2
Fore
SplineSet
474 257 m 0
 474 128 395 42 277 42 c 0
 187 42 140 84 140 164 c 1
 87 164 l 1
 87 57 159 -8 279 -8 c 0
 421 -8 527 106 527 256 c 0
 527 368 459 437 350 437 c 0
 283 437 221 413 175 371 c 1
 240 603 l 1
 568 603 l 1
 577 651 l 1
 203 651 l 1
 112 309 l 1
 161 309 l 1
 201 359 263 387 334 387 c 0
 423 387 474 340 474 257 c 0
EndSplineSet
EndChar

StartChar: six.tabl
Encoding: 65721 -1 613
GlifName: six.tabl
Width: 545
Flags: HW
LayerCount: 2
Fore
SplineSet
98 225 m 0
 98 485 220 660 403 660 c 0
 511 660 576 595 576 489 c 1
 523 489 l 1
 523 566 479 610 399 610 c 0
 272 610 194 517 160 327 c 0
 158 318 157 310 156 293 c 1
 199 375 279 426 361 426 c 0
 468 426 538 353 538 243 c 0
 538 107 429 -8 301 -8 c 0
 177 -8 98 83 98 225 c 0
158 178 m 0
 158 98 216 43 299 43 c 0
 403 43 484 132 484 248 c 0
 484 327 436 375 358 375 c 0
 247 375 158 288 158 178 c 0
EndSplineSet
EndChar

StartChar: seven.tabl
Encoding: 65722 -1 614
GlifName: seven.tabl
Width: 545
Flags: HW
LayerCount: 2
Fore
SplineSet
252 0 m 5
 311 295 438 432 603 592 c 1
 613 650 l 1
 161 650 l 1
 153 602 l 1
 554 602 l 1
 409 458 272 343 196 0 c 5
 252 0 l 5
EndSplineSet
EndChar

StartChar: eight.tabl
Encoding: 65723 -1 615
GlifName: eight.tabl
Width: 545
Flags: HW
LayerCount: 2
Fore
SplineSet
426 328 m 1
 486 305 519 256 519 192 c 0
 519 78 417 -8 281 -8 c 0
 161 -8 86 52 86 148 c 0
 86 231 144 300 235 328 c 1
 187 352 160 397 160 456 c 0
 160 570 256 658 378 658 c 0
 486 658 554 599 554 504 c 0
 554 425 505 357 426 328 c 1
341 352 m 2
 437 352 500 414 500 508 c 0
 500 572 453 608 369 608 c 0
 276 608 214 545 214 449 c 0
 214 387 254 352 328 352 c 2
 341 352 l 2
332 302 m 6
 319 302 l 6
 211 302 140 239 140 144 c 0
 140 78 193 42 289 42 c 0
 397 42 466 103 466 199 c 0
 466 265 418 302 332 302 c 6
EndSplineSet
EndChar

StartChar: nine.tabl
Encoding: 65724 -1 616
GlifName: nine.tabl
Width: 545
Flags: HW
LayerCount: 2
Fore
SplineSet
562 427 m 4
 562 167 440 -8 257 -8 c 4
 150 -8 84 57 84 163 c 5
 137 163 l 5
 137 86 181 42 261 42 c 4
 388 42 466 135 500 325 c 4
 502 334 503 342 504 359 c 5
 461 277 381 226 299 226 c 4
 192 226 122 299 122 409 c 4
 122 545 231 660 359 660 c 4
 483 660 562 569 562 427 c 4
502 474 m 4
 502 554 444 609 361 609 c 4
 257 609 176 520 176 404 c 4
 176 325 224 277 302 277 c 4
 413 277 502 364 502 474 c 4
EndSplineSet
EndChar

StartChar: zero.slsh.tabl
Encoding: 65725 -1 617
GlifName: zero.slsh.tabl
Width: 545
Flags: HW
LayerCount: 2
Fore
SplineSet
516.213867188 557 m 1
 546.924804688 517 l 1
 144.80859375 101 l 1
 114.098632812 141 l 5
 516.213867188 557 l 1
92 231 m 0
 92 471 213 660 367 660 c 0
 491 660 563 570 563 413 c 0
 563 170 448 -8 292 -8 c 0
 165 -8 92 79 92 231 c 0
511 421 m 0
 511 546 461 610 362 610 c 0
 238 610 144 444 144 225 c 0
 144 105 196 42 297 42 c 0
 422 42 511 199 511 421 c 0
EndSplineSet
EndChar

StartChar: plus.tabl
Encoding: 65726 -1 618
GlifName: plus.tabl
Width: 545
Flags: HW
LayerCount: 2
Fore
SplineSet
348.8984375 300 m 5
 562.8984375 300 l 5
 554.434570312 252 l 5
 340.434570312 252 l 5
 302.700195312 38 l 5
 254.700195312 38 l 5
 292.434570312 252 l 5
 78.4345703125 252 l 5
 86.8984375 300 l 5
 300.8984375 300 l 5
 338.631835938 514 l 5
 386.631835938 514 l 5
 348.8984375 300 l 5
EndSplineSet
EndChar

StartChar: hyphen.tabl
Encoding: 65727 -1 619
GlifName: hyphen.tabl
Width: 545
Flags: HW
LayerCount: 2
Fore
SplineSet
128.8984375 300 m 1
 520.8984375 300 l 1
 512.434570312 252 l 1
 120.434570312 252 l 1
 128.8984375 300 l 1
EndSplineSet
EndChar

StartChar: period.tabl
Encoding: 65728 -1 620
GlifName: period.tabl
Width: 545
Flags: HW
LayerCount: 2
Fore
SplineSet
252.342773438 70 m 5
 316.342773438 70 l 5
 304 0 l 5
 240 0 l 5
 252.342773438 70 l 5
EndSplineSet
EndChar

StartChar: slash.tabl
Encoding: 65729 -1 621
GlifName: slash.tabl
Width: 545
Flags: HW
LayerCount: 2
Fore
SplineSet
488.612304688 650 m 1
 548.612304688 650 l 1
 170 0 l 1
 110 0 l 1
 488.612304688 650 l 1
EndSplineSet
EndChar

StartChar: colon.tabl
Encoding: 65730 -1 622
GlifName: colon.tabl
Width: 545
Flags: HW
LayerCount: 2
Fore
SplineSet
324.63671875 480 m 5
 388.63671875 480 l 5
 376.293945312 410 l 5
 312.293945312 410 l 5
 324.63671875 480 l 5
252.342773438 70 m 5
 316.342773438 70 l 5
 304 0 l 5
 240 0 l 5
 252.342773438 70 l 5
EndSplineSet
EndChar

StartChar: multiply.tabl
Encoding: 65731 -1 623
GlifName: multiply.tabl
Width: 545
Flags: HW
LayerCount: 2
Fore
SplineSet
326.661132812 310 m 5
 528.813476562 481 l 1
 556.818359375 447 l 1
 354.666015625 276 l 1
 496.514648438 105 l 1
 456.51953125 71 l 1
 314.670898438 242 l 1
 114.51953125 71 l 1
 86.5146484375 105 l 1
 286.666015625 276 l 1
 146.818359375 447 l 1
 186.813476562 481 l 5
 326.661132812 310 l 5
EndSplineSet
EndChar

StartChar: divide.tabl
Encoding: 65732 -1 624
GlifName: divide.tabl
Width: 545
Flags: HW
LayerCount: 2
Fore
SplineSet
329.397460938 507 m 5
 393.397460938 507 l 5
 381.0546875 437 l 5
 317.0546875 437 l 5
 329.397460938 507 l 5
257.103515625 97 m 5
 321.103515625 97 l 5
 308.760742188 27 l 5
 244.760742188 27 l 5
 257.103515625 97 l 5
128.8984375 300 m 1
 520.8984375 300 l 1
 512.434570312 252 l 1
 120.434570312 252 l 1
 128.8984375 300 l 1
EndSplineSet
EndChar

StartChar: period.ss03.tabl
Encoding: 65733 -1 625
GlifName: period.ss03.tabl
Width: 545
Flags: HW
LayerCount: 2
Fore
SplineSet
235.995117188 34 m 4
 240.05078125 57 262.400390625 76 285.400390625 76 c 4
 308.400390625 76 324.05078125 57 319.995117188 34 c 4
 315.939453125 11 293.58984375 -8 270.58984375 -8 c 4
 247.58984375 -8 231.939453125 11 235.995117188 34 c 4
EndSplineSet
EndChar

StartChar: colon.ss03.tabl
Encoding: 65734 -1 626
GlifName: colon.ss03.tabl
Width: 545
Flags: HW
LayerCount: 2
Fore
SplineSet
300.58984375 447 m 0
 300.58984375 470 319.58984375 489 342.58984375 489 c 0
 365.58984375 489 384.58984375 470 384.58984375 447 c 0
 384.58984375 424 365.58984375 405 342.58984375 405 c 0
 319.58984375 405 300.58984375 424 300.58984375 447 c 0
228.58984375 34 m 0
 228.58984375 57 247.58984375 76 270.58984375 76 c 0
 293.58984375 76 312.58984375 57 312.58984375 34 c 0
 312.58984375 11 293.58984375 -8 270.58984375 -8 c 0
 247.58984375 -8 228.58984375 11 228.58984375 34 c 0
EndSplineSet
EndChar

StartChar: divide.ss03.tabl
Encoding: 65735 -1 627
GlifName: divide.ss03.tabl
Width: 545
Flags: HW
LayerCount: 2
Fore
SplineSet
313.754882812 475 m 0
 317.810546875 498 340.161132812 517 363.161132812 517 c 0
 386.161132812 517 401.810546875 498 397.754882812 475 c 0
 393.700195312 452 371.349609375 433 348.349609375 433 c 0
 325.349609375 433 309.700195312 452 313.754882812 475 c 0
240.932617188 62 m 0
 244.98828125 85 267.337890625 104 290.337890625 104 c 0
 313.337890625 104 328.98828125 85 324.932617188 62 c 0
 320.876953125 39 298.526367188 20 275.526367188 20 c 0
 252.526367188 20 236.876953125 39 240.932617188 62 c 0
128.8984375 300 m 1
 520.8984375 300 l 1
 512.434570312 252 l 1
 120.434570312 252 l 1
 128.8984375 300 l 1
EndSplineSet
EndChar

StartChar: cent
Encoding: 162 162 628
GlifName: cent
Width: 537
Flags: HW
LayerCount: 2
Fore
SplineSet
362.612304688 650 m 1
 412.612304688 650 l 1
 298 0 l 1
 248 0 l 1
 362.612304688 650 l 1
102.813476562 284 m 0
 102.813476562 455.16010879 211.948003062 585 355.813476562 585 c 0
 475.391538846 585 552.813476563 500 552.813476562 389 c 1
 500.813476562 389 l 1
 500.813476562 479 445.267541485 535 349.813476562 535 c 0
 239.65635308 535 155.813476562 425.658516706 155.813476562 282 c 0
 155.813476562 175.533260371 214.270834638 116 318.813476562 116 c 0
 395.729974948 116 458.88541506 169.25720965 477.813476562 244 c 1
 534.813476562 244 l 1
 507.722958731 135.20628682 422.56143677 67 313.813476562 67 c 0
 185.168014269 67 102.813476562 151.696372901 102.813476562 284 c 0
EndSplineSet
EndChar

StartChar: sterling
Encoding: 163 163 629
GlifName: sterling
Width: 524
Flags: HW
LayerCount: 2
Fore
SplineSet
94.5986328125 338 m 1
 469.598632812 338 l 1
 461.134765625 290 l 1
 86.134765625 290 l 1
 94.5986328125 338 l 1
521.516601562 502 m 1
 521.516601562 570 484.585447906 608 410.20703125 608 c 0
 331.111328125 608 275.881835938 555.118164062 259.815429688 464 c 2
 215.91015625 215 l 2
 204.954101562 152.866210938 170.515625 81.935546875 93.4638671875 48 c 1
 497.463867188 48 l 1
 489 0 l 1
 35 0 l 1
 44.521484375 54 l 1
 121.607421875 88.421875 156.244140625 160.177734375 167.321289062 223 c 2
 209.815429688 464 l 2
 229.230153352 580.21484375 308.702470541 658 408.0234375 658 c 4
 514.737193708 658 571.516601562 594 571.516601562 502 c 1
 521.516601562 502 l 1
EndSplineSet
EndChar

StartChar: currency
Encoding: 164 164 630
GlifName: currency
Width: 480
Flags: HW
LayerCount: 2
Fore
SplineSet
185.782459977 253.017153789 m 0
 185.782459977 202.218759333 216.719377447 173 270.504882812 173 c 0
 340.1793158 173 391.505314269 228.577992637 391.505314269 304.024457179 c 0
 391.505314269 354.836723673 359.984642145 385 306.885742188 385 c 0
 237.297907896 385 185.782459977 328.856555198 185.782459977 253.017153789 c 0
400.53125 400 m 1
 495.813476562 481 l 1
 523.818359375 447 l 1
 427.359375 365 l 1
 435.072575503 349.270216948 439.027562328 330.682906347 439.027562328 310.162845889 c 0
 439.027562328 266.720632681 422.485715515 221.884057896 394.326171875 189 c 1
 463.514648438 105 l 1
 423.51953125 71 l 1
 354.331054688 155 l 1
 327.285545192 137.970113966 295.688332224 129 262.74609375 129 c 0
 229.803667636 129 201.369808825 137.970211475 180.331054688 155 c 1
 81.51953125 71 l 1
 53.5146484375 105 l 1
 152.326171875 189 l 1
 143.091268046 205.986171722 138.382787707 225.962296538 138.382787707 248.155982919 c 0
 138.382787707 289.908544882 153.952394616 333.434984313 180.536132812 366 c 1
 113.818359375 447 l 1
 153.813476562 481 l 1
 219.70703125 401 l 1
 248.3727492 419.314263891 281.213448194 429 314.64453125 429 c 0
 349.454894746 429 378.761948522 419.104354062 400.53125 400 c 1
EndSplineSet
EndChar

StartChar: degree
Encoding: 176 176 631
GlifName: degree
Width: 325
Flags: HW
LayerCount: 2
Fore
SplineSet
172.999023438 516.981445312 m 0
 172.999023438 472.4140625 202.067382812 444.875976562 249.112304688 444.875976562 c 0
 299.670898438 444.875976562 335.953125 486.52734375 335.953125 544.567382812 c 0
 335.953125 589.111328125 306.689453125 617.112304688 260.134765625 617.112304688 c 0
 209.5390625 617.112304688 172.999023438 575.123046875 172.999023438 516.981445312 c 0
382.922851562 546.525390625 m 0
 382.922851562 464.494140625 322.84375 400.873046875 245.381835938 400.873046875 c 0
 174.450195312 400.873046875 126.034179688 447.190429688 126.034179688 515.049804688 c 0
 126.034179688 597.141601562 186.400390625 661.116210938 263.864257812 661.116210938 c 0
 334.272460938 661.116210938 382.922851562 614.291015625 382.922851562 546.525390625 c 0
EndSplineSet
EndChar

StartChar: yen
Encoding: 165 165 632
GlifName: yen
Width: 567
Flags: HW
LayerCount: 2
Fore
SplineSet
106.98046875 136 m 1
 498.98046875 136 l 1
 490.516601562 88 l 1
 98.5166015625 88 l 1
 106.98046875 136 l 1
127.08203125 250 m 1
 519.08203125 250 l 1
 510.618164062 202 l 1
 118.618164062 202 l 1
 127.08203125 250 l 1
300.200195312 245 m 1
 149.612304688 650 l 1
 206.612304688 650 l 5
 331.30859375 308 l 5
 581.612304688 650 l 5
 646.612304688 650 l 1
 350.200195312 245 l 1
 307 0 l 1
 257 0 l 1
 300.200195312 245 l 1
EndSplineSet
EndChar

StartChar: brokenbar
Encoding: 166 166 633
GlifName: brokenbar
Width: 160
Flags: HW
LayerCount: 2
Fore
SplineSet
196.23828125 801 m 1
 246.23828125 801 l 1
 167.243164062 353 l 1
 117.243164062 353 l 1
 196.23828125 801 l 1
148.729492188 248 m 1
 69.734375 -200 l 1
 19.734375 -200 l 1
 98.7294921875 248 l 1
 148.729492188 248 l 1
EndSplineSet
EndChar

StartChar: uni2070
Encoding: 8304 8304 634
GlifName: uni2070
Width: 385
Flags: HW
LayerCount: 2
Fore
SplineSet
35 556 m 4
 35 675 98 754 193 754 c 4
 287 754 350 675 350 556 c 4
 350 436 287 356 193 356 c 4
 98 356 35 436 35 556 c 4
297 556 m 4
 297 650 259 704 193 704 c 4
 127 704 88 650 88 556 c 4
 88 461 127 406 193 406 c 4
 259 406 297 461 297 556 c 4
EndSplineSet
EndChar

StartChar: uni2074
Encoding: 8308 8308 635
GlifName: uni2074
Width: 394
Flags: HW
LayerCount: 2
Fore
SplineSet
285 462 m 1
 285 364 l 1
 235 364 l 1
 235 462 l 1
 35 462 l 1
 35 519 l 1
 225 750 l 1
 285 750 l 1
 285 509 l 1
 359 509 l 1
 359 462 l 1
 285 462 l 1
235 509 m 1
 235 688 l 1
 88 509 l 1
 235 509 l 1
EndSplineSet
EndChar

StartChar: uni2075
Encoding: 8309 8309 636
GlifName: uni2075
Width: 363
Flags: HW
LayerCount: 2
Fore
SplineSet
275 493 m 0
 275 435.336914062 241.494140625 406 183 406 c 0
 126.836914062 406 90.3896484375 429.884765625 88 468 c 1
 35 468 l 1
 40.5849609375 401.581054688 99.9248046875 356 183 356 c 0
 269.325195312 356 328 407.982421875 328 494 c 0
 328 572.446289062 276.943359375 629 196 629 c 0
 150.109375 629 113.268554688 609.796875 90 580 c 1
 103 702 l 1
 309 702 l 1
 309 750 l 1
 60 750 l 1
 35 526 l 1
 84 526 l 1
 103.811523438 558.615234375 140.131835938 579 189 579 c 0
 244.43359375 579 275 545.693359375 275 493 c 0
EndSplineSet
EndChar

StartChar: uni2076
Encoding: 8310 8310 637
GlifName: uni2076
Width: 377
Flags: HW
LayerCount: 2
Fore
SplineSet
35 551 m 0
 35 679.017578125 95.681640625 754 200 754 c 0
 270.741210938 754 321.755859375 713.459960938 334 647 c 1
 281 647 l 1
 273.125 683.97265625 245 704 200 704 c 0
 124.741210938 704 88 655.364257812 88 556 c 0
 88 546.823242188 89 538.412109375 90 530 c 1
 108.827148438 579.323242188 153.76953125 610 206 610 c 0
 285.1640625 610 342 556.7421875 342 483 c 0
 342 409.2578125 285.1640625 356 206 356 c 0
 101.731445312 356 35 431.671875 35 551 c 0
110 483 m 0
 110 439.505859375 149.665039062 407 202 407 c 0
 254.658203125 407 289 437.216796875 289 483 c 0
 289 528.783203125 254.658203125 559 202 559 c 0
 146.91015625 559 110 528.325195312 110 483 c 0
EndSplineSet
EndChar

StartChar: uni2077
Encoding: 8311 8311 638
GlifName: uni2077
Width: 386
Flags: HW
LayerCount: 2
Fore
SplineSet
178 364 m 1
 191.01171875 497.446289062 256.150390625 603.3515625 351 692 c 1
 351 750 l 1
 35 750 l 1
 35 702 l 1
 300 702 l 1
 217.374023438 619.46484375 145.809570312 526.581054688 124 364 c 1
 178 364 l 1
EndSplineSet
EndChar

StartChar: uni2078
Encoding: 8312 8312 639
GlifName: uni2078
Width: 377
Flags: HW
LayerCount: 2
Fore
SplineSet
191 754 m 1
 191 704 l 1
 131.750976562 704 98 680.047851562 98 638 c 0
 98 601.19140625 130.883789062 580 188 580 c 1
 188 540 l 1
 102.104492188 540 45 581.130859375 45 643 c 0
 45 709.657226562 103.32421875 754 191 754 c 1
191 406 m 1
 191 356 l 1
 97.0654296875 356 35 398.172851562 35 462 c 0
 35 526.874023438 96.0947265625 570 188 570 c 1
 188 530 l 1
 124.501953125 530 88 506.638671875 88 466 c 0
 88 427.805664062 125.432617188 406 191 406 c 1
205 580 m 1
 205 530 l 1
 178 530 l 1
 178 580 l 1
 205 580 l 1
191 754 m 1
 275.818359375 754 332 709.771484375 332 643 c 0
 332 581.130859375 277.291992188 540 195 540 c 1
 195 580 l 1
 248.30859375 580 279 601.19140625 279 638 c 0
 279 680.1328125 247.177734375 704 191 704 c 1
 191 754 l 1
191 406 m 1
 253.190429688 406 289 427.923828125 289 466 c 0
 289 506.638671875 254.6875 530 195 530 c 1
 195 570 l 1
 283.30078125 570 342 526.874023438 342 462 c 0
 342 398.07421875 282.064453125 356 191 356 c 1
 191 406 l 1
EndSplineSet
EndChar

StartChar: uni2079
Encoding: 8313 8313 640
GlifName: uni2079
Width: 377
Flags: HW
LayerCount: 2
Fore
SplineSet
342 539 m 0
 342 423.594726562 281.318359375 356 177 356 c 0
 102.563476562 356 48.8828125 394.645507812 36 458 c 1
 89 458 l 1
 97.5556640625 424.270507812 128.111328125 406 177 406 c 0
 253.603515625 406 291 451.349609375 291 544 c 0
 291 553.176757812 290 561.587890625 289 570 c 1
 270.172851562 521.29296875 225.23046875 491 173 491 c 0
 92.671875 491 35 545.935546875 35 622 c 0
 35 698.645507812 94.7607421875 754 178 754 c 0
 278 754 342 670.567382812 342 539 c 0
270 621 m 0
 270 667.35546875 230.334960938 702 178 702 c 0
 125.341796875 702 91 669.794921875 91 621 c 0
 91 572.807617188 125.341796875 541 178 541 c 0
 233.08984375 541 270 573.2890625 270 621 c 0
EndSplineSet
EndChar

StartChar: uni207A
Encoding: 8314 8314 641
GlifName: uni207A_
Width: 366
Flags: HW
LayerCount: 2
Fore
SplineSet
207 588 m 5
 331 588 l 5
 331 540 l 5
 207 540 l 5
 207 416 l 1
 159 416 l 1
 159 540 l 5
 35 540 l 5
 35 588 l 5
 159 588 l 5
 159 712 l 1
 207 712 l 1
 207 588 l 5
EndSplineSet
EndChar

StartChar: uni207B
Encoding: 8315 8315 642
GlifName: uni207B_
Width: 366
Flags: HW
LayerCount: 2
Fore
SplineSet
35 588 m 1
 331 588 l 1
 331 540 l 1
 35 540 l 1
 35 588 l 1
EndSplineSet
EndChar

StartChar: uni207C
Encoding: 8316 8316 643
GlifName: uni207C_
Width: 366
Flags: HW
LayerCount: 2
Fore
SplineSet
35 503 m 5
 331 503 l 5
 331 455 l 5
 35 455 l 5
 35 503 l 5
35 673 m 5
 331 673 l 5
 331 625 l 5
 35 625 l 5
 35 673 l 5
EndSplineSet
EndChar

StartChar: uni207D
Encoding: 8317 8317 644
GlifName: uni207D_
Width: 179
Flags: HW
LayerCount: 2
Fore
SplineSet
164 294 m 1
 113 294 l 1
 68 345.241210938 35 439.182617188 35 564 c 0
 35 682.345703125 68 771.416015625 113 820 c 1
 164 820 l 5
 112.9375 757.055664062 88 679.197265625 88 564 c 0
 88 441.956054688 112.9375 359.83984375 164 294 c 1
EndSplineSet
EndChar

StartChar: uni207E
Encoding: 8318 8318 645
GlifName: uni207E_
Width: 179
Flags: HW
LayerCount: 2
Fore
SplineSet
15 820 m 5
 66 820 l 5
 111 768.758789062 144 674.817382812 144 550 c 4
 144 431.654296875 111 342.583984375 66 294 c 5
 15 294 l 5
 66.0625 356.944335938 91 434.802734375 91 550 c 4
 91 672.043945312 66.0625 754.16015625 15 820 c 5
EndSplineSet
EndChar

StartChar: uni207F
Encoding: 8319 8319 646
GlifName: uni207F_
Width: 420
Flags: HW
LayerCount: 2
Fore
SplineSet
315 600 m 6
 315 677 276.739257812 710 217 710 c 0
 153.727539062 710 105 666.666992188 105 606 c 5
 76 612 l 5
 76.7822265625 704.106445312 155.020507812 760 227 760 c 0
 307.12890625 760 365 707.10546875 365 610 c 6
 365 364 l 1
 315 364 l 1
 315 600 l 6
55 750 m 1
 105 750 l 1
 105 364 l 1
 55 364 l 1
 55 750 l 1
EndSplineSet
EndChar

StartChar: uni2080
Encoding: 8320 8320 647
GlifName: uni2080
Width: 385
Flags: HW
LayerCount: 2
Fore
SplineSet
35 92 m 4
 35 211 98 290 193 290 c 4
 287 290 350 211 350 92 c 4
 350 -28 287 -108 193 -108 c 4
 98 -108 35 -28 35 92 c 4
297 92 m 4
 297 186 259 240 193 240 c 4
 127 240 88 186 88 92 c 4
 88 -3 127 -58 193 -58 c 4
 259 -58 297 -3 297 92 c 4
EndSplineSet
EndChar

StartChar: uni2081
Encoding: 8321 8321 648
GlifName: uni2081
Width: 220
Flags: HW
LayerCount: 2
Fore
SplineSet
135 286 m 5
 185 286 l 5
 185 -100 l 5
 135 -100 l 5
 135 160 l 5
 25 160 l 5
 25 203 l 5
 68 203 l 6
 112 203 135 215 135 255 c 6
 135 286 l 5
EndSplineSet
EndChar

StartChar: uni2082
Encoding: 8322 8322 649
GlifName: uni2082
Width: 376
Flags: HW
LayerCount: 2
Fore
SplineSet
87 -52 m 5
 337 -52 l 1
 337 -100 l 1
 35 -100 l 1
 35 -86 l 2
 35 16 120 45 192 73 c 0
 244 93 288 114 288 161 c 0
 288 211 254 240 195 240 c 0
 132 240 91 206 88 152 c 1
 35 152 l 1
 41 234 107 290 195 290 c 0
 282 290 341 237 341 157 c 0
 341 91 276 57 212 30 c 0
 149 4 96 -16 87 -52 c 5
EndSplineSet
EndChar

StartChar: uni2083
Encoding: 8323 8323 650
GlifName: uni2083
Width: 377
Flags: HW
LayerCount: 2
Fore
SplineSet
265 115 m 5
 265 65 l 5
 162 65 l 1
 162 115 l 1
 265 115 l 5
222 75 m 1
 222 115 l 1
 258.314453125 115 279 135.287109375 279 170 c 0
 279 215.037109375 245.545898438 241 187 241 c 0
 131.958984375 241 95.8984375 214.340820312 94 172 c 1
 41 172 l 1
 46.83984375 242.615234375 105.969726562 291 187 291 c 0
 273.860351562 291 332 242.994140625 332 170 c 0
 332 113.1171875 287.875976562 75 222 75 c 1
222 105 m 1
 293.872070312 105 342 65.28125 342 6 c 0
 342 -62.5244140625 281.059570312 -108 190 -108 c 0
 104.380859375 -108 40.904296875 -62.32421875 35 4 c 1
 88 4 l 1
 90.5986328125 -33.96875 130.229492188 -58 190 -58 c 0
 252.780273438 -58 289 -34.90234375 289 6 c 0
 289 43.6298828125 264.5 65 222 65 c 1
 222 105 l 1
EndSplineSet
EndChar

StartChar: uni2084
Encoding: 8324 8324 651
GlifName: uni2084
Width: 394
Flags: HW
LayerCount: 2
Fore
SplineSet
285 -2 m 1
 285 -100 l 1
 235 -100 l 1
 235 -2 l 1
 35 -2 l 1
 35 55 l 1
 225 286 l 1
 285 286 l 1
 285 45 l 1
 359 45 l 1
 359 -2 l 1
 285 -2 l 1
235 45 m 1
 235 224 l 1
 88 45 l 1
 235 45 l 1
EndSplineSet
EndChar

StartChar: uni2085
Encoding: 8325 8325 652
GlifName: uni2085
Width: 363
Flags: HW
LayerCount: 2
Fore
SplineSet
275 29 m 0
 275 -28.6630859375 241.494140625 -58 183 -58 c 0
 126.836914062 -58 90.3896484375 -34.115234375 88 4 c 1
 35 4 l 1
 40.5849609375 -62.4189453125 99.9248046875 -108 183 -108 c 0
 269.325195312 -108 328 -56.017578125 328 30 c 0
 328 108.446289062 276.943359375 165 196 165 c 0
 150.109375 165 113.268554688 145.796875 90 116 c 1
 103 238 l 1
 309 238 l 1
 309 286 l 1
 60 286 l 1
 35 62 l 1
 84 62 l 1
 103.811523438 94.615234375 140.131835938 115 189 115 c 0
 244.43359375 115 275 81.693359375 275 29 c 0
EndSplineSet
EndChar

StartChar: uni2086
Encoding: 8326 8326 653
GlifName: uni2086
Width: 377
Flags: HW
LayerCount: 2
Fore
SplineSet
35 87 m 0
 35 215.017578125 95.681640625 290 200 290 c 0
 270.741210938 290 321.755859375 249.459960938 334 183 c 1
 281 183 l 1
 273.125 219.97265625 245 240 200 240 c 0
 124.741210938 240 88 191.364257812 88 92 c 0
 88 82.8232421875 89 74.412109375 90 66 c 1
 108.827148438 115.323242188 153.76953125 146 206 146 c 0
 285.1640625 146 342 92.7421875 342 19 c 0
 342 -54.7421875 285.1640625 -108 206 -108 c 0
 101.731445312 -108 35 -32.328125 35 87 c 0
110 19 m 0
 110 -24.494140625 149.665039062 -57 202 -57 c 0
 254.658203125 -57 289 -26.783203125 289 19 c 0
 289 64.783203125 254.658203125 95 202 95 c 0
 146.91015625 95 110 64.3251953125 110 19 c 0
EndSplineSet
EndChar

StartChar: uni2087
Encoding: 8327 8327 654
GlifName: uni2087
Width: 386
Flags: HW
LayerCount: 2
Fore
SplineSet
178 -100 m 5
 191.01171875 33.4462890625 256.150390625 139.3515625 351 228 c 5
 351 286 l 5
 35 286 l 5
 35 238 l 5
 300 238 l 5
 217.374023438 155.46484375 145.809570312 62.5810546875 124 -100 c 5
 178 -100 l 5
EndSplineSet
EndChar

StartChar: uni2088
Encoding: 8328 8328 655
GlifName: uni2088
Width: 377
Flags: HW
LayerCount: 2
Fore
SplineSet
191 290 m 1
 191 240 l 1
 131.750976562 240 98 216.047851562 98 174 c 0
 98 137.19140625 130.883789062 116 188 116 c 1
 188 76 l 1
 102.104492188 76 45 117.130859375 45 179 c 0
 45 245.657226562 103.32421875 290 191 290 c 1
191 -58 m 1
 191 -108 l 1
 97.0654296875 -108 35 -65.8271484375 35 -2 c 0
 35 62.8740234375 96.0947265625 106 188 106 c 1
 188 66 l 1
 124.501953125 66 88 42.638671875 88 2 c 0
 88 -36.1943359375 125.432617188 -58 191 -58 c 1
205 116 m 1
 205 66 l 1
 178 66 l 1
 178 116 l 1
 205 116 l 1
191 290 m 1
 275.818359375 290 332 245.771484375 332 179 c 0
 332 117.130859375 277.291992188 76 195 76 c 1
 195 116 l 1
 248.30859375 116 279 137.19140625 279 174 c 0
 279 216.1328125 247.177734375 240 191 240 c 1
 191 290 l 1
191 -58 m 1
 253.190429688 -58 289 -36.076171875 289 2 c 0
 289 42.638671875 254.6875 66 195 66 c 1
 195 106 l 1
 283.30078125 106 342 62.8740234375 342 -2 c 0
 342 -65.92578125 282.064453125 -108 191 -108 c 1
 191 -58 l 1
EndSplineSet
EndChar

StartChar: uni2089
Encoding: 8329 8329 656
GlifName: uni2089
Width: 377
Flags: HW
LayerCount: 2
Fore
SplineSet
342 75 m 0
 342 -40.4052734375 281.318359375 -108 177 -108 c 0
 102.563476562 -108 48.8828125 -69.3544921875 36 -6 c 1
 89 -6 l 1
 97.5556640625 -39.7294921875 128.111328125 -58 177 -58 c 0
 253.603515625 -58 291 -12.650390625 291 80 c 0
 291 89.1767578125 290 97.587890625 289 106 c 1
 270.172851562 57.29296875 225.23046875 27 173 27 c 0
 92.671875 27 35 81.935546875 35 158 c 0
 35 234.645507812 94.7607421875 290 178 290 c 0
 278 290 342 206.567382812 342 75 c 0
270 157 m 0
 270 203.35546875 230.334960938 238 178 238 c 0
 125.341796875 238 91 205.794921875 91 157 c 0
 91 108.807617188 125.341796875 77 178 77 c 0
 233.08984375 77 270 109.2890625 270 157 c 0
EndSplineSet
EndChar

StartChar: uni208A
Encoding: 8330 8330 657
GlifName: uni208A_
Width: 366
Flags: HW
LayerCount: 2
Fore
SplineSet
207 124 m 5
 331 124 l 5
 331 76 l 5
 207 76 l 5
 207 -48 l 1
 159 -48 l 1
 159 76 l 5
 35 76 l 5
 35 124 l 5
 159 124 l 5
 159 248 l 1
 207 248 l 1
 207 124 l 5
EndSplineSet
EndChar

StartChar: uni208B
Encoding: 8331 8331 658
GlifName: uni208B_
Width: 366
Flags: HW
LayerCount: 2
Fore
SplineSet
35 124 m 1
 331 124 l 1
 331 76 l 1
 35 76 l 1
 35 124 l 1
EndSplineSet
EndChar

StartChar: uni208C
Encoding: 8332 8332 659
GlifName: uni208C_
Width: 366
Flags: HW
LayerCount: 2
Fore
SplineSet
35 39 m 5
 331 39 l 5
 331 -9 l 5
 35 -9 l 5
 35 39 l 5
35 209 m 5
 331 209 l 5
 331 161 l 5
 35 161 l 5
 35 209 l 5
EndSplineSet
EndChar

StartChar: uni208D
Encoding: 8333 8333 660
GlifName: uni208D_
Width: 179
Flags: HW
LayerCount: 2
Fore
SplineSet
164 -170 m 1
 113 -170 l 1
 68 -118.758789062 35 -24.8173828125 35 100 c 0
 35 218.345703125 68 307.416015625 113 356 c 1
 164 356 l 5
 112.9375 293.055664062 88 215.197265625 88 100 c 0
 88 -22.0439453125 112.9375 -104.16015625 164 -170 c 1
EndSplineSet
EndChar

StartChar: uni208E
Encoding: 8334 8334 661
GlifName: uni208E_
Width: 179
Flags: HW
LayerCount: 2
Fore
SplineSet
15 356 m 5
 66 356 l 5
 111 304.758789062 144 210.817382812 144 86 c 4
 144 -32.345703125 111 -121.416015625 66 -170 c 5
 15 -170 l 5
 66.0625 -107.055664062 91 -29.197265625 91 86 c 4
 91 208.043945312 66.0625 290.16015625 15 356 c 5
EndSplineSet
EndChar

StartChar: uni2099
Encoding: 8345 8345 662
GlifName: uni2099
Width: 420
Flags: HW
LayerCount: 2
Fore
SplineSet
315 136 m 2
 315 213 276.739257812 246 217 246 c 0
 153.727539062 246 105 202.666992188 105 142 c 1
 76 148 l 1
 76.7822265625 240.106445312 155.020507812 296 227 296 c 0
 307.12890625 296 365 243.10546875 365 146 c 2
 365 -100 l 1
 315 -100 l 1
 315 136 l 2
55 286 m 1
 105 286 l 1
 105 -100 l 1
 55 -100 l 1
 55 286 l 1
EndSplineSet
EndChar

StartChar: uni2460
Encoding: 9312 9312 663
GlifName: uni2460
Width: 825
Flags: HW
LayerCount: 2
Fore
SplineSet
469.125976562 3 m 0
 659.571289062 3 789 133.844726562 789 326.372070312 c 0
 789 516.853515625 662.45703125 645 474.360351562 645 c 0
 285.499023438 645 160 515.791992188 160 321.349609375 c 0
 160 129.258789062 282.600585938 3 469.125976562 3 c 0
842 325.092773438 m 0
 842 102.314453125 690.787109375 -50 469.619140625 -50 c 0
 252.063476562 -50 107 95.93359375 107 314.795898438 c 0
 107 540.598632812 258.770507812 698 476.494140625 698 c 0
 692.307617188 698 842 545.276367188 842 325.092773438 c 0
474.5 518 m 5
 524.5 518 l 5
 524.5 132 l 5
 474.5 132 l 5
 474.5 392 l 5
 364.5 392 l 5
 364.5 435 l 5
 408.5 435 l 6
 452.5 435 474.5 447 474.5 487 c 6
 474.5 518 l 5
EndSplineSet
EndChar

StartChar: uni2461
Encoding: 9313 9313 664
GlifName: uni2461
Width: 825
Flags: HW
LayerCount: 2
Fore
SplineSet
469.125976562 3 m 4
 659.571289062 3 789 133.844726562 789 326.372070312 c 4
 789 516.853515625 662.45703125 645 474.360351562 645 c 4
 285.499023438 645 160 515.791992188 160 321.349609375 c 4
 160 129.258789062 282.600585938 3 469.125976562 3 c 4
842 325.092773438 m 4
 842 102.314453125 690.787109375 -50 469.619140625 -50 c 4
 252.063476562 -50 107 95.93359375 107 314.795898438 c 4
 107 540.598632812 258.770507812 698 476.494140625 698 c 4
 692.307617188 698 842 545.276367188 842 325.092773438 c 4
373.5 180 m 1
 623.5 180 l 1
 623.5 132 l 1
 321.5 132 l 1
 321.5 146 l 2
 321.5 248 405.5 277 477.5 305 c 0
 529.5 325 573.5 346 573.5 393 c 0
 573.5 443 540.5 472 481.5 472 c 0
 418.5 472 376.5 438 373.5 384 c 1
 321.5 384 l 1
 327.5 466 393.5 522 481.5 522 c 0
 568.5 522 627.5 469 627.5 389 c 0
 627.5 323 561.5 289 497.5 262 c 0
 434.5 236 382.5 216 373.5 180 c 1
EndSplineSet
EndChar

StartChar: uni2462
Encoding: 9314 9314 665
GlifName: uni2462
Width: 825
Flags: HW
LayerCount: 2
Fore
SplineSet
842 325.092773438 m 0
 842 102.314453125 690.787109375 -50 469.619140625 -50 c 0
 252.063476562 -50 107 95.93359375 107 314.795898438 c 0
 107 540.598632812 258.770507812 698 476.494140625 698 c 0
 692.307617188 698 842 545.276367188 842 325.092773438 c 0
469.125976562 3 m 0
 659.571289062 3 789 133.844726562 789 326.372070312 c 0
 789 516.853515625 662.45703125 645 474.360351562 645 c 0
 285.499023438 645 160 515.791992188 160 321.349609375 c 0
 160 129.258789062 282.600585938 3 469.125976562 3 c 0
573.80859375 323.172851562 m 1
 607.743164062 306.638671875 628 276.328125 628 238 c 0
 628 169 567 124 476 124 c 0
 390 124 327 170 321 236 c 1
 374 236 l 1
 377 198 416 174 476 174 c 0
 539 174 575 197 575 238 c 0
 575 276 550 297 508 297 c 2
 448 297 l 1
 448 347 l 1
 508 347 l 2
 544 347 565 367 565 402 c 0
 565 447 532 473 473 473 c 0
 418 473 382 446 380 404 c 1
 327 404 l 1
 333 475 392 523 473 523 c 0
 560 523 618 475 618 402 c 0
 618 367.201171875 601.600585938 339.484375 573.80859375 323.172851562 c 1
EndSplineSet
EndChar

StartChar: uni2463
Encoding: 9315 9315 666
GlifName: uni2463
Width: 825
Flags: HW
LayerCount: 2
Fore
SplineSet
469.125976562 3 m 4
 659.571289062 3 789 133.844726562 789 326.372070312 c 4
 789 516.853515625 662.45703125 645 474.360351562 645 c 4
 285.499023438 645 160 515.791992188 160 321.349609375 c 4
 160 129.258789062 282.600585938 3 469.125976562 3 c 4
842 325.092773438 m 4
 842 102.314453125 690.787109375 -50 469.619140625 -50 c 4
 252.063476562 -50 107 95.93359375 107 314.795898438 c 4
 107 540.598632812 258.770507812 698 476.494140625 698 c 4
 692.307617188 698 842 545.276367188 842 325.092773438 c 4
562.5 230 m 1
 562.5 132 l 1
 512.5 132 l 1
 512.5 230 l 1
 312.5 230 l 1
 312.5 287 l 1
 502.5 518 l 1
 562.5 518 l 1
 562.5 277 l 1
 636.5 277 l 1
 636.5 230 l 1
 562.5 230 l 1
512.5 277 m 1
 512.5 456 l 1
 366.5 277 l 1
 512.5 277 l 1
EndSplineSet
EndChar

StartChar: uni2464
Encoding: 9316 9316 667
GlifName: uni2464
Width: 825
Flags: HW
LayerCount: 2
Fore
SplineSet
469.125976562 3 m 4
 659.571289062 3 789 133.844726562 789 326.372070312 c 4
 789 516.853515625 662.45703125 645 474.360351562 645 c 4
 285.499023438 645 160 515.791992188 160 321.349609375 c 4
 160 129.258789062 282.600585938 3 469.125976562 3 c 4
842 325.092773438 m 4
 842 102.314453125 690.787109375 -50 469.619140625 -50 c 4
 252.063476562 -50 107 95.93359375 107 314.795898438 c 4
 107 540.598632812 258.770507812 698 476.494140625 698 c 4
 692.307617188 698 842 545.276367188 842 325.092773438 c 4
568 261 m 0
 568 203 534 174 476 174 c 0
 420 174 383 198 381 236 c 1
 328 236 l 1
 334 170 393 124 476 124 c 0
 562 124 621 176 621 262 c 0
 621 340 570 397 489 397 c 0
 443 397 406 378 383 348 c 1
 396 470 l 1
 602 470 l 1
 602 518 l 1
 353 518 l 1
 328 294 l 1
 377 294 l 1
 397 327 433 347 482 347 c 0
 537 347 568 314 568 261 c 0
EndSplineSet
EndChar

StartChar: uni2465
Encoding: 9317 9317 668
GlifName: uni2465
Width: 825
Flags: HW
LayerCount: 2
Fore
SplineSet
469.125976562 3 m 4
 659.571289062 3 789 133.844726562 789 326.372070312 c 4
 789 516.853515625 662.45703125 645 474.360351562 645 c 4
 285.499023438 645 160 515.791992188 160 321.349609375 c 4
 160 129.258789062 282.600585938 3 469.125976562 3 c 4
842 325.092773438 m 4
 842 102.314453125 690.787109375 -50 469.619140625 -50 c 4
 252.063476562 -50 107 95.93359375 107 314.795898438 c 4
 107 540.598632812 258.770507812 698 476.494140625 698 c 4
 692.307617188 698 842 545.276367188 842 325.092773438 c 4
321 319 m 0
 321 447 382 522 486 522 c 0
 557 522 608 481 620 415 c 1
 567 415 l 1
 559 452 531 472 486 472 c 0
 411 472 374 423 374 324 c 0
 374 315 375 306 376 298 c 1
 395 347 440 378 492 378 c 0
 571 378 628 325 628 251 c 0
 628 177 571 124 492 124 c 0
 388 124 321 200 321 319 c 0
396 251 m 0
 396 208 436 175 488 175 c 0
 541 175 575 205 575 251 c 0
 575 297 541 327 488 327 c 0
 433 327 396 296 396 251 c 0
EndSplineSet
EndChar

StartChar: uni2466
Encoding: 9318 9318 669
GlifName: uni2466
Width: 825
Flags: HW
LayerCount: 2
Fore
SplineSet
469.125976562 3 m 4
 659.571289062 3 789 133.844726562 789 326.372070312 c 4
 789 516.853515625 662.45703125 645 474.360351562 645 c 4
 285.499023438 645 160 515.791992188 160 321.349609375 c 4
 160 129.258789062 282.600585938 3 469.125976562 3 c 4
842 325.092773438 m 4
 842 102.314453125 690.787109375 -50 469.619140625 -50 c 4
 252.063476562 -50 107 95.93359375 107 314.795898438 c 4
 107 540.598632812 258.770507812 698 476.494140625 698 c 4
 692.307617188 698 842 545.276367188 842 325.092773438 c 4
460.5 132 m 1
 473.5 265 537.5 371 632.5 460 c 1
 632.5 518 l 1
 316.5 518 l 1
 316.5 470 l 1
 582.5 470 l 1
 499.5 387 428.5 295 406.5 132 c 1
 460.5 132 l 1
EndSplineSet
EndChar

StartChar: uni2467
Encoding: 9319 9319 670
GlifName: uni2467
Width: 825
Flags: HW
LayerCount: 2
Fore
SplineSet
842 325.092773438 m 0
 842 102.314453125 690.787109375 -50 469.619140625 -50 c 0
 252.063476562 -50 107 95.93359375 107 314.795898438 c 0
 107 540.598632812 258.770507812 698 476.494140625 698 c 0
 692.307617188 698 842 545.276367188 842 325.092773438 c 0
469.125976562 3 m 0
 659.571289062 3 789 133.844726562 789 326.372070312 c 0
 789 516.853515625 662.45703125 645 474.360351562 645 c 0
 285.499023438 645 160 515.791992188 160 321.349609375 c 0
 160 129.258789062 282.600585938 3 469.125976562 3 c 0
391.869140625 323.825195312 m 1
 353.624023438 341.21484375 331 371.939453125 331 411 c 0
 331 478 389 522 477 522 c 0
 562 522 618 478 618 411 c 0
 618 371.9765625 596.211914062 341.272460938 559.616210938 323.875 c 1
 602.336914062 306.168945312 628 272.869140625 628 230 c 0
 628 166 568 124 477 124 c 0
 383 124 321 166 321 230 c 0
 321 272.829101562 347.484375 306.106445312 391.869140625 323.825195312 c 1
474 348 m 2
 481 348 l 2
 534 348 565 369 565 406 c 0
 565 448 533 472 477 472 c 0
 418 472 384 448 384 406 c 0
 384 369 417 348 474 348 c 2
474 298 m 2
 411 298 374 275 374 234 c 0
 374 196 411 174 477 174 c 0
 539 174 575 196 575 234 c 0
 575 275 541 298 481 298 c 2
 474 298 l 2
EndSplineSet
EndChar

StartChar: uni2468
Encoding: 9320 9320 671
GlifName: uni2468
Width: 825
Flags: HW
LayerCount: 2
Fore
SplineSet
469.125976562 3 m 4
 659.571289062 3 789 133.844726562 789 326.372070312 c 4
 789 516.853515625 662.45703125 645 474.360351562 645 c 4
 285.499023438 645 160 515.791992188 160 321.349609375 c 4
 160 129.258789062 282.600585938 3 469.125976562 3 c 4
842 325.092773438 m 4
 842 102.314453125 690.787109375 -50 469.619140625 -50 c 4
 252.063476562 -50 107 95.93359375 107 314.795898438 c 4
 107 540.598632812 258.770507812 698 476.494140625 698 c 4
 692.307617188 698 842 545.276367188 842 325.092773438 c 4
628 307 m 0
 628 192 567 124 463 124 c 0
 389 124 335 163 322 226 c 1
 375 226 l 1
 384 192 414 174 463 174 c 0
 540 174 577 219 577 312 c 0
 577 321 576 330 575 338 c 1
 556 289 511 259 459 259 c 0
 379 259 321 314 321 390 c 0
 321 467 381 522 464 522 c 0
 564 522 628 439 628 307 c 0
556 389 m 0
 556 435 516 470 464 470 c 0
 411 470 377 438 377 389 c 0
 377 341 411 309 464 309 c 0
 519 309 556 341 556 389 c 0
EndSplineSet
EndChar

StartChar: uni24EA
Encoding: 9450 9450 672
GlifName: uni24E_A_
Width: 825
Flags: HW
LayerCount: 2
Fore
SplineSet
469.125976562 3 m 0
 659.571289062 3 789 133.844726562 789 326.372070312 c 0
 789 516.853515625 662.45703125 645 474.360351562 645 c 0
 285.499023438 645 160 515.791992188 160 321.349609375 c 0
 160 129.258789062 282.600585938 3 469.125976562 3 c 0
842 325.092773438 m 0
 842 102.314453125 690.787109375 -50 469.619140625 -50 c 0
 252.063476562 -50 107 95.93359375 107 314.795898438 c 0
 107 540.598632812 258.770507812 698 476.494140625 698 c 0
 692.307617188 698 842 545.276367188 842 325.092773438 c 0
317 324 m 0
 317 443 380 522 475 522 c 0
 569 522 632 443 632 324 c 0
 632 204 569 124 475 124 c 0
 380 124 317 204 317 324 c 0
579 324 m 0
 579 418 541 472 475 472 c 0
 409 472 370 418 370 324 c 0
 370 229 409 174 475 174 c 0
 541 174 579 229 579 324 c 0
EndSplineSet
EndChar

StartChar: uni24FF
Encoding: 9471 9471 673
GlifName: uni24F_F_
Width: 825
Flags: HW
LayerCount: 2
Fore
SplineSet
842 325.092773438 m 0
 842 102.314453125 690.787109375 -50 469.619140625 -50 c 0
 252.063476562 -50 107 95.93359375 107 314.795898438 c 0
 107 540.598632812 258.770507812 698 476.494140625 698 c 0
 692.307617188 698 842 545.276367188 842 325.092773438 c 0
317 324 m 0
 317 204 380 124 475 124 c 0
 569 124 632 204 632 324 c 0
 632 443 569 522 475 522 c 0
 380 522 317 443 317 324 c 0
579 324 m 0
 579 229 541 174 475 174 c 0
 409 174 370 229 370 324 c 0
 370 418 409 472 475 472 c 0
 541 472 579 418 579 324 c 0
EndSplineSet
EndChar

StartChar: uni2776
Encoding: 10102 10102 674
GlifName: uni2776
Width: 825
Flags: HW
LayerCount: 2
Fore
SplineSet
842 325.092773438 m 0
 842 102.314453125 690.787109375 -50 469.619140625 -50 c 0
 252.063476562 -50 107 95.93359375 107 314.795898438 c 0
 107 540.598632812 258.770507812 698 476.494140625 698 c 0
 692.307617188 698 842 545.276367188 842 325.092773438 c 0
474.5 518 m 1
 474.5 487 l 2
 474.5 447 452.5 435 408.5 435 c 2
 364.5 435 l 1
 364.5 392 l 1
 474.5 392 l 1
 474.5 132 l 1
 524.5 132 l 1
 524.5 518 l 1
 474.5 518 l 1
EndSplineSet
EndChar

StartChar: uni2777
Encoding: 10103 10103 675
GlifName: uni2777
Width: 825
Flags: HW
LayerCount: 2
Fore
SplineSet
842 325.092773438 m 0
 842 102.314453125 690.787109375 -50 469.619140625 -50 c 0
 252.063476562 -50 107 95.93359375 107 314.795898438 c 0
 107 540.598632812 258.770507812 698 476.494140625 698 c 0
 692.307617188 698 842 545.276367188 842 325.092773438 c 0
373.5 180 m 1
 382.5 216 434.5 236 497.5 262 c 0
 561.5 289 627.5 323 627.5 389 c 0
 627.5 469 568.5 522 481.5 522 c 0
 393.5 522 327.5 466 321.5 384 c 1
 373.5 384 l 1
 376.5 438 418.5 472 481.5 472 c 0
 540.5 472 573.5 443 573.5 393 c 0
 573.5 346 529.5 325 477.5 305 c 0
 405.5 277 321.5 248 321.5 146 c 2
 321.5 132 l 1
 623.5 132 l 1
 623.5 180 l 1
 373.5 180 l 1
EndSplineSet
EndChar

StartChar: uni2778
Encoding: 10104 10104 676
GlifName: uni2778
Width: 825
Flags: HW
LayerCount: 2
Fore
SplineSet
842 325.092773438 m 0
 842 102.314453125 690.787109375 -50 469.619140625 -50 c 0
 252.063476562 -50 107 95.93359375 107 314.795898438 c 0
 107 540.598632812 258.770507812 698 476.494140625 698 c 0
 692.307617188 698 842 545.276367188 842 325.092773438 c 0
573.80859375 323.172851562 m 1
 601.600585938 339.484375 618 367.201171875 618 402 c 0
 618 475 560 523 473 523 c 0
 392 523 333 475 327 404 c 1
 380 404 l 1
 382 446 418 473 473 473 c 0
 532 473 565 447 565 402 c 0
 565 367 544 347 508 347 c 2
 448 347 l 1
 448 297 l 1
 508 297 l 2
 550 297 575 276 575 238 c 0
 575 197 539 174 476 174 c 0
 416 174 377 198 374 236 c 1
 321 236 l 1
 327 170 390 124 476 124 c 0
 567 124 628 169 628 238 c 0
 628 276.328125 607.743164062 306.638671875 573.80859375 323.172851562 c 1
EndSplineSet
EndChar

StartChar: uni2779
Encoding: 10105 10105 677
GlifName: uni2779
Width: 825
Flags: HW
LayerCount: 2
Fore
SplineSet
842 325.092773438 m 0
 842 102.314453125 690.787109375 -50 469.619140625 -50 c 0
 252.063476562 -50 107 95.93359375 107 314.795898438 c 0
 107 540.598632812 258.770507812 698 476.494140625 698 c 0
 692.307617188 698 842 545.276367188 842 325.092773438 c 0
562.5 230 m 1
 636.5 230 l 1
 636.5 277 l 1
 562.5 277 l 1
 562.5 518 l 1
 502.5 518 l 1
 312.5 287 l 1
 312.5 230 l 1
 512.5 230 l 1
 512.5 132 l 1
 562.5 132 l 1
 562.5 230 l 1
512.5 277 m 1
 366.5 277 l 1
 512.5 456 l 1
 512.5 277 l 1
EndSplineSet
EndChar

StartChar: uni277A
Encoding: 10106 10106 678
GlifName: uni277A_
Width: 825
Flags: HW
LayerCount: 2
Fore
SplineSet
842 325.092773438 m 0
 842 102.314453125 690.787109375 -50 469.619140625 -50 c 0
 252.063476562 -50 107 95.93359375 107 314.795898438 c 0
 107 540.598632812 258.770507812 698 476.494140625 698 c 0
 692.307617188 698 842 545.276367188 842 325.092773438 c 0
568 261 m 0
 568 203 534 174 476 174 c 0
 420 174 383 198 381 236 c 1
 328 236 l 1
 334 170 393 124 476 124 c 0
 562 124 621 176 621 262 c 0
 621 340 570 397 489 397 c 0
 443 397 406 378 383 348 c 1
 396 470 l 1
 602 470 l 1
 602 518 l 1
 353 518 l 1
 328 294 l 1
 377 294 l 1
 397 327 433 347 482 347 c 0
 537 347 568 314 568 261 c 0
EndSplineSet
EndChar

StartChar: uni277B
Encoding: 10107 10107 679
GlifName: uni277B_
Width: 825
Flags: HW
LayerCount: 2
Fore
SplineSet
842 325.092773438 m 0
 842 102.314453125 690.787109375 -50 469.619140625 -50 c 0
 252.063476562 -50 107 95.93359375 107 314.795898438 c 0
 107 540.598632812 258.770507812 698 476.494140625 698 c 0
 692.307617188 698 842 545.276367188 842 325.092773438 c 0
321 319 m 0
 321 200 388 124 492 124 c 0
 571 124 628 177 628 251 c 0
 628 325 571 378 492 378 c 0
 440 378 395 347 376 298 c 1
 375 306 374 315 374 324 c 0
 374 423 411 472 486 472 c 0
 531 472 559 452 567 415 c 1
 620 415 l 1
 608 481 557 522 486 522 c 0
 382 522 321 447 321 319 c 0
396 251 m 0
 396 296 433 327 488 327 c 0
 541 327 575 297 575 251 c 0
 575 205 541 175 488 175 c 0
 436 175 396 208 396 251 c 0
EndSplineSet
EndChar

StartChar: uni277C
Encoding: 10108 10108 680
GlifName: uni277C_
Width: 825
Flags: HW
LayerCount: 2
Fore
SplineSet
842 325.092773438 m 0
 842 102.314453125 690.787109375 -50 469.619140625 -50 c 0
 252.063476562 -50 107 95.93359375 107 314.795898438 c 0
 107 540.598632812 258.770507812 698 476.494140625 698 c 0
 692.307617188 698 842 545.276367188 842 325.092773438 c 0
460.5 132 m 1
 473.5 265 537.5 371 632.5 460 c 1
 632.5 518 l 1
 316.5 518 l 1
 316.5 470 l 1
 582.5 470 l 1
 499.5 387 428.5 295 406.5 132 c 1
 460.5 132 l 1
EndSplineSet
EndChar

StartChar: uni277D
Encoding: 10109 10109 681
GlifName: uni277D_
Width: 825
Flags: HW
LayerCount: 2
Fore
SplineSet
842 325.092773438 m 0
 842 102.314453125 690.787109375 -50 469.619140625 -50 c 0
 252.063476562 -50 107 95.93359375 107 314.795898438 c 0
 107 540.598632812 258.770507812 698 476.494140625 698 c 0
 692.307617188 698 842 545.276367188 842 325.092773438 c 0
559.616210938 323.875 m 1
 596.211914062 341.272460938 618 371.9765625 618 411 c 0
 618 478 562 522 477 522 c 0
 389 522 331 478 331 411 c 0
 331 371.939453125 353.624023438 341.21484375 391.869140625 323.825195312 c 1
 347.484375 306.106445312 321 272.829101562 321 230 c 0
 321 166 383 124 477 124 c 0
 568 124 628 166 628 230 c 0
 628 272.869140625 602.336914062 306.168945312 559.616210938 323.875 c 1
481 348 m 2
 474 348 l 2
 417 348 384 369 384 406 c 0
 384 448 418 472 477 472 c 0
 533 472 565 448 565 406 c 0
 565 369 534 348 481 348 c 2
481 298 m 2
 541 298 575 275 575 234 c 0
 575 196 539 174 477 174 c 0
 411 174 374 196 374 234 c 0
 374 275 411 298 474 298 c 2
 481 298 l 2
EndSplineSet
EndChar

StartChar: uni277E
Encoding: 10110 10110 682
GlifName: uni277E_
Width: 825
Flags: HW
LayerCount: 2
Fore
SplineSet
842 325.092773438 m 0
 842 102.314453125 690.787109375 -50 469.619140625 -50 c 0
 252.063476562 -50 107 95.93359375 107 314.795898438 c 0
 107 540.598632812 258.770507812 698 476.494140625 698 c 0
 692.307617188 698 842 545.276367188 842 325.092773438 c 0
628 307 m 0
 628 439 564 522 464 522 c 0
 381 522 321 467 321 390 c 0
 321 314 379 259 459 259 c 0
 511 259 556 289 575 338 c 1
 576 330 577 321 577 312 c 0
 577 219 540 174 463 174 c 0
 414 174 384 192 375 226 c 1
 322 226 l 1
 335 163 389 124 463 124 c 0
 567 124 628 192 628 307 c 0
556 389 m 0
 556 341 519 309 464 309 c 0
 411 309 377 341 377 389 c 0
 377 438 411 470 464 470 c 0
 516 470 556 435 556 389 c 0
EndSplineSet
EndChar

StartChar: filledbox
Encoding: 9632 9632 683
GlifName: filledbox
Width: 825
Flags: HW
LayerCount: 2
Fore
SplineSet
842 -40 m 1
 107 -40 l 1
 107 690 l 1
 842 690 l 1
 842 -40 l 1
EndSplineSet
EndChar

StartChar: H22073
Encoding: 9633 9633 684
GlifName: H_22073
Width: 825
Flags: HW
LayerCount: 2
Fore
SplineSet
792 10 m 1
 792 640 l 1
 157 640 l 1
 157 10 l 1
 792 10 l 1
842 -40 m 1
 107 -40 l 1
 107 690 l 1
 842 690 l 1
 842 -40 l 1
EndSplineSet
EndChar

StartChar: triagup
Encoding: 9650 9650 685
GlifName: triagup
Width: 825
Flags: HW
LayerCount: 2
Fore
SplineSet
842 -40 m 1
 107 -40 l 1
 474 690 l 1
 842 -40 l 1
EndSplineSet
EndChar

StartChar: uni25B3
Encoding: 9651 9651 686
GlifName: uni25B_3
Width: 825
Flags: HW
LayerCount: 2
Fore
SplineSet
762 10 m 1
 474 580 l 1
 187 10 l 1
 762 10 l 1
842 -40 m 1
 107 -40 l 1
 474 690 l 1
 842 -40 l 1
EndSplineSet
EndChar

StartChar: uni25B6
Encoding: 9654 9654 687
GlifName: uni25B_6
Width: 825
Flags: HW
LayerCount: 2
Fore
SplineSet
109.5 -42.5 m 1
 109.5 692.5 l 1
 839.5 325.5 l 1
 109.5 -42.5 l 1
EndSplineSet
EndChar

StartChar: uni25B7
Encoding: 9655 9655 688
GlifName: uni25B_7
Width: 825
Flags: HW
LayerCount: 2
Fore
SplineSet
159.5 37.5 m 1
 729.5 325.5 l 5
 159.5 612.5 l 1
 159.5 37.5 l 1
109.5 -42.5 m 1
 109.5 692.5 l 1
 839.5 325.5 l 1
 109.5 -42.5 l 1
EndSplineSet
EndChar

StartChar: triagdn
Encoding: 9660 9660 689
GlifName: triagdn
Width: 825
Flags: HW
LayerCount: 2
Fore
SplineSet
107 690 m 1
 842 690 l 1
 475 -40 l 1
 107 690 l 1
EndSplineSet
EndChar

StartChar: uni25BD
Encoding: 9661 9661 690
GlifName: uni25B_D_
Width: 825
Flags: HW
LayerCount: 2
Fore
SplineSet
187 640 m 1
 475 70 l 5
 762 640 l 1
 187 640 l 1
107 690 m 1
 842 690 l 1
 475 -40 l 1
 107 690 l 1
EndSplineSet
EndChar

StartChar: uni25C0
Encoding: 9664 9664 691
GlifName: uni25C_0
Width: 825
Flags: HW
LayerCount: 2
Fore
SplineSet
839.5 692.5 m 1
 839.5 -42.5 l 1
 109.5 324.5 l 1
 839.5 692.5 l 1
EndSplineSet
EndChar

StartChar: uni25C1
Encoding: 9665 9665 692
GlifName: uni25C_1
Width: 825
Flags: HW
LayerCount: 2
Fore
SplineSet
789.5 612.5 m 1
 219.5 324.5 l 5
 789.5 37.5 l 1
 789.5 612.5 l 1
839.5 692.5 m 1
 839.5 -42.5 l 1
 109.5 324.5 l 1
 839.5 692.5 l 1
EndSplineSet
EndChar

StartChar: uni25C6
Encoding: 9670 9670 693
GlifName: uni25C_6
Width: 825
Flags: HW
LayerCount: 2
Fore
SplineSet
842 325 m 1
 470 -50 l 1
 107 315 l 1
 476 698 l 1
 842 325 l 1
EndSplineSet
EndChar

StartChar: uni25C7
Encoding: 9671 9671 694
GlifName: uni25C_7
Width: 825
Flags: HW
LayerCount: 2
Fore
SplineSet
842 325 m 1
 470 -50 l 1
 107 315 l 1
 476 698 l 1
 842 325 l 1
468 26 m 1
 767 327 l 1
 476 622 l 1
 183 320 l 1
 468 26 l 1
EndSplineSet
EndChar

StartChar: lozenge
Encoding: 9674 9674 695
GlifName: lozenge
Width: 605
Flags: HW
LayerCount: 2
Fore
SplineSet
358 16 m 5
 562 328 l 1
 366 632 l 1
 166 321 l 1
 358 16 l 5
622 329 m 1
 380 -50 l 1
 340 -50 l 1
 107 319 l 1
 346 698 l 1
 386 698 l 1
 622 329 l 1
EndSplineSet
EndChar

StartChar: circle
Encoding: 9675 9675 696
GlifName: circle
Width: 825
Flags: HW
LayerCount: 2
Fore
SplineSet
469.125976562 3 m 4
 659.571289062 3 789 133.844726562 789 326.372070312 c 4
 789 516.853515625 662.45703125 645 474.360351562 645 c 4
 285.499023438 645 160 515.791992188 160 321.349609375 c 4
 160 129.258789062 282.600585938 3 469.125976562 3 c 4
842 325.092773438 m 4
 842 102.314453125 690.787109375 -50 469.619140625 -50 c 4
 252.063476562 -50 107 95.93359375 107 314.795898438 c 4
 107 540.598632812 258.770507812 698 476.494140625 698 c 4
 692.307617188 698 842 545.276367188 842 325.092773438 c 4
EndSplineSet
EndChar

StartChar: H18533
Encoding: 9679 9679 697
GlifName: H_18533
Width: 825
Flags: HW
LayerCount: 2
Fore
SplineSet
842 325.092773438 m 0
 842 102.314453125 690.787109375 -50 469.619140625 -50 c 0
 252.063476562 -50 107 95.93359375 107 314.795898438 c 0
 107 540.598632812 258.770507812 698 476.494140625 698 c 0
 692.307617188 698 842 545.276367188 842 325.092773438 c 0
EndSplineSet
EndChar

StartChar: uni25D0
Encoding: 9680 9680 698
GlifName: uni25D_0
Width: 825
Flags: HW
LayerCount: 2
Fore
SplineSet
469.125976562 3 m 5
 659.571289062 3 789 133.844726562 789 326.372070312 c 0
 789 516.853515625 662.45703125 645 474.360351562 645 c 5
 469.125976562 3 l 5
842 325.092773438 m 0
 842 102.314453125 690.787109375 -50 469.619140625 -50 c 0
 252.063476562 -50 107 95.93359375 107 314.795898438 c 0
 107 540.598632812 258.770507812 698 476.494140625 698 c 0
 692.307617188 698 842 545.276367188 842 325.092773438 c 0
EndSplineSet
EndChar

StartChar: uni25D1
Encoding: 9681 9681 699
GlifName: uni25D_1
Width: 825
Flags: HW
LayerCount: 2
Fore
SplineSet
479.874023438 645 m 5
 289.428710938 645 160 514.155273438 160 321.627929688 c 0
 160 131.146484375 286.54296875 3 474.639648438 3 c 5
 479.874023438 645 l 5
107 322.907226562 m 0
 107 545.685546875 258.212890625 698 479.380859375 698 c 0
 696.936523438 698 842 552.06640625 842 333.204101562 c 0
 842 107.401367188 690.229492188 -50 472.505859375 -50 c 0
 256.692382812 -50 107 102.723632812 107 322.907226562 c 0
EndSplineSet
EndChar

StartChar: uni25D2
Encoding: 9682 9682 700
GlifName: uni25D_2
Width: 825
Flags: HW
LayerCount: 2
Fore
SplineSet
789 326.372070312 m 1
 789 516.853515625 662.45703125 645 474.360351562 645 c 0
 285.499023438 645 160 515.791992188 160 321.349609375 c 1
 789 326.372070312 l 1
842 325.092773438 m 0
 842 102.314453125 690.787109375 -50 469.619140625 -50 c 0
 252.063476562 -50 107 95.93359375 107 314.795898438 c 0
 107 540.598632812 258.770507812 698 476.494140625 698 c 0
 692.307617188 698 842 545.276367188 842 325.092773438 c 0
EndSplineSet
EndChar

StartChar: uni25D3
Encoding: 9683 9683 701
GlifName: uni25D_3
Width: 825
Flags: HW
LayerCount: 2
Fore
SplineSet
160 321.627929688 m 1
 160 131.146484375 286.54296875 3 474.639648438 3 c 0
 663.500976562 3 789 132.208007812 789 326.650390625 c 1
 160 321.627929688 l 1
107 322.907226562 m 0
 107 545.685546875 258.212890625 698 479.380859375 698 c 0
 696.936523438 698 842 552.06640625 842 333.204101562 c 0
 842 107.401367188 690.229492188 -50 472.505859375 -50 c 0
 256.692382812 -50 107 102.723632812 107 322.907226562 c 0
EndSplineSet
EndChar

StartChar: uni25E2
Encoding: 9698 9698 702
GlifName: uni25E_2
Width: 825
Flags: HW
LayerCount: 2
Fore
SplineSet
842 -40 m 1
 107 -40 l 1
 842 690 l 1
 842 -40 l 1
EndSplineSet
EndChar

StartChar: uni25E3
Encoding: 9699 9699 703
GlifName: uni25E_3
Width: 825
Flags: HW
LayerCount: 2
Fore
SplineSet
109.5 -42.5 m 1
 109.5 692.5 l 1
 839.5 -42.5 l 1
 109.5 -42.5 l 1
EndSplineSet
EndChar

StartChar: uni25E4
Encoding: 9700 9700 704
GlifName: uni25E_4
Width: 825
Flags: HW
LayerCount: 2
Fore
SplineSet
107 690 m 1
 842 690 l 5
 107 -40 l 5
 107 690 l 1
EndSplineSet
EndChar

StartChar: uni25E5
Encoding: 9701 9701 705
GlifName: uni25E_5
Width: 825
Flags: HW
LayerCount: 2
Fore
SplineSet
839.5 692.5 m 1
 839.5 -42.5 l 5
 109.5 692.5 l 5
 839.5 692.5 l 1
EndSplineSet
EndChar

StartChar: uni00B2
Encoding: 178 178 706
GlifName: uni00B_2
Width: 376
Flags: HW
LayerCount: 2
Fore
SplineSet
87 412 m 5
 337 412 l 1
 337 364 l 1
 35 364 l 1
 35 378 l 2
 35 480 120 509 192 537 c 0
 244 557 288 578 288 625 c 0
 288 675 254 704 195 704 c 0
 132 704 91 670 88 616 c 1
 35 616 l 1
 41 698 107 754 195 754 c 0
 282 754 341 701 341 621 c 0
 341 555 276 521 212 494 c 0
 149 468 96 448 87 412 c 5
EndSplineSet
EndChar

StartChar: uni00B3
Encoding: 179 179 707
GlifName: uni00B_3
Width: 377
Flags: HW
LayerCount: 2
Fore
SplineSet
265 579 m 5
 265 529 l 5
 162 529 l 1
 162 579 l 1
 265 579 l 5
222 539 m 1
 222 579 l 1
 258.314453125 579 279 599.287109375 279 634 c 0
 279 679.037109375 245.545898438 705 187 705 c 0
 131.958984375 705 95.8984375 678.340820312 94 636 c 1
 41 636 l 1
 46.83984375 706.615234375 105.969726562 755 187 755 c 0
 273.860351562 755 332 706.994140625 332 634 c 0
 332 577.1171875 287.875976562 539 222 539 c 1
222 569 m 1
 293.872070312 569 342 529.28125 342 470 c 0
 342 401.475585938 281.059570312 356 190 356 c 0
 104.380859375 356 40.904296875 401.67578125 35 468 c 1
 88 468 l 1
 90.5986328125 430.03125 130.229492188 406 190 406 c 0
 252.780273438 406 289 429.09765625 289 470 c 0
 289 507.629882812 264.5 529 222 529 c 1
 222 569 l 1
EndSplineSet
EndChar

StartChar: uni00B9
Encoding: 185 185 708
GlifName: uni00B_9
Width: 220
Flags: HW
LayerCount: 2
Fore
SplineSet
135 750 m 5
 185 750 l 5
 185 364 l 5
 135 364 l 5
 135 624 l 5
 25 624 l 5
 25 667 l 5
 68 667 l 6
 112 667 135 679 135 719 c 6
 135 750 l 5
EndSplineSet
EndChar

StartChar: zero.dnom
Encoding: 65736 -1 709
GlifName: zero.dnom
Width: 385
Flags: HW
LayerCount: 2
Fore
SplineSet
35 192 m 4
 35 311 98 390 193 390 c 4
 287 390 350 311 350 192 c 4
 350 72 287 -8 193 -8 c 4
 98 -8 35 72 35 192 c 4
297 192 m 4
 297 286 259 340 193 340 c 4
 127 340 88 286 88 192 c 4
 88 97 127 42 193 42 c 4
 259 42 297 97 297 192 c 4
EndSplineSet
EndChar

StartChar: one.dnom
Encoding: 65737 -1 710
GlifName: one.dnom
Width: 220
Flags: HW
LayerCount: 2
Fore
SplineSet
135 386 m 5
 185 386 l 5
 185 0 l 5
 135 0 l 5
 135 260 l 5
 25 260 l 5
 25 303 l 5
 68 303 l 6
 112 303 135 315 135 355 c 6
 135 386 l 5
EndSplineSet
EndChar

StartChar: two.dnom
Encoding: 65738 -1 711
GlifName: two.dnom
Width: 376
Flags: HW
LayerCount: 2
Fore
SplineSet
87 48 m 5
 337 48 l 1
 337 0 l 1
 35 0 l 1
 35 14 l 2
 35 116 120 145 192 173 c 0
 244 193 288 214 288 261 c 0
 288 311 254 340 195 340 c 0
 132 340 91 306 88 252 c 1
 35 252 l 1
 41 334 107 390 195 390 c 0
 282 390 341 337 341 257 c 0
 341 191 276 157 212 130 c 0
 149 104 96 84 87 48 c 5
EndSplineSet
EndChar

StartChar: three.dnom
Encoding: 65739 -1 712
GlifName: three.dnom
Width: 377
Flags: HW
LayerCount: 2
Fore
SplineSet
265 215 m 5
 265 165 l 5
 162 165 l 1
 162 215 l 1
 265 215 l 5
222 175 m 1
 222 215 l 1
 258.314453125 215 279 235.287109375 279 270 c 0
 279 315.037109375 245.545898438 341 187 341 c 0
 131.958984375 341 95.8984375 314.340820312 94 272 c 1
 41 272 l 1
 46.83984375 342.615234375 105.969726562 391 187 391 c 0
 273.860351562 391 332 342.994140625 332 270 c 0
 332 213.1171875 287.875976562 175 222 175 c 1
222 205 m 1
 293.872070312 205 342 165.28125 342 106 c 0
 342 37.4755859375 281.059570312 -8 190 -8 c 0
 104.380859375 -8 40.904296875 37.67578125 35 104 c 1
 88 104 l 1
 90.5986328125 66.03125 130.229492188 42 190 42 c 0
 252.780273438 42 289 65.09765625 289 106 c 0
 289 143.629882812 264.5 165 222 165 c 1
 222 205 l 1
EndSplineSet
EndChar

StartChar: four.dnom
Encoding: 65740 -1 713
GlifName: four.dnom
Width: 394
Flags: HW
LayerCount: 2
Fore
SplineSet
285 98 m 1
 285 0 l 1
 235 0 l 1
 235 98 l 1
 35 98 l 1
 35 155 l 1
 225 386 l 1
 285 386 l 1
 285 145 l 1
 359 145 l 1
 359 98 l 1
 285 98 l 1
235 145 m 1
 235 324 l 1
 88 145 l 1
 235 145 l 1
EndSplineSet
EndChar

StartChar: five.dnom
Encoding: 65741 -1 714
GlifName: five.dnom
Width: 363
Flags: HW
LayerCount: 2
Fore
SplineSet
275 129 m 0
 275 71.3369140625 241.494140625 42 183 42 c 0
 126.836914062 42 90.3896484375 65.884765625 88 104 c 1
 35 104 l 1
 40.5849609375 37.5810546875 99.9248046875 -8 183 -8 c 0
 269.325195312 -8 328 43.982421875 328 130 c 0
 328 208.446289062 276.943359375 265 196 265 c 0
 150.109375 265 113.268554688 245.796875 90 216 c 1
 103 338 l 1
 309 338 l 1
 309 386 l 1
 60 386 l 1
 35 162 l 1
 84 162 l 1
 103.811523438 194.615234375 140.131835938 215 189 215 c 0
 244.43359375 215 275 181.693359375 275 129 c 0
EndSplineSet
EndChar

StartChar: six.dnom
Encoding: 65742 -1 715
GlifName: six.dnom
Width: 377
Flags: HW
LayerCount: 2
Fore
SplineSet
35 187 m 0
 35 315.017578125 95.681640625 390 200 390 c 0
 270.741210938 390 321.755859375 349.459960938 334 283 c 1
 281 283 l 1
 273.125 319.97265625 245 340 200 340 c 0
 124.741210938 340 88 291.364257812 88 192 c 0
 88 182.823242188 89 174.412109375 90 166 c 1
 108.827148438 215.323242188 153.76953125 246 206 246 c 0
 285.1640625 246 342 192.7421875 342 119 c 0
 342 45.2578125 285.1640625 -8 206 -8 c 0
 101.731445312 -8 35 67.671875 35 187 c 0
110 119 m 0
 110 75.505859375 149.665039062 43 202 43 c 0
 254.658203125 43 289 73.216796875 289 119 c 0
 289 164.783203125 254.658203125 195 202 195 c 0
 146.91015625 195 110 164.325195312 110 119 c 0
EndSplineSet
EndChar

StartChar: seven.dnom
Encoding: 65743 -1 716
GlifName: seven.dnom
Width: 386
Flags: HW
LayerCount: 2
Fore
SplineSet
178 0 m 5
 191.01171875 133.446289062 256.150390625 239.3515625 351 328 c 5
 351 386 l 5
 35 386 l 5
 35 338 l 5
 300 338 l 5
 217.374023438 255.46484375 145.809570312 162.581054688 124 0 c 5
 178 0 l 5
EndSplineSet
EndChar

StartChar: eight.dnom
Encoding: 65744 -1 717
GlifName: eight.dnom
Width: 377
Flags: HW
LayerCount: 2
Fore
SplineSet
191 390 m 1
 191 340 l 1
 131.750976562 340 98 316.047851562 98 274 c 0
 98 237.19140625 130.883789062 216 188 216 c 1
 188 176 l 1
 102.104492188 176 45 217.130859375 45 279 c 0
 45 345.657226562 103.32421875 390 191 390 c 1
191 42 m 1
 191 -8 l 1
 97.0654296875 -8 35 34.1728515625 35 98 c 0
 35 162.874023438 96.0947265625 206 188 206 c 1
 188 166 l 1
 124.501953125 166 88 142.638671875 88 102 c 0
 88 63.8056640625 125.432617188 42 191 42 c 1
205 216 m 1
 205 166 l 1
 178 166 l 1
 178 216 l 1
 205 216 l 1
191 390 m 1
 275.818359375 390 332 345.771484375 332 279 c 0
 332 217.130859375 277.291992188 176 195 176 c 1
 195 216 l 1
 248.30859375 216 279 237.19140625 279 274 c 0
 279 316.1328125 247.177734375 340 191 340 c 1
 191 390 l 1
191 42 m 1
 253.190429688 42 289 63.923828125 289 102 c 0
 289 142.638671875 254.6875 166 195 166 c 1
 195 206 l 1
 283.30078125 206 342 162.874023438 342 98 c 0
 342 34.07421875 282.064453125 -8 191 -8 c 1
 191 42 l 1
EndSplineSet
EndChar

StartChar: nine.dnom
Encoding: 65745 -1 718
GlifName: nine.dnom
Width: 377
Flags: HW
LayerCount: 2
Fore
SplineSet
342 175 m 0
 342 59.5947265625 281.318359375 -8 177 -8 c 0
 102.563476562 -8 48.8828125 30.6455078125 36 94 c 1
 89 94 l 1
 97.5556640625 60.2705078125 128.111328125 42 177 42 c 0
 253.603515625 42 291 87.349609375 291 180 c 0
 291 189.176757812 290 197.587890625 289 206 c 1
 270.172851562 157.29296875 225.23046875 127 173 127 c 0
 92.671875 127 35 181.935546875 35 258 c 0
 35 334.645507812 94.7607421875 390 178 390 c 0
 278 390 342 306.567382812 342 175 c 0
270 257 m 0
 270 303.35546875 230.334960938 338 178 338 c 0
 125.341796875 338 91 305.794921875 91 257 c 0
 91 208.807617188 125.341796875 177 178 177 c 0
 233.08984375 177 270 209.2890625 270 257 c 0
EndSplineSet
EndChar

StartChar: zero.numr
Encoding: 65746 -1 719
GlifName: zero.numr
Width: 385
Flags: HW
LayerCount: 2
Fore
SplineSet
35 456 m 4
 35 575 98 654 193 654 c 4
 287 654 350 575 350 456 c 4
 350 336 287 256 193 256 c 4
 98 256 35 336 35 456 c 4
297 456 m 4
 297 550 259 604 193 604 c 4
 127 604 88 550 88 456 c 4
 88 361 127 306 193 306 c 4
 259 306 297 361 297 456 c 4
EndSplineSet
EndChar

StartChar: one.numr
Encoding: 65747 -1 720
GlifName: one.numr
Width: 220
Flags: HW
LayerCount: 2
Fore
SplineSet
135 650 m 5
 185 650 l 5
 185 264 l 5
 135 264 l 5
 135 524 l 5
 25 524 l 5
 25 567 l 5
 68 567 l 6
 112 567 135 579 135 619 c 6
 135 650 l 5
EndSplineSet
EndChar

StartChar: two.numr
Encoding: 65748 -1 721
GlifName: two.numr
Width: 376
Flags: HW
LayerCount: 2
Fore
SplineSet
87 312 m 5
 337 312 l 1
 337 264 l 1
 35 264 l 1
 35 278 l 2
 35 380 120 409 192 437 c 0
 244 457 288 478 288 525 c 0
 288 575 254 604 195 604 c 0
 132 604 91 570 88 516 c 1
 35 516 l 1
 41 598 107 654 195 654 c 0
 282 654 341 601 341 521 c 0
 341 455 276 421 212 394 c 0
 149 368 96 348 87 312 c 5
EndSplineSet
EndChar

StartChar: three.numr
Encoding: 65749 -1 722
GlifName: three.numr
Width: 377
Flags: HW
LayerCount: 2
Fore
SplineSet
265 479 m 5
 265 429 l 5
 162 429 l 1
 162 479 l 1
 265 479 l 5
222 439 m 1
 222 479 l 1
 258.314453125 479 279 499.287109375 279 534 c 0
 279 579.037109375 245.545898438 605 187 605 c 0
 131.958984375 605 95.8984375 578.340820312 94 536 c 1
 41 536 l 1
 46.83984375 606.615234375 105.969726562 655 187 655 c 0
 273.860351562 655 332 606.994140625 332 534 c 0
 332 477.1171875 287.875976562 439 222 439 c 1
222 469 m 1
 293.872070312 469 342 429.28125 342 370 c 0
 342 301.475585938 281.059570312 256 190 256 c 0
 104.380859375 256 40.904296875 301.67578125 35 368 c 1
 88 368 l 1
 90.5986328125 330.03125 130.229492188 306 190 306 c 0
 252.780273438 306 289 329.09765625 289 370 c 0
 289 407.629882812 264.5 429 222 429 c 1
 222 469 l 1
EndSplineSet
EndChar

StartChar: four.numr
Encoding: 65750 -1 723
GlifName: four.numr
Width: 394
Flags: HW
LayerCount: 2
Fore
SplineSet
285 362 m 1
 285 264 l 1
 235 264 l 1
 235 362 l 1
 35 362 l 1
 35 419 l 1
 225 650 l 1
 285 650 l 1
 285 409 l 1
 359 409 l 1
 359 362 l 1
 285 362 l 1
235 409 m 1
 235 588 l 1
 88 409 l 1
 235 409 l 1
EndSplineSet
EndChar

StartChar: five.numr
Encoding: 65751 -1 724
GlifName: five.numr
Width: 363
Flags: HW
LayerCount: 2
Fore
SplineSet
275 393 m 0
 275 335.336914062 241.494140625 306 183 306 c 0
 126.836914062 306 90.3896484375 329.884765625 88 368 c 1
 35 368 l 1
 40.5849609375 301.581054688 99.9248046875 256 183 256 c 0
 269.325195312 256 328 307.982421875 328 394 c 0
 328 472.446289062 276.943359375 529 196 529 c 0
 150.109375 529 113.268554688 509.796875 90 480 c 1
 103 602 l 1
 309 602 l 1
 309 650 l 1
 60 650 l 1
 35 426 l 1
 84 426 l 1
 103.811523438 458.615234375 140.131835938 479 189 479 c 0
 244.43359375 479 275 445.693359375 275 393 c 0
EndSplineSet
EndChar

StartChar: six.numr
Encoding: 65752 -1 725
GlifName: six.numr
Width: 377
Flags: HW
LayerCount: 2
Fore
SplineSet
35 451 m 0
 35 579.017578125 95.681640625 654 200 654 c 0
 270.741210938 654 321.755859375 613.459960938 334 547 c 1
 281 547 l 1
 273.125 583.97265625 245 604 200 604 c 0
 124.741210938 604 88 555.364257812 88 456 c 0
 88 446.823242188 89 438.412109375 90 430 c 1
 108.827148438 479.323242188 153.76953125 510 206 510 c 0
 285.1640625 510 342 456.7421875 342 383 c 0
 342 309.2578125 285.1640625 256 206 256 c 0
 101.731445312 256 35 331.671875 35 451 c 0
110 383 m 0
 110 339.505859375 149.665039062 307 202 307 c 0
 254.658203125 307 289 337.216796875 289 383 c 0
 289 428.783203125 254.658203125 459 202 459 c 0
 146.91015625 459 110 428.325195312 110 383 c 0
EndSplineSet
EndChar

StartChar: seven.numr
Encoding: 65753 -1 726
GlifName: seven.numr
Width: 386
Flags: HW
LayerCount: 2
Fore
SplineSet
178 264 m 5
 191.01171875 397.446289062 256.150390625 503.3515625 351 592 c 5
 351 650 l 5
 35 650 l 5
 35 602 l 5
 300 602 l 5
 217.374023438 519.46484375 145.809570312 426.581054688 124 264 c 5
 178 264 l 5
EndSplineSet
EndChar

StartChar: eight.numr
Encoding: 65754 -1 727
GlifName: eight.numr
Width: 377
Flags: HW
LayerCount: 2
Fore
SplineSet
191 654 m 1
 191 604 l 1
 131.750976562 604 98 580.047851562 98 538 c 0
 98 501.19140625 130.883789062 480 188 480 c 1
 188 440 l 1
 102.104492188 440 45 481.130859375 45 543 c 0
 45 609.657226562 103.32421875 654 191 654 c 1
191 306 m 1
 191 256 l 1
 97.0654296875 256 35 298.172851562 35 362 c 0
 35 426.874023438 96.0947265625 470 188 470 c 1
 188 430 l 1
 124.501953125 430 88 406.638671875 88 366 c 0
 88 327.805664062 125.432617188 306 191 306 c 1
205 480 m 1
 205 430 l 1
 178 430 l 1
 178 480 l 1
 205 480 l 1
191 654 m 1
 275.818359375 654 332 609.771484375 332 543 c 0
 332 481.130859375 277.291992188 440 195 440 c 1
 195 480 l 1
 248.30859375 480 279 501.19140625 279 538 c 0
 279 580.1328125 247.177734375 604 191 604 c 1
 191 654 l 1
191 306 m 1
 253.190429688 306 289 327.923828125 289 366 c 0
 289 406.638671875 254.6875 430 195 430 c 1
 195 470 l 1
 283.30078125 470 342 426.874023438 342 362 c 0
 342 298.07421875 282.064453125 256 191 256 c 1
 191 306 l 1
EndSplineSet
EndChar

